<svg width="751" height="495" viewBox="0 0 751 495" fill="none" xmlns="http://www.w3.org/2000/svg">
<path d="M115.339 475.786C115.961 482.815 121.575 491.729 131.304 491.729H137.004C139.211 491.729 141.011 489.929 141.011 487.722V362.558H140.989C140.882 360.458 139.125 358.765 137.004 358.765H119.346C117.204 358.765 115.468 360.458 115.361 362.558H115.339V372.736C104.518 359.408 87.4822 353.9 70.3822 353.9C31.5107 353.879 0.0107422 385.379 0.0107422 424.229C0.0107422 463.1 31.5107 494.6 70.3822 494.6C87.4607 494.6 106.104 487.979 115.339 475.786ZM70.4465 469.979C45.7393 469.979 25.7036 449.493 25.7036 424.229C25.7036 398.965 45.7393 378.5 70.4465 378.5C95.1536 378.5 115.189 398.986 115.189 424.229C115.189 449.493 95.1536 469.979 70.4465 469.979Z" fill="white"/>
<path d="M402.868 475.786C403.489 482.815 409.103 491.729 418.832 491.729H424.532C426.739 491.729 428.539 489.929 428.539 487.722V362.558H428.518C428.411 360.458 426.653 358.765 424.532 358.765H406.875C404.732 358.765 402.996 360.458 402.868 362.558V362.558V372.736C392.046 359.408 375.011 353.9 357.911 353.9C319.061 353.9 287.539 385.4 287.539 424.272C287.539 463.143 319.039 494.643 357.911 494.643C375.011 494.6 393.653 487.979 402.868 475.786ZM357.996 469.979C333.289 469.979 313.253 449.493 313.253 424.229C313.253 398.965 333.289 378.5 357.996 378.5C382.703 378.5 402.739 398.986 402.739 424.229C402.739 449.493 382.703 469.979 357.996 469.979Z" fill="white"/>
<path d="M724.319 475.786C724.94 482.815 730.555 491.729 740.283 491.729H745.983C748.19 491.729 750.012 489.929 750.012 487.722V362.558H749.99C749.883 360.458 748.126 358.765 746.005 358.765H728.347C726.205 358.765 724.469 360.458 724.362 362.558H724.34V372.736C713.519 359.408 696.483 353.9 679.383 353.9C640.512 353.9 609.012 385.4 609.012 424.272C609.012 463.143 640.512 494.643 679.383 494.643C696.462 494.6 715.083 487.979 724.319 475.786ZM679.426 469.979C654.719 469.979 634.683 449.493 634.683 424.229C634.683 398.965 654.719 378.5 679.426 378.5C704.133 378.5 724.169 398.986 724.169 424.229C724.19 449.493 704.155 469.979 679.426 469.979Z" fill="white"/>
<path d="M586.683 480.072V415.294C586.683 378.78 563.647 354.158 526.918 354.158C509.39 354.158 493.34 364.208 489.933 373.015C488.84 366.201 485.218 359.044 474.011 359.044H468.29C466.083 359.044 464.283 360.844 464.283 363.072V476.087V476.108V488.022V488.237H464.304C464.411 490.337 466.168 492.03 468.29 492.03H480.247H485.947C486.226 492.03 486.483 492.008 486.74 491.944C486.847 491.922 486.976 491.88 487.083 491.837C487.211 491.794 487.34 491.772 487.468 491.708C487.618 491.644 487.768 491.558 487.918 491.472C487.983 491.43 488.068 491.387 488.133 491.344C488.304 491.237 488.476 491.087 488.626 490.958C488.647 490.937 488.69 490.915 488.711 490.894C488.883 490.722 489.054 490.53 489.183 490.337C489.633 489.737 489.89 489.008 489.933 488.215H489.954V488.001V480.051V477.972V414.287C489.954 394.68 505.854 378.78 525.461 378.78C545.068 378.78 560.968 394.68 560.968 414.287L560.99 476.087V476.065C560.99 476.13 560.99 476.172 560.99 476.237V488.001V488.215H561.011C561.118 490.315 562.876 492.008 564.997 492.008H576.954H582.654C582.933 492.008 583.19 491.987 583.447 491.922C583.554 491.901 583.64 491.858 583.747 491.837C583.897 491.794 584.047 491.751 584.175 491.708C584.325 491.644 584.454 491.558 584.583 491.494C584.668 491.451 584.754 491.408 584.84 491.365C585.011 491.258 585.161 491.13 585.29 491.001C585.333 490.958 585.375 490.937 585.397 490.915C585.568 490.744 585.718 490.572 585.847 490.401C585.847 490.38 585.868 490.38 585.868 490.358C586.297 489.758 586.576 489.03 586.618 488.258H586.64V488.044L586.683 480.072Z" fill="white"/>
<path d="M183.182 457.85C194.968 466.015 207.825 469.979 220.189 469.979C231.954 469.979 244.125 463.872 244.125 453.243C244.125 439.057 217.597 436.85 200.947 431.193C184.275 425.536 169.918 413.815 169.918 394.872C169.918 365.857 195.761 353.879 219.889 353.879C235.168 353.879 250.939 358.915 261.182 366.136C264.697 368.815 262.554 371.879 262.554 371.879L252.782 385.829C251.689 387.393 249.761 388.765 247.018 387.05C244.254 385.357 234.611 378.522 219.889 378.522C205.168 378.522 196.297 385.315 196.297 393.736C196.297 403.85 207.825 407.022 221.325 410.472C244.854 416.815 270.504 424.443 270.504 453.265C270.504 478.829 246.589 494.622 220.168 494.622C200.132 494.622 183.097 488.922 168.804 478.422C165.825 475.443 167.904 472.679 167.904 472.679L177.611 458.815C179.604 456.2 182.089 457.1 183.182 457.85Z" fill="white"/>
<path d="M436.875 62.3861C436.875 96.4789 409.232 124.143 375.139 124.143C341.025 124.143 313.382 96.5003 313.382 62.3861C313.382 28.2718 341.025 0.628906 375.139 0.628906C409.232 0.628906 436.875 28.2718 436.875 62.3861ZM294.91 139.572C260.818 139.572 233.153 167.215 233.153 201.307C233.153 235.4 260.796 263.065 294.91 263.065C329.025 263.065 356.668 235.422 356.668 201.307C356.668 167.215 329.025 139.572 294.91 139.572ZM455.346 139.572C421.232 139.572 393.589 167.215 393.589 201.329C393.589 235.443 421.232 263.086 455.346 263.086C489.439 263.086 517.103 235.443 517.103 201.329C517.103 167.215 489.46 139.572 455.346 139.572Z" fill="white"/>
</svg>
