<svg width="128" height="128" viewBox="0 0 128 128" fill="none" xmlns="http://www.w3.org/2000/svg">
<rect width="128" height="128" fill="white"/>
<path fill-rule="evenodd" clip-rule="evenodd" d="M120.025 69.756C120.097 70.5695 120.747 71.6048 121.875 71.6048H122.534C122.79 71.6048 123 71.3952 123 71.1394V56.6339H122.997C122.983 56.3895 122.781 56.1938 122.534 56.1938H120.491C120.244 56.1938 120.042 56.3895 120.028 56.6339H120.025V57.8126C118.773 56.2691 116.799 55.6284 114.819 55.6284C110.319 55.6284 106.671 59.2791 106.671 63.7828C106.671 68.2868 110.319 71.9376 114.819 71.9376V71.938C116.799 71.938 118.956 71.1694 120.025 69.7541L120.025 69.756ZM114.827 69.0836C111.965 69.0836 109.645 66.7106 109.645 63.7828C109.645 60.8556 111.965 58.4824 114.827 58.4824C117.689 58.4824 120.009 60.8556 120.009 63.7828C120.009 66.7106 117.689 69.0836 114.827 69.0836Z" fill="#0D0E10"/>
<path fill-rule="evenodd" clip-rule="evenodd" d="M104.088 70.255L104.087 62.749H104.087C104.087 58.5179 101.42 55.6636 97.1669 55.6636C95.1366 55.6636 93.4722 56.8385 92.8845 57.8478C92.7574 57.0586 92.3387 56.2291 91.0404 56.2291H90.3786C90.1227 56.2291 89.9136 56.4388 89.9136 56.6947V69.7924C89.9136 69.7928 89.9136 69.7939 89.9136 69.7944V71.2014H89.9162C89.9296 71.4454 90.1318 71.6414 90.3788 71.6414H92.4226C92.4539 71.6414 92.4846 71.6376 92.5142 71.6318C92.5277 71.6292 92.5404 71.6239 92.5535 71.6201C92.5687 71.6155 92.5845 71.6119 92.5989 71.606C92.6172 71.5984 92.6336 71.5883 92.6506 71.5788C92.6588 71.5738 92.6675 71.5702 92.6755 71.5648C92.6959 71.5517 92.7147 71.5359 92.7327 71.5197C92.7357 71.5167 92.7392 71.5148 92.7422 71.512C92.7624 71.4923 92.781 71.4706 92.7975 71.4481C92.7976 71.4477 92.7976 71.4477 92.7976 71.4477C92.8488 71.3774 92.8799 71.2928 92.8849 71.2014H92.8875V62.6326C92.8875 60.3602 94.7284 58.5179 96.9994 58.5179C99.27 58.5179 101.111 60.3602 101.111 62.6326L101.113 69.7949L101.113 69.7924C101.113 69.7988 101.114 69.8053 101.114 69.8121V71.2014H101.117C101.131 71.4454 101.332 71.6414 101.58 71.6414H103.623C103.655 71.6414 103.685 71.6376 103.715 71.6318C103.727 71.6296 103.738 71.6247 103.75 71.6214C103.767 71.6166 103.784 71.6123 103.8 71.606C103.817 71.599 103.832 71.5893 103.848 71.5805C103.857 71.5751 103.868 71.571 103.877 71.5648C103.896 71.5525 103.913 71.5375 103.93 71.5227C103.934 71.5187 103.939 71.5157 103.943 71.5116C103.963 71.4929 103.98 71.4728 103.996 71.4516C103.997 71.45 103.998 71.4487 103.999 71.4471C104.049 71.3774 104.08 71.2934 104.086 71.2027C104.086 71.2021 104.086 71.2014 104.086 71.2014H104.089V70.2552L104.088 70.255Z" fill="#0D0E10"/>
<path fill-rule="evenodd" clip-rule="evenodd" d="M82.8038 69.756C82.8753 70.5695 83.5259 71.6048 84.6531 71.6048H85.3127C85.5684 71.6048 85.7776 71.3952 85.7776 71.1394V56.6339H85.775C85.7617 56.3895 85.5595 56.1938 85.3127 56.1938H83.2689C83.0218 56.1938 82.8199 56.3895 82.8061 56.6339H82.8038V57.8126C81.5514 56.2691 79.5773 55.6284 77.5975 55.6284C73.0976 55.6284 69.4497 59.2791 69.4497 63.7828C69.4497 68.2868 73.0976 71.9376 77.5975 71.9376V71.938C79.5773 71.938 81.7349 71.1694 82.8035 69.7541L82.8038 69.756ZM77.6054 69.0836C74.7437 69.0836 72.4234 66.7106 72.4234 63.7828C72.4234 60.8556 74.7437 58.4824 77.6054 58.4824C80.4675 58.4824 82.7872 60.8556 82.7872 63.7828C82.7872 66.7106 80.4675 69.0836 77.6054 69.0836Z" fill="#0D0E10"/>
<path fill-rule="evenodd" clip-rule="evenodd" d="M57.3629 67.6782C58.7272 68.6241 60.2165 69.0835 61.6476 69.0835C63.011 69.0835 64.4205 68.3762 64.4205 67.145C64.4205 65.5012 61.3492 65.2455 59.4194 64.5891C57.4894 63.9328 55.8271 62.5759 55.8271 60.3787C55.8271 57.0165 58.8206 55.6279 61.6144 55.6279C63.3847 55.6279 65.2112 56.2121 66.3953 57.049C66.8031 57.3582 66.5547 57.7133 66.5547 57.7133L65.4244 59.3289C65.2973 59.5109 65.0753 59.6681 64.7563 59.4712C64.4375 59.2743 63.319 58.482 61.6144 58.482C59.9098 58.482 58.883 59.2699 58.883 60.2464C58.883 61.4173 60.2176 61.7856 61.7807 62.1848C64.5047 62.9196 67.4763 63.8028 67.4763 67.145C67.4763 70.1073 64.7076 71.938 61.6476 71.938C59.3287 71.938 57.3544 71.2764 55.6985 70.0604C55.3536 69.7149 55.5945 69.3942 55.5945 69.3942L56.7193 67.7866C56.9481 67.4861 57.2368 67.5909 57.3629 67.6782Z" fill="#0D0E10"/>
<path fill-rule="evenodd" clip-rule="evenodd" d="M49.5063 69.756C49.5778 70.5695 50.2284 71.6048 51.3557 71.6048H52.0153C52.2709 71.6048 52.4805 71.3952 52.4805 71.1394V56.6339H52.4776C52.4643 56.3895 52.2624 56.1938 52.0153 56.1938H49.9716C49.7245 56.1938 49.5226 56.3895 49.5088 56.6339H49.5063V57.8126C48.2542 56.2691 46.2799 55.6284 44.3002 55.6284C39.8003 55.6284 36.1523 59.2791 36.1523 63.7828C36.1523 68.2868 39.8003 71.9376 44.3002 71.9376V71.938C46.2799 71.938 48.4374 71.1694 49.5061 69.7541L49.5063 69.756ZM44.3083 69.0836C41.4463 69.0836 39.1261 66.7106 39.1261 63.7828C39.1261 60.8556 41.4463 58.4824 44.3083 58.4824C47.1701 58.4824 49.49 60.8556 49.49 63.7828C49.49 66.7106 47.1701 69.0836 44.3083 69.0836Z" fill="#0D0E10"/>
<path fill-rule="evenodd" clip-rule="evenodd" d="M24.7292 64.3374C21.7009 64.3374 19.246 66.7924 19.246 69.8208C19.246 72.8492 21.7009 75.3042 24.7292 75.3042C27.7576 75.3042 30.2125 72.8492 30.2125 69.8208C30.2125 66.7924 27.7576 64.3374 24.7292 64.3374ZM10.4833 64.3378C7.45497 64.3378 5 66.7924 5 69.8208C5 72.8492 7.45497 75.3042 10.4833 75.3042C13.5117 75.3042 15.9668 72.8492 15.9668 69.8208C15.9668 66.7924 13.5117 64.3378 10.4833 64.3378ZM23.0894 57.4831C23.0894 60.5117 20.6345 62.9669 17.6063 62.9669C14.5778 62.9669 12.123 60.5117 12.123 57.4831C12.123 54.4552 14.5778 52 17.6063 52C20.6345 52 23.0894 54.4552 23.0894 57.4831Z" fill="#F06A6A"/>
</svg>
