<svg width="251" height="196" viewBox="0 0 251 196" fill="none" xmlns="http://www.w3.org/2000/svg">
<path d="M30.3867 36.7803V39.8418C30.3867 39.946 30.3965 40.0452 30.416 40.1396L32.6426 35.6426C32.3984 35.4603 32.1201 35.3691 31.8076 35.3691C31.4137 35.3691 31.0785 35.5075 30.8018 35.7842C30.5251 36.0576 30.3867 36.3896 30.3867 36.7803ZM34.0098 36.7949V39.8271C34.0098 40.4261 33.7949 40.9388 33.3652 41.3652C32.9355 41.7884 32.4163 42 31.8076 42C31.1956 42 30.6764 41.7884 30.25 41.3652C29.8203 40.9388 29.6055 40.4261 29.6055 39.8271V36.7949C29.6055 36.196 29.8203 35.6849 30.25 35.2617C30.6797 34.8353 31.1989 34.6221 31.8076 34.6221C32.4163 34.6221 32.9355 34.8353 33.3652 35.2617C33.7949 35.6849 34.0098 36.196 34.0098 36.7949ZM33.165 36.3506L30.8994 40.9258C31.1566 41.1439 31.4593 41.2529 31.8076 41.2529C32.195 41.2529 32.5286 41.1146 32.8086 40.8379C33.0853 40.5645 33.2253 40.2324 33.2285 39.8418V36.7803C33.2285 36.6273 33.2074 36.484 33.165 36.3506ZM47.5938 40.1494C47.5938 40.4489 47.7028 40.6995 47.9209 40.9014C48.1423 41.1064 48.3945 41.209 48.6777 41.209C48.9512 41.209 49.1921 41.1064 49.4004 40.9014C49.6022 40.7028 49.7064 40.4521 49.7129 40.1494V40.0811L50.4941 39.7344V40.1641C50.4941 40.6198 50.2988 41.056 49.9082 41.4727C49.5762 41.8242 49.1562 42 48.6484 42C48.1406 42 47.7077 41.821 47.3496 41.4629C46.9915 41.1048 46.8125 40.6719 46.8125 40.1641V38.3672C46.8125 37.8594 46.9915 37.4264 47.3496 37.0684C47.7077 36.7103 48.1406 36.5312 48.6484 36.5312C49.1628 36.5312 49.5973 36.7103 49.9521 37.0684C50.3135 37.4264 50.4941 37.8594 50.4941 38.3672V38.416L49.7129 38.7676V38.3818C49.7064 38.0791 49.6022 37.8285 49.4004 37.6299C49.1921 37.4248 48.9463 37.3223 48.6631 37.3223C48.3701 37.3223 48.1178 37.4248 47.9062 37.6299C47.6979 37.835 47.5938 38.0807 47.5938 38.3672C47.5938 38.3737 47.5938 38.3786 47.5938 38.3818V40.1494ZM55.3281 40.1152L56.1094 39.7734V40.1641C56.1094 40.6719 55.9303 41.1048 55.5723 41.4629C55.2142 41.821 54.7812 42 54.2734 42C53.7656 42 53.3311 41.821 52.9697 41.4629C52.6084 41.1048 52.4277 40.6719 52.4277 40.1641V34.9639L53.209 34.6221V40.1494C53.2155 40.4521 53.3197 40.7028 53.5215 40.9014C53.7298 41.1064 53.9902 41.209 54.3027 41.209C54.5762 41.209 54.8154 41.0983 55.0205 40.877C55.2256 40.6556 55.3281 40.4017 55.3281 40.1152ZM58.8291 40.5645C58.8291 40.6719 58.8714 40.7826 58.9561 40.8965C59.1123 41.1048 59.3613 41.209 59.7031 41.209C59.9115 41.209 60.0954 41.1602 60.2549 41.0625L60.5479 41.7998C60.2939 41.9333 60.0124 42 59.7031 42C59.2148 42 58.7819 41.821 58.4043 41.4629C58.1504 41.2025 58.0234 40.903 58.0234 40.5645C58.0234 40.5514 58.0234 40.5384 58.0234 40.5254C58.0234 39.9167 58.3343 39.4854 58.9561 39.2314L60.9434 38.416C60.9434 38.1068 60.8408 37.848 60.6357 37.6396C60.4307 37.4281 60.1719 37.3223 59.8594 37.3223C59.5859 37.3223 59.3451 37.4248 59.1367 37.6299C58.9349 37.8285 58.8307 38.0791 58.8242 38.3818V38.4502L58.043 38.7969V38.3672C58.043 37.9115 58.2383 37.4753 58.6289 37.0586C58.9609 36.707 59.3809 36.5312 59.8887 36.5312C60.3965 36.5312 60.8294 36.7103 61.1875 37.0684C61.5456 37.4264 61.7246 37.8594 61.7246 38.3672V41.6582L60.9434 42V39.2705L59.3369 39.9248C58.9984 40.0843 58.8291 40.2975 58.8291 40.5645ZM65.5332 41.209C65.8229 41.209 66.0622 41.1113 66.251 40.916C66.4398 40.7142 66.5342 40.4896 66.5342 40.2422C66.5342 40.0241 66.4398 39.8174 66.251 39.6221C66.0589 39.4268 65.7985 39.321 65.4697 39.3047C65.0661 39.2852 64.7454 39.1631 64.5078 38.9385C64.2767 38.7204 64.1383 38.4079 64.0928 38.001C64.0895 37.9717 64.0879 37.9424 64.0879 37.9131C64.1042 37.5583 64.2474 37.2425 64.5176 36.9658C64.7943 36.6761 65.1312 36.5312 65.5283 36.5312C65.9482 36.5312 66.2852 36.6761 66.5391 36.9658C66.7083 37.1611 66.8402 37.4199 66.9346 37.7422L66.2266 38.0547C66.1745 37.8398 66.0947 37.6689 65.9873 37.542C65.8669 37.4085 65.7122 37.3418 65.5234 37.3418C65.3444 37.3418 65.1882 37.4085 65.0547 37.542C64.931 37.6657 64.8691 37.8057 64.8691 37.9619C64.8691 37.9684 64.8691 37.9766 64.8691 37.9863C64.8691 38.1426 64.9277 38.2777 65.0449 38.3916C65.1523 38.499 65.3086 38.5641 65.5137 38.5869C66.0801 38.652 66.5146 38.8262 66.8174 39.1094C67.1494 39.4284 67.3154 39.8174 67.3154 40.2764V40.291C67.3089 40.7272 67.1478 41.1178 66.832 41.4629C66.5 41.821 66.0671 42 65.5332 42C65.0221 42 64.6022 41.8242 64.2734 41.4727C63.9056 41.0853 63.7103 40.6491 63.6875 40.1641L63.6826 40.1152L64.4639 39.7734L64.4688 40.1494C64.472 40.4521 64.5745 40.7028 64.7764 40.9014C64.9847 41.1064 65.237 41.209 65.5332 41.209ZM71.1484 41.209C71.4382 41.209 71.6774 41.1113 71.8662 40.916C72.055 40.7142 72.1494 40.4896 72.1494 40.2422C72.1494 40.0241 72.055 39.8174 71.8662 39.6221C71.6742 39.4268 71.4137 39.321 71.085 39.3047C70.6813 39.2852 70.3607 39.1631 70.123 38.9385C69.8919 38.7204 69.7536 38.4079 69.708 38.001C69.7048 37.9717 69.7031 37.9424 69.7031 37.9131C69.7194 37.5583 69.8626 37.2425 70.1328 36.9658C70.4095 36.6761 70.7464 36.5312 71.1436 36.5312C71.5635 36.5312 71.9004 36.6761 72.1543 36.9658C72.3236 37.1611 72.4554 37.4199 72.5498 37.7422L71.8418 38.0547C71.7897 37.8398 71.71 37.6689 71.6025 37.542C71.4821 37.4085 71.3275 37.3418 71.1387 37.3418C70.9596 37.3418 70.8034 37.4085 70.6699 37.542C70.5462 37.6657 70.4844 37.8057 70.4844 37.9619C70.4844 37.9684 70.4844 37.9766 70.4844 37.9863C70.4844 38.1426 70.543 38.2777 70.6602 38.3916C70.7676 38.499 70.9238 38.5641 71.1289 38.5869C71.6953 38.652 72.1299 38.8262 72.4326 39.1094C72.7646 39.4284 72.9307 39.8174 72.9307 40.2764V40.291C72.9242 40.7272 72.763 41.1178 72.4473 41.4629C72.1152 41.821 71.6823 42 71.1484 42C70.6374 42 70.2174 41.8242 69.8887 41.4727C69.5208 41.0853 69.3255 40.6491 69.3027 40.1641L69.2979 40.1152L70.0791 39.7734L70.084 40.1494C70.0872 40.4521 70.1898 40.7028 70.3916 40.9014C70.5999 41.1064 70.8522 41.209 71.1484 41.209ZM80.5576 34.7197H84.4736L84.1318 35.501H82.7354V41.1211H84.4736L84.1318 41.9023H80.2158L80.5576 41.1211H81.9541V35.501H80.2158L80.5576 34.7197ZM92.9062 36.5459V35.0859C92.9062 34.487 93.1211 33.9743 93.5508 33.5479C93.9805 33.1247 94.4997 32.9131 95.1084 32.9131H95.4941L95.167 33.6602H95.1084C94.721 33.6602 94.3874 33.7969 94.1074 34.0703C93.8275 34.3438 93.6875 34.6774 93.6875 35.0713V36.5166V36.5312C93.6875 37.127 93.4727 37.6396 93.043 38.0693C92.9518 38.1605 92.8558 38.2419 92.7549 38.3135C92.859 38.3818 92.9551 38.46 93.043 38.5479C93.4727 38.9775 93.6875 39.4902 93.6875 40.0859V40.0957V41.5459C93.6875 41.9398 93.8275 42.2734 94.1074 42.5469C94.3841 42.8171 94.7178 42.9538 95.1084 42.957L95.499 42.9521L95.1719 43.7041C95.1491 43.7074 95.1279 43.7074 95.1084 43.7041C94.3695 43.5804 93.8503 43.3688 93.5508 43.0693C93.1211 42.6396 92.9062 42.127 92.9062 41.5312V40.0713C92.9062 39.6774 92.7663 39.3519 92.4863 39.0947C92.2259 38.8538 91.8923 38.7236 91.4854 38.7041C91.4202 38.7041 91.3568 38.7041 91.2949 38.7041C91.2298 38.7041 91.1647 38.7041 91.0996 38.7041L91.4268 37.957H91.4854C91.8727 37.957 92.2064 37.8203 92.4863 37.5469C92.7663 37.2734 92.9062 36.9398 92.9062 36.5459ZM31.4512 50.0283L30.2988 51.127L29.8398 50.5068L31.4512 48.9639L32.2324 48.6221V55.6582L31.4512 56V50.0283ZM33.9805 64.9072C33.9805 65.4867 33.7396 65.9652 33.2578 66.3428C32.3822 67.0264 31.9297 67.3861 31.9004 67.4219C31.373 67.959 30.9987 68.4961 30.7773 69.0332L30.7334 69.1211H34.0732L33.7314 69.9023H29.542L29.9131 68.9453C30.4079 67.8548 31.085 67.0003 31.9443 66.3818C32.3708 66.0661 32.6556 65.8577 32.7988 65.7568C33.069 65.568 33.2041 65.2686 33.2041 64.8584C33.2041 64.8356 33.2041 64.8112 33.2041 64.7852C33.1943 64.388 33.056 64.0544 32.7891 63.7842C32.5156 63.5075 32.1803 63.3691 31.7832 63.3691C31.3958 63.3691 31.0622 63.5075 30.7822 63.7842C30.5023 64.0609 30.3623 64.3848 30.3623 64.7559C30.3623 64.7624 30.3623 64.7705 30.3623 64.7803L30.3672 64.8291L29.5859 65.1709L29.5811 64.7949C29.5811 64.209 29.7959 63.6979 30.2256 63.2617C30.6488 62.8353 31.168 62.6221 31.7832 62.6221C32.3984 62.6221 32.9176 62.8337 33.3408 63.2568C33.7673 63.6768 33.9805 64.2269 33.9805 64.9072ZM58.8242 68.1494C58.8242 68.4489 58.9333 68.6995 59.1514 68.9014C59.3727 69.1064 59.625 69.209 59.9082 69.209C60.1816 69.209 60.4225 69.1064 60.6309 68.9014C60.8327 68.7028 60.9368 68.4521 60.9434 68.1494V66.3818C60.9368 66.0791 60.8327 65.8285 60.6309 65.6299C60.4225 65.4248 60.1621 65.3223 59.8496 65.3223C59.5762 65.3223 59.3369 65.4248 59.1318 65.6299C58.93 65.8317 58.8275 66.0726 58.8242 66.3525V66.3818V68.1494ZM58.043 71.9092V66.3672C58.043 65.8594 58.2236 65.4264 58.585 65.0684C58.9463 64.7103 59.3809 64.5312 59.8887 64.5312C60.3965 64.5312 60.8294 64.7103 61.1875 65.0684C61.5456 65.4264 61.7246 65.8594 61.7246 66.3672V68.1641C61.7246 68.6719 61.5456 69.1048 61.1875 69.4629C60.8294 69.821 60.3965 70 59.8887 70C59.4883 70 59.1335 69.8893 58.8242 69.668V71.5674L58.043 71.9092ZM63.6582 70V66.3672C63.6582 65.8594 63.8372 65.4264 64.1953 65.0684C64.5534 64.7103 64.9863 64.5312 65.4941 64.5312C66.0117 64.5312 66.4463 64.7103 66.7979 65.0684C67.1592 65.4395 67.3398 65.8724 67.3398 66.3672V66.3867L66.5586 66.7285V66.3818C66.5521 66.0791 66.4479 65.8285 66.2461 65.6299C66.0378 65.4248 65.792 65.3223 65.5088 65.3223C65.2126 65.3223 64.9603 65.4248 64.752 65.6299C64.5436 65.835 64.4395 66.0807 64.4395 66.3672C64.4395 66.3737 64.4395 66.3786 64.4395 66.3818V69.6582L63.6582 70ZM72.1738 68.1152L72.9551 67.7734V68.1641C72.9551 68.6719 72.776 69.1048 72.418 69.4629C72.0599 69.821 71.627 70 71.1191 70C70.6113 70 70.1768 69.821 69.8154 69.4629C69.4541 69.1048 69.2734 68.6719 69.2734 68.1641V64.873L70.0547 64.5312V68.1494C70.0612 68.4521 70.1654 68.7028 70.3672 68.9014C70.5755 69.1064 70.8359 69.209 71.1484 69.209C71.4219 69.209 71.6611 69.0983 71.8662 68.877C72.0713 68.6556 72.1738 68.4017 72.1738 68.1152ZM69.2051 63.7256C69.0814 63.5986 69.0195 63.4456 69.0195 63.2666C69.0195 63.0876 69.0814 62.9362 69.2051 62.8125C69.3288 62.6855 69.4785 62.6221 69.6543 62.6221C69.8301 62.6221 69.9798 62.6855 70.1035 62.8125C70.2272 62.9362 70.2891 63.0876 70.2891 63.2666C70.2891 63.4456 70.2272 63.5986 70.1035 63.7256C69.9798 63.8493 69.8301 63.9111 69.6543 63.9111C69.4785 63.9111 69.3288 63.8493 69.2051 63.7256ZM76.3242 70L74.2881 64.873L75.001 64.5312L76.7295 68.8867L78.4678 64.5215L79.1709 64.8633L77.2031 69.6582L76.3242 70ZM81.29 68.5645C81.29 68.6719 81.3324 68.7826 81.417 68.8965C81.5732 69.1048 81.8223 69.209 82.1641 69.209C82.3724 69.209 82.5563 69.1602 82.7158 69.0625L83.0088 69.7998C82.7549 69.9333 82.4733 70 82.1641 70C81.6758 70 81.2428 69.821 80.8652 69.4629C80.6113 69.2025 80.4844 68.903 80.4844 68.5645C80.4844 68.5514 80.4844 68.5384 80.4844 68.5254C80.4844 67.9167 80.7952 67.4854 81.417 67.2314L83.4043 66.416C83.4043 66.1068 83.3018 65.848 83.0967 65.6396C82.8916 65.4281 82.6328 65.3223 82.3203 65.3223C82.0469 65.3223 81.806 65.4248 81.5977 65.6299C81.3958 65.8285 81.2917 66.0791 81.2852 66.3818V66.4502L80.5039 66.7969V66.3672C80.5039 65.9115 80.6992 65.4753 81.0898 65.0586C81.4219 64.707 81.8418 64.5312 82.3496 64.5312C82.8574 64.5312 83.2904 64.7103 83.6484 65.0684C84.0065 65.4264 84.1855 65.8594 84.1855 66.3672V69.6582L83.4043 70V67.2705L81.7979 67.9248C81.4593 68.0843 81.29 68.2975 81.29 68.5645ZM89.0195 68.1152C89.0195 68.1152 89.2799 68.0013 89.8008 67.7734V68.1641C89.8008 68.6719 89.6217 69.1048 89.2637 69.4629C88.9056 69.821 88.4727 70 87.9648 70C87.457 70 87.0225 69.821 86.6611 69.4629C86.2998 69.1048 86.1191 68.6719 86.1191 68.1641V65.4102H85.5137L85.8555 64.6289H86.1191V62.9639L86.9004 62.6221V64.6289H89.3809L89.0391 65.4102H86.9004V68.1494C86.9069 68.4554 87.0111 68.7061 87.2129 68.9014C87.4245 69.1064 87.6719 69.209 87.9551 69.209C88.2448 69.209 88.4954 69.1048 88.707 68.8965C88.9154 68.6947 89.0195 68.4342 89.0195 68.1152ZM93.5996 69.209C93.873 69.209 94.1139 69.1064 94.3223 68.9014C94.5241 68.7028 94.6283 68.4521 94.6348 68.1494V68.0811L95.416 67.7344V68.1641C95.416 68.6198 95.2207 69.056 94.8301 69.4727C94.498 69.8242 94.0781 70 93.5703 70C93.0625 70 92.6296 69.821 92.2715 69.4629C91.9134 69.1048 91.7344 68.6719 91.7344 68.1641V66.3672C91.7344 65.8594 91.9134 65.4264 92.2715 65.0684C92.6296 64.7103 93.0625 64.5312 93.5703 64.5312C94.0586 64.5312 94.4932 64.7103 94.874 65.0684C95.2354 65.4069 95.416 65.8398 95.416 66.3672V66.8262L92.5156 68.1152C92.5156 68.4245 92.6182 68.6849 92.8232 68.8965C93.0283 69.1048 93.2871 69.209 93.5996 69.209ZM93.541 65.3223C93.2676 65.3223 93.0283 65.4248 92.8232 65.6299C92.6182 65.835 92.5156 66.0807 92.5156 66.3672C92.5156 66.3737 92.5156 66.3786 92.5156 66.3818V67.2607L94.6299 66.3184C94.6136 66.0449 94.5111 65.8154 94.3223 65.6299C94.1139 65.4248 93.8535 65.3223 93.541 65.3223ZM103.746 68.1494C103.746 68.4489 103.855 68.6995 104.073 68.9014C104.295 69.1064 104.547 69.209 104.83 69.209C105.104 69.209 105.344 69.1064 105.553 68.9014C105.755 68.7028 105.859 68.4521 105.865 68.1494V66.3818C105.859 66.0791 105.755 65.8285 105.553 65.6299C105.344 65.4248 105.084 65.3223 104.771 65.3223C104.498 65.3223 104.259 65.4248 104.054 65.6299C103.852 65.8317 103.749 66.0726 103.746 66.3525V66.3818V68.1494ZM102.965 62.9639L103.746 62.6221V64.8584C104.052 64.6403 104.404 64.5312 104.801 64.5312C105.309 64.5312 105.743 64.7103 106.104 65.0684C106.466 65.4264 106.646 65.8594 106.646 66.3672V68.1641C106.646 68.6719 106.466 69.1048 106.104 69.4629C105.743 69.821 105.309 70 104.801 70C104.293 70 103.86 69.821 103.502 69.4629C103.144 69.1048 102.965 68.6719 102.965 68.1641V62.9639ZM109.361 68.1494C109.361 68.4489 109.47 68.6995 109.688 68.9014C109.91 69.1064 110.162 69.209 110.445 69.209C110.719 69.209 110.96 69.1064 111.168 68.9014C111.37 68.7028 111.474 68.4521 111.48 68.1494V66.3818C111.474 66.0791 111.37 65.8285 111.168 65.6299C110.96 65.4248 110.699 65.3223 110.387 65.3223C110.113 65.3223 109.874 65.4248 109.669 65.6299C109.467 65.8317 109.365 66.0726 109.361 66.3525V66.3818V68.1494ZM108.58 66.3672C108.58 65.8594 108.759 65.4264 109.117 65.0684C109.475 64.7103 109.908 64.5312 110.416 64.5312C110.924 64.5312 111.358 64.7103 111.72 65.0684C112.081 65.4264 112.262 65.8594 112.262 66.3672V68.1641C112.262 68.6719 112.081 69.1048 111.72 69.4629C111.358 69.821 110.924 70 110.416 70C109.908 70 109.475 69.821 109.117 69.4629C108.759 69.1048 108.58 68.6719 108.58 68.1641V66.3672ZM114.977 68.1494C114.977 68.4489 115.086 68.6995 115.304 68.9014C115.525 69.1064 115.777 69.209 116.061 69.209C116.334 69.209 116.575 69.1064 116.783 68.9014C116.985 68.7028 117.089 68.4521 117.096 68.1494V66.3818C117.089 66.0791 116.985 65.8285 116.783 65.6299C116.575 65.4248 116.314 65.3223 116.002 65.3223C115.729 65.3223 115.489 65.4248 115.284 65.6299C115.082 65.8317 114.98 66.0726 114.977 66.3525V66.3818V68.1494ZM114.195 66.3672C114.195 65.8594 114.374 65.4264 114.732 65.0684C115.09 64.7103 115.523 64.5312 116.031 64.5312C116.539 64.5312 116.974 64.7103 117.335 65.0684C117.696 65.4264 117.877 65.8594 117.877 66.3672V68.1641C117.877 68.6719 117.696 69.1048 117.335 69.4629C116.974 69.821 116.539 70 116.031 70C115.523 70 115.09 69.821 114.732 69.4629C114.374 69.1048 114.195 68.6719 114.195 68.1641V66.3672ZM122.711 68.1152L123.492 67.7734V68.1641C123.492 68.6719 123.313 69.1048 122.955 69.4629C122.597 69.821 122.164 70 121.656 70C121.148 70 120.714 69.821 120.353 69.4629C119.991 69.1048 119.811 68.6719 119.811 68.1641V62.9639L120.592 62.6221V68.1494C120.598 68.4521 120.702 68.7028 120.904 68.9014C121.113 69.1064 121.373 69.209 121.686 69.209C121.959 69.209 122.198 69.0983 122.403 68.877C122.608 68.6556 122.711 68.4017 122.711 68.1152ZM131.041 70V62.9639L131.822 62.6221V66.626L133.98 64.5312L134.723 64.873L133.229 66.3525C133.616 66.4242 133.933 66.5853 134.181 66.8359C134.542 67.194 134.723 67.627 134.723 68.1348V69.6582L133.941 70V68.1494C133.935 67.8499 133.831 67.5993 133.629 67.3975C133.427 67.1956 133.176 67.0931 132.877 67.0898C132.59 67.0898 132.341 67.1924 132.13 67.3975C131.925 67.596 131.822 67.8369 131.822 68.1201V68.1494V69.6582L131.041 70ZM136.656 70V66.3672C136.656 65.8594 136.835 65.4264 137.193 65.0684C137.551 64.7103 137.984 64.5312 138.492 64.5312C139 64.5312 139.435 64.7103 139.796 65.0684C140.157 65.4264 140.338 65.8594 140.338 66.3672V69.6582L139.557 70V66.3818C139.55 66.0791 139.446 65.8285 139.244 65.6299C139.036 65.4248 138.79 65.3223 138.507 65.3223C138.214 65.3223 137.962 65.4264 137.75 65.6348C137.542 65.8366 137.438 66.0807 137.438 66.3672C137.438 66.3737 137.438 66.3786 137.438 66.3818V69.6582L136.656 70ZM143.053 68.1494C143.053 68.4489 143.162 68.6995 143.38 68.9014C143.601 69.1064 143.854 69.209 144.137 69.209C144.41 69.209 144.651 69.1064 144.859 68.9014C145.061 68.7028 145.165 68.4521 145.172 68.1494V66.3818C145.165 66.0791 145.061 65.8285 144.859 65.6299C144.651 65.4248 144.391 65.3223 144.078 65.3223C143.805 65.3223 143.565 65.4248 143.36 65.6299C143.159 65.8317 143.056 66.0726 143.053 66.3525V66.3818V68.1494ZM142.271 66.3672C142.271 65.8594 142.451 65.4264 142.809 65.0684C143.167 64.7103 143.6 64.5312 144.107 64.5312C144.615 64.5312 145.05 64.7103 145.411 65.0684C145.772 65.4264 145.953 65.8594 145.953 66.3672V68.1641C145.953 68.6719 145.772 69.1048 145.411 69.4629C145.05 69.821 144.615 70 144.107 70C143.6 70 143.167 69.821 142.809 69.4629C142.451 69.1048 142.271 68.6719 142.271 68.1641V66.3672ZM147.457 68.667V64.873L148.238 64.5312L148.233 68.6475C148.233 68.8102 148.287 68.9486 148.395 69.0625C148.502 69.1764 148.629 69.2334 148.775 69.2334C148.928 69.2334 149.059 69.1764 149.166 69.0625C149.277 68.9453 149.332 68.8086 149.332 68.6523C149.332 68.6523 149.332 68.6507 149.332 68.6475L149.337 64.873L150.118 64.5312L150.113 68.6475C150.113 68.8102 150.167 68.9486 150.274 69.0625C150.382 69.1764 150.509 69.2334 150.655 69.2334C150.805 69.2334 150.935 69.1764 151.046 69.0625C151.157 68.9486 151.212 68.8102 151.212 68.6475L151.217 64.873L151.998 64.5312V68.6719C151.998 69.0365 151.868 69.349 151.607 69.6094C151.347 69.8698 151.033 70 150.665 70C150.284 70 149.97 69.873 149.723 69.6191C149.462 69.873 149.15 70 148.785 70C148.395 70 148.077 69.873 147.833 69.6191C147.586 69.362 147.46 69.0446 147.457 68.667ZM155.377 69.209C155.667 69.209 155.906 69.1113 156.095 68.916C156.284 68.7142 156.378 68.4896 156.378 68.2422C156.378 68.0241 156.284 67.8174 156.095 67.6221C155.903 67.4268 155.642 67.321 155.313 67.3047C154.91 67.2852 154.589 67.1631 154.352 66.9385C154.12 66.7204 153.982 66.4079 153.937 66.001C153.933 65.9717 153.932 65.9424 153.932 65.9131C153.948 65.5583 154.091 65.2425 154.361 64.9658C154.638 64.6761 154.975 64.5312 155.372 64.5312C155.792 64.5312 156.129 64.6761 156.383 64.9658C156.552 65.1611 156.684 65.4199 156.778 65.7422L156.07 66.0547C156.018 65.8398 155.938 65.6689 155.831 65.542C155.711 65.4085 155.556 65.3418 155.367 65.3418C155.188 65.3418 155.032 65.4085 154.898 65.542C154.775 65.6657 154.713 65.8057 154.713 65.9619C154.713 65.9684 154.713 65.9766 154.713 65.9863C154.713 66.1426 154.771 66.2777 154.889 66.3916C154.996 66.499 155.152 66.5641 155.357 66.5869C155.924 66.652 156.358 66.8262 156.661 67.1094C156.993 67.4284 157.159 67.8174 157.159 68.2764V68.291C157.153 68.7272 156.992 69.1178 156.676 69.4629C156.344 69.821 155.911 70 155.377 70C154.866 70 154.446 69.8242 154.117 69.4727C153.749 69.0853 153.554 68.6491 153.531 68.1641L153.526 68.1152L154.308 67.7734L154.312 68.1494C154.316 68.4521 154.418 68.7028 154.62 68.9014C154.828 69.1064 155.081 69.209 155.377 69.209ZM158.756 70V64.7949C158.756 64.196 158.971 63.6849 159.4 63.2617C159.83 62.8353 160.349 62.6221 160.958 62.6221C161.567 62.6221 162.086 62.8353 162.516 63.2617C162.945 63.6849 163.16 64.196 163.16 64.7949V69.6582L162.379 70V66.7041H159.537V69.6582L158.756 70ZM159.537 65.9229H162.379V64.7803C162.376 64.3896 162.236 64.0576 161.959 63.7842C161.679 63.5075 161.345 63.3691 160.958 63.3691C160.567 63.3691 160.232 63.5075 159.952 63.7842C159.675 64.0576 159.537 64.3848 159.537 64.7656V64.7803V65.9229ZM167.633 68.1152L168.414 67.7734V68.1641C168.414 68.6719 168.235 69.1048 167.877 69.4629C167.519 69.821 167.086 70 166.578 70C166.07 70 165.636 69.821 165.274 69.4629C164.913 69.1048 164.732 68.6719 164.732 68.1641V62.9639L165.514 62.6221V68.1494C165.52 68.4521 165.624 68.7028 165.826 68.9014C166.035 69.1064 166.295 69.209 166.607 69.209C166.881 69.209 167.12 69.0983 167.325 68.877C167.53 68.6556 167.633 68.4017 167.633 68.1152ZM173.248 68.1152L174.029 67.7734V68.1641C174.029 68.6719 173.85 69.1048 173.492 69.4629C173.134 69.821 172.701 70 172.193 70C171.686 70 171.251 69.821 170.89 69.4629C170.528 69.1048 170.348 68.6719 170.348 68.1641V62.9639L171.129 62.6221V68.1494C171.135 68.4521 171.24 68.7028 171.441 68.9014C171.65 69.1064 171.91 69.209 172.223 69.209C172.496 69.209 172.735 69.0983 172.94 68.877C173.146 68.6556 173.248 68.4017 173.248 68.1152ZM181.632 65.1416H185.548L185.206 65.9229H181.29L181.632 65.1416ZM181.632 66.7041H185.548L185.206 67.4854H181.29L181.632 66.7041ZM192.809 70V66.6992H192.213L192.555 65.918H192.809V64.458C192.809 63.9502 192.988 63.5173 193.346 63.1592C193.704 62.8011 194.137 62.6221 194.645 62.6221C195.162 62.6221 195.597 62.8011 195.948 63.1592C196.31 63.5303 196.49 63.9632 196.49 64.458V64.4775L195.709 64.8193V64.4727C195.702 64.1699 195.598 63.9193 195.396 63.7207C195.185 63.5124 194.934 63.4082 194.645 63.4082C194.355 63.4082 194.106 63.5124 193.897 63.7207C193.692 63.9258 193.59 64.1715 193.59 64.458C193.59 64.4645 193.59 64.4694 193.59 64.4727V65.918H195.895L195.553 66.6992H193.59V69.6582L192.809 70ZM199.21 68.5645C199.21 68.6719 199.252 68.7826 199.337 68.8965C199.493 69.1048 199.742 69.209 200.084 69.209C200.292 69.209 200.476 69.1602 200.636 69.0625L200.929 69.7998C200.675 69.9333 200.393 70 200.084 70C199.596 70 199.163 69.821 198.785 69.4629C198.531 69.2025 198.404 68.903 198.404 68.5645C198.404 68.5514 198.404 68.5384 198.404 68.5254C198.404 67.9167 198.715 67.4854 199.337 67.2314L201.324 66.416C201.324 66.1068 201.222 65.848 201.017 65.6396C200.812 65.4281 200.553 65.3223 200.24 65.3223C199.967 65.3223 199.726 65.4248 199.518 65.6299C199.316 65.8285 199.212 66.0791 199.205 66.3818V66.4502L198.424 66.7969V66.3672C198.424 65.9115 198.619 65.4753 199.01 65.0586C199.342 64.707 199.762 64.5312 200.27 64.5312C200.777 64.5312 201.21 64.7103 201.568 65.0684C201.926 65.4264 202.105 65.8594 202.105 66.3672V69.6582L201.324 70V67.2705L199.718 67.9248C199.379 68.0843 199.21 68.2975 199.21 68.5645ZM206.939 68.1152L207.721 67.7734V68.1641C207.721 68.6719 207.542 69.1048 207.184 69.4629C206.826 69.821 206.393 70 205.885 70C205.377 70 204.942 69.821 204.581 69.4629C204.22 69.1048 204.039 68.6719 204.039 68.1641V62.9639L204.82 62.6221V68.1494C204.827 68.4521 204.931 68.7028 205.133 68.9014C205.341 69.1064 205.602 69.209 205.914 69.209C206.188 69.209 206.427 69.0983 206.632 68.877C206.837 68.6556 206.939 68.4017 206.939 68.1152ZM211.529 69.209C211.819 69.209 212.058 69.1113 212.247 68.916C212.436 68.7142 212.53 68.4896 212.53 68.2422C212.53 68.0241 212.436 67.8174 212.247 67.6221C212.055 67.4268 211.795 67.321 211.466 67.3047C211.062 67.2852 210.742 67.1631 210.504 66.9385C210.273 66.7204 210.134 66.4079 210.089 66.001C210.086 65.9717 210.084 65.9424 210.084 65.9131C210.1 65.5583 210.243 65.2425 210.514 64.9658C210.79 64.6761 211.127 64.5312 211.524 64.5312C211.944 64.5312 212.281 64.6761 212.535 64.9658C212.704 65.1611 212.836 65.4199 212.931 65.7422L212.223 66.0547C212.171 65.8398 212.091 65.6689 211.983 65.542C211.863 65.4085 211.708 65.3418 211.52 65.3418C211.34 65.3418 211.184 65.4085 211.051 65.542C210.927 65.6657 210.865 65.8057 210.865 65.9619C210.865 65.9684 210.865 65.9766 210.865 65.9863C210.865 66.1426 210.924 66.2777 211.041 66.3916C211.148 66.499 211.305 66.5641 211.51 66.5869C212.076 66.652 212.511 66.8262 212.813 67.1094C213.146 67.4284 213.312 67.8174 213.312 68.2764V68.291C213.305 68.7272 213.144 69.1178 212.828 69.4629C212.496 69.821 212.063 70 211.529 70C211.018 70 210.598 69.8242 210.27 69.4727C209.902 69.0853 209.706 68.6491 209.684 68.1641L209.679 68.1152L210.46 67.7734L210.465 68.1494C210.468 68.4521 210.571 68.7028 210.772 68.9014C210.981 69.1064 211.233 69.209 211.529 69.209ZM217.135 69.209C217.408 69.209 217.649 69.1064 217.857 68.9014C218.059 68.7028 218.163 68.4521 218.17 68.1494V68.0811L218.951 67.7344V68.1641C218.951 68.6198 218.756 69.056 218.365 69.4727C218.033 69.8242 217.613 70 217.105 70C216.598 70 216.165 69.821 215.807 69.4629C215.449 69.1048 215.27 68.6719 215.27 68.1641V66.3672C215.27 65.8594 215.449 65.4264 215.807 65.0684C216.165 64.7103 216.598 64.5312 217.105 64.5312C217.594 64.5312 218.028 64.7103 218.409 65.0684C218.771 65.4069 218.951 65.8398 218.951 66.3672V66.8262L216.051 68.1152C216.051 68.4245 216.153 68.6849 216.358 68.8965C216.563 69.1048 216.822 69.209 217.135 69.209ZM217.076 65.3223C216.803 65.3223 216.563 65.4248 216.358 65.6299C216.153 65.835 216.051 66.0807 216.051 66.3672C216.051 66.3737 216.051 66.3786 216.051 66.3818V67.2607L218.165 66.3184C218.149 66.0449 218.046 65.8154 217.857 65.6299C217.649 65.4248 217.389 65.3223 217.076 65.3223ZM222.472 69.9805C222.364 69.9544 222.268 69.8991 222.184 69.8145C222.06 69.6908 221.998 69.5378 221.998 69.3555C221.998 69.1764 222.06 69.0251 222.184 68.9014C222.307 68.7744 222.457 68.7109 222.633 68.7109C222.789 68.7109 222.939 68.7695 223.082 68.8867C223.222 69.0007 223.307 69.1667 223.336 69.3848C223.346 69.4596 223.351 69.5329 223.351 69.6045C223.351 69.8649 223.287 70.1204 223.16 70.3711C222.923 70.8366 222.626 71.1068 222.271 71.1816C222.177 71.2012 222.084 71.2109 221.993 71.2109C221.941 71.2109 221.886 71.2077 221.827 71.2012C221.896 71.0124 221.959 70.835 222.018 70.6689C222.154 70.6527 222.27 70.5713 222.364 70.4248C222.436 70.3141 222.472 70.2002 222.472 70.083C222.472 70.0472 222.472 70.013 222.472 69.9805ZM222.276 66.7871C222.153 66.6602 222.091 66.5072 222.091 66.3281C222.091 66.1491 222.153 65.9977 222.276 65.874C222.4 65.7471 222.55 65.6836 222.726 65.6836C222.901 65.6836 223.051 65.7471 223.175 65.874C223.299 65.9977 223.36 66.1491 223.36 66.3281C223.36 66.5072 223.299 66.6602 223.175 66.7871C223.051 66.9108 222.901 66.9727 222.726 66.9727C222.55 66.9727 222.4 66.9108 222.276 66.7871ZM31.6611 80.3623C31.5667 80.3623 31.4268 80.3965 31.2412 80.4648L30.8311 80.1035L32.4131 77.501H29.7861L30.1279 76.7197H33.7803L32.1006 79.6201C32.5758 79.6917 32.9958 79.9049 33.3604 80.2598C33.79 80.6764 34.0049 81.1875 34.0049 81.793V81.8076C34.0049 82.4261 33.7933 82.9453 33.3701 83.3652C32.9437 83.7884 32.4245 84 31.8125 84C31.194 84 30.6748 83.7884 30.2549 83.3652C29.8252 82.929 29.6104 82.4163 29.6104 81.8271V81.7637L30.3916 81.4219V81.8418C30.3916 82.2324 30.5316 82.5645 30.8115 82.8379C31.0915 83.1146 31.4251 83.2529 31.8125 83.2529C32.2064 83.2529 32.5417 83.1146 32.8184 82.8379C33.0951 82.5579 33.2334 82.2243 33.2334 81.8369C33.2334 81.43 33.0999 81.0996 32.833 80.8457C32.5498 80.5755 32.2161 80.4176 31.832 80.3721C31.7767 80.3656 31.7197 80.3623 31.6611 80.3623ZM32.7012 96.1982H29.4053L29.7471 95.417L32.7012 90.9639L33.4824 90.6221V95.417H34.21L33.8682 96.1982H33.4824V97.6582L32.7012 98V96.1982ZM32.7012 95.417V92.2822L30.6211 95.417H32.7012ZM58.8242 96.1494C58.8242 96.4489 58.9333 96.6995 59.1514 96.9014C59.3727 97.1064 59.625 97.209 59.9082 97.209C60.1816 97.209 60.4225 97.1064 60.6309 96.9014C60.8327 96.7028 60.9368 96.4521 60.9434 96.1494V94.3818C60.9368 94.0791 60.8327 93.8285 60.6309 93.6299C60.4225 93.4248 60.1621 93.3223 59.8496 93.3223C59.5762 93.3223 59.3369 93.4248 59.1318 93.6299C58.93 93.8317 58.8275 94.0726 58.8242 94.3525V94.3818V96.1494ZM58.043 99.9092V94.3672C58.043 93.8594 58.2236 93.4264 58.585 93.0684C58.9463 92.7103 59.3809 92.5312 59.8887 92.5312C60.3965 92.5312 60.8294 92.7103 61.1875 93.0684C61.5456 93.4264 61.7246 93.8594 61.7246 94.3672V96.1641C61.7246 96.6719 61.5456 97.1048 61.1875 97.4629C60.8294 97.821 60.3965 98 59.8887 98C59.4883 98 59.1335 97.8893 58.8242 97.668V99.5674L58.043 99.9092ZM65.5332 97.209C65.8066 97.209 66.0459 97.1064 66.251 96.9014C66.4561 96.6963 66.5586 96.4505 66.5586 96.1641C66.5586 96.1576 66.5586 96.1527 66.5586 96.1494V92.873C66.5586 92.873 66.819 92.7591 67.3398 92.5312V96.1641C67.3398 96.6719 67.1608 97.1048 66.8027 97.4629C66.4447 97.821 66.0117 98 65.5039 98C64.9961 98 64.5615 97.821 64.2002 97.4629C63.8389 97.1048 63.6582 96.6719 63.6582 96.1641V92.873L64.4395 92.5312V96.1494C64.446 96.4521 64.5501 96.7028 64.752 96.9014C64.9603 97.1064 65.2207 97.209 65.5332 97.209ZM70.0547 96.1494C70.0547 96.4489 70.1637 96.6995 70.3818 96.9014C70.6032 97.1064 70.8555 97.209 71.1387 97.209C71.4121 97.209 71.653 97.1064 71.8613 96.9014C72.0632 96.7028 72.1673 96.4521 72.1738 96.1494V94.3818C72.1673 94.0791 72.0632 93.8285 71.8613 93.6299C71.653 93.4248 71.3926 93.3223 71.0801 93.3223C70.8066 93.3223 70.5674 93.4248 70.3623 93.6299C70.1605 93.8317 70.0579 94.0726 70.0547 94.3525V94.3818V96.1494ZM69.2734 90.9639L70.0547 90.6221V92.8584C70.3607 92.6403 70.7122 92.5312 71.1094 92.5312C71.6172 92.5312 72.0518 92.7103 72.4131 93.0684C72.7744 93.4264 72.9551 93.8594 72.9551 94.3672V96.1641C72.9551 96.6719 72.7744 97.1048 72.4131 97.4629C72.0518 97.821 71.6172 98 71.1094 98C70.6016 98 70.1686 97.821 69.8105 97.4629C69.4525 97.1048 69.2734 96.6719 69.2734 96.1641V90.9639ZM77.7891 96.1152L78.5703 95.7734V96.1641C78.5703 96.6719 78.3913 97.1048 78.0332 97.4629C77.6751 97.821 77.2422 98 76.7344 98C76.2266 98 75.792 97.821 75.4307 97.4629C75.0693 97.1048 74.8887 96.6719 74.8887 96.1641V90.9639L75.6699 90.6221V96.1494C75.6764 96.4521 75.7806 96.7028 75.9824 96.9014C76.1908 97.1064 76.4512 97.209 76.7637 97.209C77.0371 97.209 77.2764 97.0983 77.4814 96.877C77.6865 96.6556 77.7891 96.4017 77.7891 96.1152ZM83.4043 96.1152L84.1855 95.7734V96.1641C84.1855 96.6719 84.0065 97.1048 83.6484 97.4629C83.2904 97.821 82.8574 98 82.3496 98C81.8418 98 81.4072 97.821 81.0459 97.4629C80.6846 97.1048 80.5039 96.6719 80.5039 96.1641V92.873L81.2852 92.5312V96.1494C81.2917 96.4521 81.3958 96.7028 81.5977 96.9014C81.806 97.1064 82.0664 97.209 82.3789 97.209C82.6523 97.209 82.8916 97.0983 83.0967 96.877C83.3018 96.6556 83.4043 96.4017 83.4043 96.1152ZM80.4355 91.7256C80.3118 91.5986 80.25 91.4456 80.25 91.2666C80.25 91.0876 80.3118 90.9362 80.4355 90.8125C80.5592 90.6855 80.709 90.6221 80.8848 90.6221C81.0605 90.6221 81.2103 90.6855 81.334 90.8125C81.4577 90.9362 81.5195 91.0876 81.5195 91.2666C81.5195 91.4456 81.4577 91.5986 81.334 91.7256C81.2103 91.8493 81.0605 91.9111 80.8848 91.9111C80.709 91.9111 80.5592 91.8493 80.4355 91.7256ZM86.9004 96.1494C86.9004 96.4489 87.0094 96.6995 87.2275 96.9014C87.4489 97.1064 87.7012 97.209 87.9844 97.209C88.2578 97.209 88.4987 97.1064 88.707 96.9014C88.9089 96.7028 89.013 96.4521 89.0195 96.1494V96.0811L89.8008 95.7344V96.1641C89.8008 96.6198 89.6055 97.056 89.2148 97.4727C88.8828 97.8242 88.4629 98 87.9551 98C87.4473 98 87.0143 97.821 86.6562 97.4629C86.2982 97.1048 86.1191 96.6719 86.1191 96.1641V94.3672C86.1191 93.8594 86.2982 93.4264 86.6562 93.0684C87.0143 92.7103 87.4473 92.5312 87.9551 92.5312C88.4694 92.5312 88.904 92.7103 89.2588 93.0684C89.6201 93.4264 89.8008 93.8594 89.8008 94.3672V94.416L89.0195 94.7676V94.3818C89.013 94.0791 88.9089 93.8285 88.707 93.6299C88.4987 93.4248 88.2529 93.3223 87.9697 93.3223C87.6768 93.3223 87.4245 93.4248 87.2129 93.6299C87.0046 93.835 86.9004 94.0807 86.9004 94.3672C86.9004 94.3737 86.9004 94.3786 86.9004 94.3818V96.1494ZM98.1309 96.1494C98.1309 96.4489 98.2399 96.6995 98.458 96.9014C98.6794 97.1064 98.9316 97.209 99.2148 97.209C99.4883 97.209 99.7292 97.1064 99.9375 96.9014C100.139 96.7028 100.243 96.4521 100.25 96.1494V94.3818C100.243 94.0791 100.139 93.8285 99.9375 93.6299C99.7292 93.4248 99.4688 93.3223 99.1562 93.3223C98.8828 93.3223 98.6436 93.4248 98.4385 93.6299C98.2367 93.8317 98.1341 94.0726 98.1309 94.3525V94.3818V96.1494ZM97.3496 90.9639L98.1309 90.6221V92.8584C98.4368 92.6403 98.7884 92.5312 99.1855 92.5312C99.6934 92.5312 100.128 92.7103 100.489 93.0684C100.851 93.4264 101.031 93.8594 101.031 94.3672V96.1641C101.031 96.6719 100.851 97.1048 100.489 97.4629C100.128 97.821 99.6934 98 99.1855 98C98.6777 98 98.2448 97.821 97.8867 97.4629C97.5286 97.1048 97.3496 96.6719 97.3496 96.1641V90.9639ZM103.746 96.1494C103.746 96.4489 103.855 96.6995 104.073 96.9014C104.295 97.1064 104.547 97.209 104.83 97.209C105.104 97.209 105.344 97.1064 105.553 96.9014C105.755 96.7028 105.859 96.4521 105.865 96.1494V94.3818C105.859 94.0791 105.755 93.8285 105.553 93.6299C105.344 93.4248 105.084 93.3223 104.771 93.3223C104.498 93.3223 104.259 93.4248 104.054 93.6299C103.852 93.8317 103.749 94.0726 103.746 94.3525V94.3818V96.1494ZM102.965 94.3672C102.965 93.8594 103.144 93.4264 103.502 93.0684C103.86 92.7103 104.293 92.5312 104.801 92.5312C105.309 92.5312 105.743 92.7103 106.104 93.0684C106.466 93.4264 106.646 93.8594 106.646 94.3672V96.1641C106.646 96.6719 106.466 97.1048 106.104 97.4629C105.743 97.821 105.309 98 104.801 98C104.293 98 103.86 97.821 103.502 97.4629C103.144 97.1048 102.965 96.6719 102.965 96.1641V94.3672ZM109.361 96.1494C109.361 96.4489 109.47 96.6995 109.688 96.9014C109.91 97.1064 110.162 97.209 110.445 97.209C110.719 97.209 110.96 97.1064 111.168 96.9014C111.37 96.7028 111.474 96.4521 111.48 96.1494V94.3818C111.474 94.0791 111.37 93.8285 111.168 93.6299C110.96 93.4248 110.699 93.3223 110.387 93.3223C110.113 93.3223 109.874 93.4248 109.669 93.6299C109.467 93.8317 109.365 94.0726 109.361 94.3525V94.3818V96.1494ZM108.58 94.3672C108.58 93.8594 108.759 93.4264 109.117 93.0684C109.475 92.7103 109.908 92.5312 110.416 92.5312C110.924 92.5312 111.358 92.7103 111.72 93.0684C112.081 93.4264 112.262 93.8594 112.262 94.3672V96.1641C112.262 96.6719 112.081 97.1048 111.72 97.4629C111.358 97.821 110.924 98 110.416 98C109.908 98 109.475 97.821 109.117 97.4629C108.759 97.1048 108.58 96.6719 108.58 96.1641V94.3672ZM117.096 96.1152L117.877 95.7734V96.1641C117.877 96.6719 117.698 97.1048 117.34 97.4629C116.982 97.821 116.549 98 116.041 98C115.533 98 115.099 97.821 114.737 97.4629C114.376 97.1048 114.195 96.6719 114.195 96.1641V90.9639L114.977 90.6221V96.1494C114.983 96.4521 115.087 96.7028 115.289 96.9014C115.497 97.1064 115.758 97.209 116.07 97.209C116.344 97.209 116.583 97.0983 116.788 96.877C116.993 96.6556 117.096 96.4017 117.096 96.1152ZM126.207 96.1494C126.207 96.4489 126.316 96.6995 126.534 96.9014C126.756 97.1064 127.008 97.209 127.291 97.209C127.564 97.209 127.805 97.1064 128.014 96.9014C128.215 96.7028 128.32 96.4521 128.326 96.1494V96.0811L129.107 95.7344V96.1641C129.107 96.6198 128.912 97.056 128.521 97.4727C128.189 97.8242 127.77 98 127.262 98C126.754 98 126.321 97.821 125.963 97.4629C125.605 97.1048 125.426 96.6719 125.426 96.1641V94.3672C125.426 93.8594 125.605 93.4264 125.963 93.0684C126.321 92.7103 126.754 92.5312 127.262 92.5312C127.776 92.5312 128.211 92.7103 128.565 93.0684C128.927 93.4264 129.107 93.8594 129.107 94.3672V94.416L128.326 94.7676V94.3818C128.32 94.0791 128.215 93.8285 128.014 93.6299C127.805 93.4248 127.56 93.3223 127.276 93.3223C126.983 93.3223 126.731 93.4248 126.52 93.6299C126.311 93.835 126.207 94.0807 126.207 94.3672C126.207 94.3737 126.207 94.3786 126.207 94.3818V96.1494ZM131.827 96.5645C131.827 96.6719 131.869 96.7826 131.954 96.8965C132.11 97.1048 132.359 97.209 132.701 97.209C132.91 97.209 133.093 97.1602 133.253 97.0625L133.546 97.7998C133.292 97.9333 133.01 98 132.701 98C132.213 98 131.78 97.821 131.402 97.4629C131.148 97.2025 131.021 96.903 131.021 96.5645C131.021 96.5514 131.021 96.5384 131.021 96.5254C131.021 95.9167 131.332 95.4854 131.954 95.2314L133.941 94.416C133.941 94.1068 133.839 93.848 133.634 93.6396C133.429 93.4281 133.17 93.3223 132.857 93.3223C132.584 93.3223 132.343 93.4248 132.135 93.6299C131.933 93.8285 131.829 94.0791 131.822 94.3818V94.4502L131.041 94.7969V94.3672C131.041 93.9115 131.236 93.4753 131.627 93.0586C131.959 92.707 132.379 92.5312 132.887 92.5312C133.395 92.5312 133.827 92.7103 134.186 93.0684C134.544 93.4264 134.723 93.8594 134.723 94.3672V97.6582L133.941 98V95.2705L132.335 95.9248C131.996 96.0843 131.827 96.2975 131.827 96.5645ZM136.656 98V94.3672C136.656 93.8594 136.835 93.4264 137.193 93.0684C137.551 92.7103 137.984 92.5312 138.492 92.5312C139 92.5312 139.435 92.7103 139.796 93.0684C140.157 93.4264 140.338 93.8594 140.338 94.3672V97.6582L139.557 98V94.3818C139.55 94.0791 139.446 93.8285 139.244 93.6299C139.036 93.4248 138.79 93.3223 138.507 93.3223C138.214 93.3223 137.962 93.4264 137.75 93.6348C137.542 93.8366 137.438 94.0807 137.438 94.3672C137.438 94.3737 137.438 94.3786 137.438 94.3818V97.6582L136.656 98ZM146.314 95.4219V95.8271C146.314 96.4261 146.1 96.9388 145.67 97.3652C145.24 97.7884 144.721 98 144.112 98C143.5 98 142.981 97.7884 142.555 97.3652C142.125 96.9388 141.91 96.4261 141.91 95.8271V92.7949C141.91 92.196 142.125 91.6849 142.555 91.2617C142.984 90.8353 143.504 90.6221 144.112 90.6221C144.728 90.6221 145.247 90.8353 145.67 91.2617C146.1 91.6914 146.314 92.2025 146.314 92.7949V92.8389L145.533 93.1953V92.7803C145.533 92.3929 145.393 92.0609 145.113 91.7842C144.833 91.5075 144.5 91.3691 144.112 91.3691C143.718 91.3691 143.383 91.5075 143.106 91.7842C142.83 92.0576 142.691 92.3896 142.691 92.7803V95.8418C142.691 96.2292 142.83 96.5612 143.106 96.8379C143.383 97.1146 143.718 97.2529 144.112 97.2529C144.5 97.2529 144.833 97.1146 145.113 96.8379C145.393 96.5645 145.533 96.2324 145.533 95.8418V95.7832L146.314 95.4219ZM148.668 96.1494C148.668 96.4489 148.777 96.6995 148.995 96.9014C149.216 97.1064 149.469 97.209 149.752 97.209C150.025 97.209 150.266 97.1064 150.475 96.9014C150.676 96.7028 150.781 96.4521 150.787 96.1494V94.3818C150.781 94.0791 150.676 93.8285 150.475 93.6299C150.266 93.4248 150.006 93.3223 149.693 93.3223C149.42 93.3223 149.181 93.4248 148.976 93.6299C148.774 93.8317 148.671 94.0726 148.668 94.3525V94.3818V96.1494ZM147.887 94.3672C147.887 93.8594 148.066 93.4264 148.424 93.0684C148.782 92.7103 149.215 92.5312 149.723 92.5312C150.23 92.5312 150.665 92.7103 151.026 93.0684C151.388 93.4264 151.568 93.8594 151.568 94.3672V96.1641C151.568 96.6719 151.388 97.1048 151.026 97.4629C150.665 97.821 150.23 98 149.723 98C149.215 98 148.782 97.821 148.424 97.4629C148.066 97.1048 147.887 96.6719 147.887 96.1641V94.3672ZM154.283 96.1494C154.283 96.4489 154.392 96.6995 154.61 96.9014C154.832 97.1064 155.084 97.209 155.367 97.209C155.641 97.209 155.882 97.1064 156.09 96.9014C156.292 96.7028 156.396 96.4521 156.402 96.1494V94.3818C156.396 94.0791 156.292 93.8285 156.09 93.6299C155.882 93.4248 155.621 93.3223 155.309 93.3223C155.035 93.3223 154.796 93.4248 154.591 93.6299C154.389 93.8317 154.286 94.0726 154.283 94.3525V94.3818V96.1494ZM157.184 90.6221V96.1641C157.184 96.6719 157.003 97.1048 156.642 97.4629C156.28 97.821 155.846 98 155.338 98C154.83 98 154.397 97.821 154.039 97.4629C153.681 97.1048 153.502 96.6719 153.502 96.1641V94.3672C153.502 93.8594 153.681 93.4264 154.039 93.0684C154.397 92.7103 154.83 92.5312 155.338 92.5312C155.738 92.5312 156.093 92.6419 156.402 92.8633V90.9639L157.184 90.6221ZM160.982 97.209C161.256 97.209 161.497 97.1064 161.705 96.9014C161.907 96.7028 162.011 96.4521 162.018 96.1494V96.0811L162.799 95.7344V96.1641C162.799 96.6198 162.604 97.056 162.213 97.4727C161.881 97.8242 161.461 98 160.953 98C160.445 98 160.012 97.821 159.654 97.4629C159.296 97.1048 159.117 96.6719 159.117 96.1641V94.3672C159.117 93.8594 159.296 93.4264 159.654 93.0684C160.012 92.7103 160.445 92.5312 160.953 92.5312C161.441 92.5312 161.876 92.7103 162.257 93.0684C162.618 93.4069 162.799 93.8398 162.799 94.3672V94.8262L159.898 96.1152C159.898 96.4245 160.001 96.6849 160.206 96.8965C160.411 97.1048 160.67 97.209 160.982 97.209ZM160.924 93.3223C160.65 93.3223 160.411 93.4248 160.206 93.6299C160.001 93.835 159.898 94.0807 159.898 94.3672C159.898 94.3737 159.898 94.3786 159.898 94.3818V95.2607L162.013 94.3184C161.996 94.0449 161.894 93.8154 161.705 93.6299C161.497 93.4248 161.236 93.3223 160.924 93.3223ZM167.735 88.9131C167.735 88.9131 167.887 89.1393 168.189 89.5918C168.098 89.6504 168.009 89.7269 167.921 89.8213C167.677 90.0752 167.467 90.417 167.291 90.8467C167.115 91.2764 166.974 91.7874 166.866 92.3799C166.762 92.9528 166.71 93.5843 166.71 94.2744C166.71 94.9971 166.762 95.6546 166.866 96.2471C166.974 96.8395 167.115 97.3506 167.291 97.7803C167.467 98.21 167.677 98.5518 167.921 98.8057C168.006 98.8903 168.09 98.9619 168.175 99.0205L167.735 99.709C167.524 99.5853 167.32 99.4046 167.125 99.167C166.721 98.6722 166.402 98.0016 166.168 97.1553C165.934 96.3089 165.816 95.3405 165.816 94.25C165.816 93.2441 165.934 92.318 166.168 91.4717C166.402 90.6253 166.721 89.9548 167.125 89.46C167.32 89.2191 167.524 89.0368 167.735 88.9131ZM171.026 88.9131C171.238 89.0368 171.441 89.2191 171.637 89.46C172.04 89.9548 172.359 90.6253 172.594 91.4717C172.828 92.318 172.945 93.2441 172.945 94.25C172.945 95.3405 172.828 96.3089 172.594 97.1553C172.359 98.0016 172.04 98.6722 171.637 99.167C171.441 99.4046 171.238 99.5853 171.026 99.709L170.587 99.0205C170.672 98.9619 170.756 98.8903 170.841 98.8057C171.085 98.5518 171.295 98.21 171.471 97.7803C171.646 97.3506 171.788 96.8395 171.896 96.2471C172 95.6546 172.052 94.9971 172.052 94.2744C172.052 93.5843 172 92.9528 171.896 92.3799C171.788 91.7874 171.646 91.2764 171.471 90.8467C171.295 90.417 171.085 90.0752 170.841 89.8213C170.753 89.7269 170.663 89.6504 170.572 89.5918L171.026 88.9131ZM182.75 92.5459V91.0859C182.75 90.487 182.965 89.9743 183.395 89.5479C183.824 89.1247 184.343 88.9131 184.952 88.9131H185.338L185.011 89.6602H184.952C184.565 89.6602 184.231 89.7969 183.951 90.0703C183.671 90.3438 183.531 90.6774 183.531 91.0713V92.5166V92.5312C183.531 93.127 183.316 93.6396 182.887 94.0693C182.796 94.1605 182.7 94.2419 182.599 94.3135C182.703 94.3818 182.799 94.46 182.887 94.5479C183.316 94.9775 183.531 95.4902 183.531 96.0859V96.0957V97.5459C183.531 97.9398 183.671 98.2734 183.951 98.5469C184.228 98.8171 184.562 98.9538 184.952 98.957L185.343 98.9521L185.016 99.7041C184.993 99.7074 184.972 99.7074 184.952 99.7041C184.213 99.5804 183.694 99.3688 183.395 99.0693C182.965 98.6396 182.75 98.127 182.75 97.5312V96.0713C182.75 95.6774 182.61 95.3519 182.33 95.0947C182.07 94.8538 181.736 94.7236 181.329 94.7041C181.264 94.7041 181.201 94.7041 181.139 94.7041C181.074 94.7041 181.008 94.7041 180.943 94.7041L181.271 93.957H181.329C181.716 93.957 182.05 93.8203 182.33 93.5469C182.61 93.2734 182.75 92.9398 182.75 92.5459ZM31.6367 108.367C31.4284 108.367 31.207 108.411 30.9727 108.499L30.5771 108.689L29.9912 108.177L30.6406 104.72H33.7803L33.3701 105.501H31.29L30.8652 107.747C31.1322 107.666 31.404 107.625 31.6807 107.625C31.7555 107.625 31.8271 107.628 31.8955 107.635C32.5596 107.697 33.0739 107.913 33.4385 108.284C33.8161 108.668 34.0049 109.171 34.0049 109.793V109.808C34.0049 110.426 33.7933 110.945 33.3701 111.365C32.9437 111.788 32.4245 112 31.8125 112C31.194 112 30.6748 111.788 30.2549 111.365C29.8252 110.929 29.6104 110.416 29.6104 109.827V109.764L30.3916 109.422V109.842C30.3916 110.232 30.5316 110.564 30.8115 110.838C31.0915 111.115 31.4251 111.253 31.8125 111.253C32.2064 111.253 32.5417 111.115 32.8184 110.838C33.0951 110.558 33.2334 110.224 33.2334 109.837C33.2334 109.371 33.0967 109.021 32.8232 108.787C32.5498 108.546 32.2194 108.408 31.832 108.372C31.7669 108.369 31.7018 108.367 31.6367 108.367ZM69.2734 112V108.367C69.2734 107.859 69.4525 107.426 69.8105 107.068C70.1686 106.71 70.6016 106.531 71.1094 106.531C71.627 106.531 72.0615 106.71 72.4131 107.068C72.7744 107.439 72.9551 107.872 72.9551 108.367V108.387L72.1738 108.729V108.382C72.1673 108.079 72.0632 107.828 71.8613 107.63C71.653 107.425 71.4072 107.322 71.124 107.322C70.8278 107.322 70.5755 107.425 70.3672 107.63C70.1589 107.835 70.0547 108.081 70.0547 108.367C70.0547 108.374 70.0547 108.379 70.0547 108.382V111.658L69.2734 112ZM76.7539 111.209C77.0273 111.209 77.2682 111.106 77.4766 110.901C77.6784 110.703 77.7826 110.452 77.7891 110.149V110.081L78.5703 109.734V110.164C78.5703 110.62 78.375 111.056 77.9844 111.473C77.6523 111.824 77.2324 112 76.7246 112C76.2168 112 75.7839 111.821 75.4258 111.463C75.0677 111.105 74.8887 110.672 74.8887 110.164V108.367C74.8887 107.859 75.0677 107.426 75.4258 107.068C75.7839 106.71 76.2168 106.531 76.7246 106.531C77.2129 106.531 77.6475 106.71 78.0283 107.068C78.3896 107.407 78.5703 107.84 78.5703 108.367V108.826L75.6699 110.115C75.6699 110.424 75.7725 110.685 75.9775 110.896C76.1826 111.105 76.4414 111.209 76.7539 111.209ZM76.6953 107.322C76.4219 107.322 76.1826 107.425 75.9775 107.63C75.7725 107.835 75.6699 108.081 75.6699 108.367C75.6699 108.374 75.6699 108.379 75.6699 108.382V109.261L77.7842 108.318C77.7679 108.045 77.6654 107.815 77.4766 107.63C77.2682 107.425 77.0078 107.322 76.6953 107.322ZM83.4043 110.115C83.4043 110.115 83.6647 110.001 84.1855 109.773V110.164C84.1855 110.672 84.0065 111.105 83.6484 111.463C83.2904 111.821 82.8574 112 82.3496 112C81.8418 112 81.4072 111.821 81.0459 111.463C80.6846 111.105 80.5039 110.672 80.5039 110.164V107.41H79.8984L80.2402 106.629H80.5039V104.964L81.2852 104.622V106.629H83.7656L83.4238 107.41H81.2852V110.149C81.2917 110.455 81.3958 110.706 81.5977 110.901C81.8092 111.106 82.0566 111.209 82.3398 111.209C82.6296 111.209 82.8802 111.105 83.0918 110.896C83.3001 110.695 83.4043 110.434 83.4043 110.115ZM87.9941 111.209C88.2676 111.209 88.5068 111.106 88.7119 110.901C88.917 110.696 89.0195 110.451 89.0195 110.164C89.0195 110.158 89.0195 110.153 89.0195 110.149V106.873C89.0195 106.873 89.2799 106.759 89.8008 106.531V110.164C89.8008 110.672 89.6217 111.105 89.2637 111.463C88.9056 111.821 88.4727 112 87.9648 112C87.457 112 87.0225 111.821 86.6611 111.463C86.2998 111.105 86.1191 110.672 86.1191 110.164V106.873L86.9004 106.531V110.149C86.9069 110.452 87.0111 110.703 87.2129 110.901C87.4212 111.106 87.6816 111.209 87.9941 111.209ZM91.7344 112V108.367C91.7344 107.859 91.9134 107.426 92.2715 107.068C92.6296 106.71 93.0625 106.531 93.5703 106.531C94.0879 106.531 94.5225 106.71 94.874 107.068C95.2354 107.439 95.416 107.872 95.416 108.367V108.387L94.6348 108.729V108.382C94.6283 108.079 94.5241 107.828 94.3223 107.63C94.1139 107.425 93.8682 107.322 93.585 107.322C93.2887 107.322 93.0365 107.425 92.8281 107.63C92.6198 107.835 92.5156 108.081 92.5156 108.367C92.5156 108.374 92.5156 108.379 92.5156 108.382V111.658L91.7344 112ZM97.3496 112V108.367C97.3496 107.859 97.5286 107.426 97.8867 107.068C98.2448 106.71 98.6777 106.531 99.1855 106.531C99.6934 106.531 100.128 106.71 100.489 107.068C100.851 107.426 101.031 107.859 101.031 108.367V111.658L100.25 112V108.382C100.243 108.079 100.139 107.828 99.9375 107.63C99.7292 107.425 99.4834 107.322 99.2002 107.322C98.9072 107.322 98.6549 107.426 98.4434 107.635C98.235 107.837 98.1309 108.081 98.1309 108.367C98.1309 108.374 98.1309 108.379 98.1309 108.382V111.658L97.3496 112ZM111.48 110.115C111.48 110.115 111.741 110.001 112.262 109.773V110.164C112.262 110.672 112.083 111.105 111.725 111.463C111.367 111.821 110.934 112 110.426 112C109.918 112 109.483 111.821 109.122 111.463C108.761 111.105 108.58 110.672 108.58 110.164V107.41H107.975L108.316 106.629H108.58V104.964L109.361 104.622V106.629H111.842L111.5 107.41H109.361V110.149C109.368 110.455 109.472 110.706 109.674 110.901C109.885 111.106 110.133 111.209 110.416 111.209C110.706 111.209 110.956 111.105 111.168 110.896C111.376 110.695 111.48 110.434 111.48 110.115ZM114.195 112V108.367C114.195 107.859 114.374 107.426 114.732 107.068C115.09 106.71 115.523 106.531 116.031 106.531C116.549 106.531 116.983 106.71 117.335 107.068C117.696 107.439 117.877 107.872 117.877 108.367V108.387L117.096 108.729V108.382C117.089 108.079 116.985 107.828 116.783 107.63C116.575 107.425 116.329 107.322 116.046 107.322C115.75 107.322 115.497 107.425 115.289 107.63C115.081 107.835 114.977 108.081 114.977 108.367C114.977 108.374 114.977 108.379 114.977 108.382V111.658L114.195 112ZM121.686 111.209C121.959 111.209 122.198 111.106 122.403 110.901C122.608 110.696 122.711 110.451 122.711 110.164C122.711 110.158 122.711 110.153 122.711 110.149V106.873C122.711 106.873 122.971 106.759 123.492 106.531V110.164C123.492 110.672 123.313 111.105 122.955 111.463C122.597 111.821 122.164 112 121.656 112C121.148 112 120.714 111.821 120.353 111.463C119.991 111.105 119.811 110.672 119.811 110.164V106.873L120.592 106.531V110.149C120.598 110.452 120.702 110.703 120.904 110.901C121.113 111.106 121.373 111.209 121.686 111.209ZM127.291 111.209C127.564 111.209 127.805 111.106 128.014 110.901C128.215 110.703 128.32 110.452 128.326 110.149V110.081L129.107 109.734V110.164C129.107 110.62 128.912 111.056 128.521 111.473C128.189 111.824 127.77 112 127.262 112C126.754 112 126.321 111.821 125.963 111.463C125.605 111.105 125.426 110.672 125.426 110.164V108.367C125.426 107.859 125.605 107.426 125.963 107.068C126.321 106.71 126.754 106.531 127.262 106.531C127.75 106.531 128.185 106.71 128.565 107.068C128.927 107.407 129.107 107.84 129.107 108.367V108.826L126.207 110.115C126.207 110.424 126.31 110.685 126.515 110.896C126.72 111.105 126.979 111.209 127.291 111.209ZM127.232 107.322C126.959 107.322 126.72 107.425 126.515 107.63C126.31 107.835 126.207 108.081 126.207 108.367C126.207 108.374 126.207 108.379 126.207 108.382V109.261L128.321 108.318C128.305 108.045 128.202 107.815 128.014 107.63C127.805 107.425 127.545 107.322 127.232 107.322ZM132.628 111.98C132.521 111.954 132.424 111.899 132.34 111.814C132.216 111.691 132.154 111.538 132.154 111.355C132.154 111.176 132.216 111.025 132.34 110.901C132.464 110.774 132.613 110.711 132.789 110.711C132.945 110.711 133.095 110.77 133.238 110.887C133.378 111.001 133.463 111.167 133.492 111.385C133.502 111.46 133.507 111.533 133.507 111.604C133.507 111.865 133.443 112.12 133.316 112.371C133.079 112.837 132.783 113.107 132.428 113.182C132.333 113.201 132.241 113.211 132.149 113.211C132.097 113.211 132.042 113.208 131.983 113.201C132.052 113.012 132.115 112.835 132.174 112.669C132.311 112.653 132.426 112.571 132.521 112.425C132.592 112.314 132.628 112.2 132.628 112.083C132.628 112.047 132.628 112.013 132.628 111.98ZM132.433 108.787C132.309 108.66 132.247 108.507 132.247 108.328C132.247 108.149 132.309 107.998 132.433 107.874C132.556 107.747 132.706 107.684 132.882 107.684C133.058 107.684 133.207 107.747 133.331 107.874C133.455 107.998 133.517 108.149 133.517 108.328C133.517 108.507 133.455 108.66 133.331 108.787C133.207 108.911 133.058 108.973 132.882 108.973C132.706 108.973 132.556 108.911 132.433 108.787ZM31.8076 119.369C31.4137 119.369 31.0785 119.506 30.8018 119.779C30.5251 120.056 30.3867 120.39 30.3867 120.78V122.182C30.8001 121.837 31.2738 121.664 31.8076 121.664C32.4229 121.664 32.9421 121.877 33.3652 122.304C33.7949 122.717 34.0098 123.228 34.0098 123.837C34.0065 124.416 33.7917 124.926 33.3652 125.365C32.9583 125.788 32.4391 126 31.8076 126C31.1956 126 30.6764 125.788 30.25 125.365C29.8203 124.942 29.6055 124.429 29.6055 123.827V120.795C29.6055 120.199 29.8268 119.688 30.2695 119.262C30.7122 118.835 31.2249 118.622 31.8076 118.622C32.4261 118.622 32.9453 118.834 33.3652 119.257C33.7949 119.693 34.0098 120.206 34.0098 120.795V120.858L33.2285 121.2V120.78C33.2285 120.39 33.0885 120.058 32.8086 119.784C32.5286 119.507 32.195 119.369 31.8076 119.369ZM33.2285 123.832V123.822C33.2285 123.435 33.0885 123.103 32.8086 122.826C32.5286 122.549 32.195 122.411 31.8076 122.411C31.4333 122.411 31.098 122.549 30.8018 122.826C30.5251 123.08 30.3867 123.412 30.3867 123.822V123.842C30.3867 124.229 30.5251 124.561 30.8018 124.838C31.0785 125.115 31.4137 125.253 31.8076 125.253C32.1885 125.253 32.5221 125.115 32.8086 124.838C33.0885 124.564 33.2285 124.229 33.2285 123.832ZM60.5527 124.071V125.531C60.5527 126.13 60.3379 126.643 59.9082 127.069C59.4785 127.493 58.9593 127.704 58.3506 127.704H57.9648L58.292 126.957H58.3506C58.738 126.957 59.0716 126.82 59.3516 126.547C59.6315 126.273 59.7715 125.94 59.7715 125.546V124.101V124.086C59.7715 123.49 59.9863 122.978 60.416 122.548C60.5072 122.457 60.6032 122.375 60.7041 122.304C60.5999 122.235 60.5039 122.157 60.416 122.069C59.9863 121.64 59.7715 121.127 59.7715 120.531V120.521V119.071C59.7715 118.677 59.6315 118.344 59.3516 118.07C59.0749 117.8 58.7412 117.663 58.3506 117.66L57.96 117.665L58.2871 116.913C58.3099 116.91 58.3311 116.91 58.3506 116.913C59.0895 117.037 59.6087 117.248 59.9082 117.548C60.3379 117.978 60.5527 118.49 60.5527 119.086V120.546C60.5527 120.94 60.6927 121.265 60.9727 121.522C61.2331 121.763 61.5667 121.894 61.9736 121.913C62.0387 121.913 62.1022 121.913 62.1641 121.913C62.2292 121.913 62.2943 121.913 62.3594 121.913L62.0322 122.66H61.9736C61.5863 122.66 61.2526 122.797 60.9727 123.07C60.6927 123.344 60.5527 123.677 60.5527 124.071ZM30.6504 139.663L29.6055 140L32.8574 133.501H29.5127L29.8545 132.72H34.1025L30.6504 139.663ZM49.3223 138.071V139.531C49.3223 140.13 49.1074 140.643 48.6777 141.069C48.248 141.493 47.7288 141.704 47.1201 141.704H46.7344L47.0615 140.957H47.1201C47.5075 140.957 47.8411 140.82 48.1211 140.547C48.401 140.273 48.541 139.94 48.541 139.546V138.101V138.086C48.541 137.49 48.7559 136.978 49.1855 136.548C49.2767 136.457 49.3727 136.375 49.4736 136.304C49.3695 136.235 49.2734 136.157 49.1855 136.069C48.7559 135.64 48.541 135.127 48.541 134.531V134.521V133.071C48.541 132.677 48.401 132.344 48.1211 132.07C47.8444 131.8 47.5107 131.663 47.1201 131.66L46.7295 131.665L47.0566 130.913C47.0794 130.91 47.1006 130.91 47.1201 130.913C47.859 131.037 48.3783 131.248 48.6777 131.548C49.1074 131.978 49.3223 132.49 49.3223 133.086V134.546C49.3223 134.94 49.4622 135.265 49.7422 135.522C50.0026 135.763 50.3363 135.894 50.7432 135.913C50.8083 135.913 50.8717 135.913 50.9336 135.913C50.9987 135.913 51.0638 135.913 51.1289 135.913L50.8018 136.66H50.7432C50.3558 136.66 50.0221 136.797 49.7422 137.07C49.4622 137.344 49.3223 137.677 49.3223 138.071Z" fill="#C80000"/>
<path fill-rule="evenodd" clip-rule="evenodd" d="M18 0C8.05887 0 0 8.05888 0 18V143C0 152.941 8.05887 161 18 161H118V180H8C3.58172 180 0 183.582 0 188C0 192.418 3.58172 196 8 196H243C247.418 196 251 192.418 251 188C251 183.582 247.418 180 243 180H134V161H233C242.941 161 251 152.941 251 143V18C251 8.05887 242.941 0 233 0H18ZM233 13H18C15.2386 13 13 15.2386 13 18V143C13 145.761 15.2386 148 18 148H233C235.761 148 238 145.761 238 143V18C238 15.2386 235.761 13 233 13Z" fill="#C80000"/>
<path d="M234 27L229.5 22.5L234 18H233L229 22L225 18H224L228.5 22.5L224 27H225L229 23L233 27H234Z" fill="#C80000"/>
<path fill-rule="evenodd" clip-rule="evenodd" d="M24 146V29H236L236 16H23V146H24ZM235 17H223V28H235V17ZM229.5 22.5L234 27H233L229 23L225 27H224L228.5 22.5L224 18H225L229 22L233 18H234L229.5 22.5ZM24 28V17H222V28H24Z" fill="#C80000"/>
</svg>
