<svg width="128" height="128" viewBox="0 0 128 128" fill="none" xmlns="http://www.w3.org/2000/svg">
<rect width="128" height="128" fill="white"/>
<path d="M102.223 31.4209L95.1875 110.233L63.5641 119L32.0277 110.245L25 31.4209H102.223Z" fill="#264DE4"/>
<path d="M89.1651 105.215L95.1771 37.8662H63.6118V112.299L89.1651 105.215Z" fill="#2965F1"/>
<path d="M41.1104 67.1006L41.9768 76.7679H63.6108V67.1006H41.1104Z" fill="#EBEBEB"/>
<path d="M63.6115 47.5337H63.5781H39.3701L40.2489 57.2013H63.6115V47.5337Z" fill="#EBEBEB"/>
<path d="M63.6112 102.267V92.2088L63.5688 92.22L52.8021 89.3128L52.1138 81.6025H46.882H42.4092L43.7636 96.7819L63.5667 102.279L63.6112 102.267Z" fill="#EBEBEB"/>
<path d="M43.1743 10H54.8833V14.8965H48.0708V19.793H54.8833V24.6895H43.1743V10Z" fill="black"/>
<path d="M57.2241 10H68.9331V14.2578H62.1206V15.1094H68.9331V24.9023H57.2241V20.4316H64.0366V19.5801H57.2241V10Z" fill="black"/>
<path d="M71.2759 10H82.9849V14.2578H76.1724V15.1094H82.9849V24.9023H71.2759V20.4316H78.0884V19.5801H71.2759V10Z" fill="black"/>
<path d="M75.4825 76.7683L74.3604 89.3062L63.5781 92.2165V102.274L83.397 96.7815L83.5424 95.1482L85.8141 69.6969L86.05 67.1009L87.7953 47.5337H63.5781V57.2013H77.2006L76.3209 67.1009H63.5781V76.7683H75.4825Z" fill="white"/>
</svg>
