<svg width="128" height="128" viewBox="0 0 128 128" fill="none" xmlns="http://www.w3.org/2000/svg">
<rect width="128" height="128" fill="white"/>
<rect width="128" height="128" fill="#23272A"/>
<path d="M96.9651 33.9684C90.9445 31.2059 84.4883 29.1706 77.738 28.0049C77.615 27.9824 77.4922 28.0386 77.4289 28.1511C76.5986 29.6279 75.6788 31.5545 75.0348 33.0688C67.7743 31.9818 60.5511 31.9818 53.4396 33.0688C52.7954 31.5208 51.8422 29.6279 51.0082 28.1511C50.9449 28.0424 50.8221 27.9861 50.6991 28.0049C43.9525 29.1669 37.4963 31.2022 31.4719 33.9684C31.4198 33.9909 31.3751 34.0284 31.3454 34.0771C19.0994 52.3725 15.7447 70.2181 17.3904 87.8425C17.3978 87.9287 17.4462 88.0112 17.5132 88.0636C25.5928 93.9971 33.4193 97.5993 41.1004 99.9869C41.2234 100.024 41.3536 99.9794 41.4318 99.8782C43.2488 97.3969 44.8685 94.7806 46.2572 92.0293C46.3392 91.8682 46.2609 91.677 46.0934 91.6132C43.5244 90.6387 41.0781 89.4505 38.7249 88.1012C38.5388 87.9925 38.5239 87.7262 38.6951 87.5988C39.1903 87.2277 39.6857 86.8416 40.1585 86.4518C40.244 86.3806 40.3632 86.3656 40.4638 86.4106C55.9229 93.4687 72.6593 93.4687 87.936 86.4106C88.0366 86.3619 88.1558 86.3769 88.2451 86.4481C88.718 86.8379 89.2132 87.2277 89.7121 87.5988C89.8834 87.7262 89.8722 87.9925 89.6861 88.1012C87.3329 89.4767 84.8867 90.6387 82.3139 91.6095C82.1464 91.6733 82.0719 91.8682 82.1538 92.0293C83.5723 94.7768 85.192 97.3931 86.9754 99.8745C87.0499 99.9794 87.1839 100.024 87.3069 99.9869C95.0252 97.5993 102.852 93.9971 110.931 88.0636C111.002 88.0112 111.047 87.9325 111.054 87.8463C113.024 67.4705 107.755 49.7712 97.0879 34.0808C97.0619 34.0284 97.0173 33.9909 96.9651 33.9684ZM48.5658 77.1111C43.9115 77.1111 40.0765 72.8381 40.0765 67.5905C40.0765 62.3429 43.8371 58.0699 48.5658 58.0699C53.3315 58.0699 57.1294 62.3804 57.0549 67.5905C57.0549 72.8381 53.2943 77.1111 48.5658 77.1111ZM79.9533 77.1111C75.2991 77.1111 71.4642 72.8381 71.4642 67.5905C71.4642 62.3429 75.2246 58.0699 79.9533 58.0699C84.7192 58.0699 88.5169 62.3804 88.4425 67.5905C88.4425 72.8381 84.7192 77.1111 79.9533 77.1111Z" fill="white"/>
</svg>
