<svg width="100" height="100" viewBox="0 0 100 100" fill="none" xmlns="http://www.w3.org/2000/svg">
<path d="M14.2857 100C10.325 100 6.95389 98.6092 4.17234 95.8277C1.39078 93.0461 0 89.675 0 85.7143V14.2857C0 10.325 1.39078 6.95389 4.17234 4.17234C6.95389 1.39078 10.325 0 14.2857 0H85.7143C89.675 0 93.0461 1.39078 95.8277 4.17234C98.6092 6.98413 100 10.3553 100 14.2857V57.1429C100 61.1036 98.6092 64.4747 95.8277 67.2562C93.0159 70.0378 89.6447 71.4286 85.7143 71.4286H71.4286C67.4679 71.4286 64.0968 70.0378 61.3152 67.2562C58.5336 64.4747 57.1429 61.1036 57.1429 57.1429V50.0227C57.1429 48.0574 56.4475 46.3643 55.0567 44.9433C53.6357 43.5525 51.9426 42.8571 49.9773 42.8571C48.0121 42.8571 46.3341 43.5525 44.9433 44.9433C43.5525 46.3643 42.8571 48.0574 42.8571 50.0227C42.8571 51.9879 43.5525 53.6659 44.9433 55.0567C46.3341 56.4475 48.0121 57.1429 49.9773 57.1429H57.1429L42.8571 71.4286C38.8964 71.4286 35.5253 70.0378 32.7438 67.2562C29.9622 64.4747 28.5714 61.1036 28.5714 57.1429V42.8571C28.5714 38.8964 29.9622 35.5253 32.7438 32.7438C35.5253 29.9622 38.8964 28.5714 42.8571 28.5714H57.1429C61.1036 28.5714 64.4747 29.9622 67.2562 32.7438C70.0378 35.5556 71.4286 38.9267 71.4286 42.8571V50.0227C71.4286 51.9879 72.124 53.6659 73.5147 55.0567C74.9055 56.4475 76.5835 57.1429 78.5488 57.1429C80.5442 57.1429 82.2373 56.4475 83.6281 55.0567C85.0189 53.6659 85.7143 51.9879 85.7143 50.0227V21.4512C85.7143 19.4558 85.0189 17.7627 83.6281 16.3719C82.2373 14.9811 80.5442 14.2857 78.5488 14.2857H21.4059C19.4407 14.2857 17.7627 14.9811 16.3719 16.3719C14.9811 17.7627 14.2857 19.4558 14.2857 21.4512V78.5941C14.2857 80.5593 14.9811 82.2373 16.3719 83.6281C17.7627 85.0189 19.4407 85.7143 21.4059 85.7143H100L85.7143 100H14.2857Z" fill="black"/>
</svg>
