<svg width="100" height="100" viewBox="0 0 100 100" fill="none" xmlns="http://www.w3.org/2000/svg">
<g clip-path="url(#clip0_1986_441)">
<path d="M89.0858 3.41422L53.5355 38.9645C51.5829 40.9171 48.4171 40.9171 46.4645 38.9645L10.9142 3.41422C9.65429 2.15429 5.54662 0 7.32843 0H92.6716C94.4534 0 90.3457 2.15429 89.0858 3.41422Z" fill="#EA86A2"/>
<path fill-rule="evenodd" clip-rule="evenodd" d="M95 100H5C2.23858 100 0 97.7614 0 95V7.32843C0 5.54662 2.15428 4.65428 3.41421 5.91421L46.4645 48.9645C48.4171 50.9171 51.5829 50.9171 53.5355 48.9645L96.5858 5.91421C97.8457 4.65428 100 5.54662 100 7.32843V95C100 97.7614 97.7614 100 95 100ZM43.15 93C44.65 93.4 46.05 93.6 47.35 93.6C49.5167 93.6 51.4833 93.4167 53.25 93.05C55.05 92.6833 56.6667 92.1667 58.1 91.5L58.6 88.3C56.9667 89.1 55.2333 89.7167 53.4 90.15C51.5667 90.5833 49.5833 90.8 47.45 90.8C46.8167 90.8 45.95 90.6833 44.85 90.45C43.7833 90.25 42.6167 89.8667 41.35 89.3C40.0833 88.7667 38.8833 87.9833 37.75 86.95C36.6167 85.9167 35.6833 84.6 34.95 83C34.25 81.4 33.9 79.4333 33.9 77.1C33.9 74.6 34.4 72.25 35.4 70.05C36.4 67.85 37.7667 65.9167 39.5 64.25C41.2333 62.55 43.2 61.2333 45.4 60.3C47.6 59.3667 49.8667 58.9 52.2 58.9C53.8 58.9 55.4167 59.2 57.05 59.8C58.6833 60.3667 60.1833 61.2167 61.55 62.35C62.95 63.4833 64.0667 64.8833 64.9 66.55C65.7333 68.2167 66.15 70.15 66.15 72.35C66.15 74.55 65.8333 76.3667 65.2 77.8C64.6 79.2333 63.8833 80.2833 63.05 80.95C62.2167 81.6167 61.45 81.95 60.75 81.95C60.05 81.95 59.5333 81.7667 59.2 81.4C58.8667 81.0333 58.65 80.6 58.55 80.1C58.4833 79.5667 58.4667 79.0833 58.5 78.65C58.5333 77.35 58.6667 76.0667 58.9 74.8C59.1333 73.5 59.25 72.2167 59.25 70.95C59.25 68.55 58.5667 66.7333 57.2 65.5C55.8333 64.2667 53.8167 63.65 51.15 63.65C50.05 63.65 48.9167 63.7833 47.75 64.05C46.6167 64.2833 45.6 64.55 44.7 64.85L44.05 68.75C45.1167 68.3833 46.2167 68.1167 47.35 67.95C48.4833 67.7833 49.6333 67.7 50.8 67.7C51.9333 67.7 52.7833 67.8333 53.35 68.1C53.95 68.3667 54.3667 68.7167 54.6 69.15C54.8333 69.5833 54.9833 70.0833 55.05 70.65V71.05V71.45C54.5833 71.4167 54.1 71.3833 53.6 71.35C53.1333 71.3167 52.65 71.3 52.15 71.3C49.75 71.3 47.8167 71.5333 46.35 72C44.8833 72.4667 43.7667 73.0833 43 73.85C42.2333 74.6167 41.7 75.4167 41.4 76.25C41.1333 77.0833 41 77.8667 41 78.6C41 80.5333 41.7 82.0667 43.1 83.2C44.5333 84.3 46.5 84.85 49 84.85C50.8 84.85 52.2667 84.5667 53.4 84C54.5333 83.4333 55.3667 82.7167 55.9 81.85C56.1 82.2833 56.3833 82.7333 56.75 83.2C57.1167 83.6667 57.6 84.0667 58.2 84.4C58.8 84.7 59.5167 84.85 60.35 84.85C61.7833 84.85 63.0333 84.5 64.1 83.8C65.2 83.1 66.1 82.15 66.8 80.95C67.5333 79.75 68.0667 78.4 68.4 76.9C68.7667 75.4 68.95 73.8667 68.95 72.3C68.95 69.9333 68.5833 67.85 67.85 66.05C67.1167 64.25 66.15 62.7167 64.95 61.45C63.75 60.1833 62.4167 59.15 60.95 58.35C59.4833 57.5167 58 56.9167 56.5 56.55C55 56.1833 53.6 56 52.3 56C49.8 56 47.2833 56.5167 44.75 57.55C42.25 58.55 39.9667 59.9833 37.9 61.85C35.8333 63.7167 34.1667 65.9333 32.9 68.5C31.6333 71.0667 31 73.9 31 77C31 79.4333 31.35 81.5667 32.05 83.4C32.75 85.2333 33.6833 86.8 34.85 88.1C36.05 89.4 37.3667 90.45 38.8 91.25C40.2333 92.05 41.6833 92.6333 43.15 93ZM49 80.6C50.1333 80.6 51.05 80.4667 51.75 80.2C52.45 79.9333 52.9833 79.5667 53.35 79.1C53.7167 78.6 53.9833 78.0167 54.15 77.35C54.3167 76.65 54.4333 75.8833 54.5 75.05C54.1333 74.9833 53.75 74.95 53.35 74.95H52.15C47.55 74.95 45.25 76.15 45.25 78.55C45.25 79.1167 45.4333 79.55 45.8 79.85C46.1667 80.15 46.6333 80.35 47.2 80.45C47.8 80.55 48.4 80.6 49 80.6Z" fill="#EA86A2"/>
</g>
<defs>
<clipPath id="clip0_1986_441">
<rect width="100" height="100" fill="white"/>
</clipPath>
</defs>
</svg>
