<svg width="128" height="128" viewBox="0 0 128 128" fill="none" xmlns="http://www.w3.org/2000/svg">
<rect width="128" height="128" fill="white"/>
<path d="M64.4995 64.2495C64.4995 54.4466 72.4464 46.4995 82.2495 46.4995C92.0524 46.4995 99.9995 54.4466 99.9995 64.2495C99.9995 74.0526 92.0524 81.9995 82.2495 81.9995C72.4464 81.9995 64.4995 74.0526 64.4995 64.2495Z" fill="#1ABCFE"/>
<path d="M29 99.7505C29 89.9476 36.9469 82.0005 46.75 82.0005H64.5V99.7505C64.5 109.554 56.5531 117.5 46.75 117.5C36.9469 117.5 29 109.554 29 99.7505Z" fill="#0ACF83"/>
<path d="M64.4995 11V46.4999H82.2495C92.0526 46.4999 99.9995 38.553 99.9995 28.75C99.9995 18.9469 92.0526 11 82.2495 11H64.4995Z" fill="#FF7262"/>
<path d="M29 28.75C29 38.553 36.9469 46.4999 46.75 46.4999H64.5V11H46.75C36.9469 11 29 18.9469 29 28.75Z" fill="#F24E1E"/>
<path d="M29 64.2495C29 74.0526 36.9469 81.9995 46.75 81.9995H64.5V46.4995H46.75C36.9469 46.4995 29 54.4466 29 64.2495Z" fill="#A259FF"/>
</svg>
