<svg width="258" height="148" viewBox="0 0 258 148" fill="none" xmlns="http://www.w3.org/2000/svg">
<g clip-path="url(#clip0)">
<path d="M98.7315 93.025L99.2903 92.1957L98.7315 93.025C101.755 95.0622 104.965 96.6999 108.226 98.0504C111.486 99.401 114.914 100.513 118.493 101.21C120.36 101.574 122.225 100.573 122.953 98.8149L124.722 94.5454C127.338 94.7705 129.977 94.7675 132.626 94.5339L134.393 98.8008C135.121 100.558 136.986 101.56 138.853 101.196C142.307 100.524 145.76 99.5103 149.151 98.1058C152.542 96.7014 155.701 94.9764 158.618 93.0093C159.313 92.5411 159.82 91.8861 160.107 91.1499C175.035 101.633 185.528 119.338 187.618 139.92C169.487 144.475 149.501 147 128.5 147C107.499 147 87.5129 144.475 69.3823 139.92C71.4845 119.212 82.0935 101.416 97.1671 90.9583C97.437 91.7787 97.9722 92.5134 98.7315 93.025ZM62.2341 85.2034C63.5794 86.5487 65.6861 86.7603 67.2721 85.7093C68.8005 84.6965 70.2349 83.5858 71.5853 82.4097C75.9961 86.485 79.7562 91.5026 82.6418 97.211C72.8548 108.178 66.2805 122.608 64.4917 138.63C38.1553 131.346 16.0959 119.722 0.988135 105.394C3.88653 96.4865 8.74854 88.7338 14.9367 82.8575C16.1333 83.8682 17.3949 84.826 18.7279 85.7093C20.3139 86.7603 22.4206 86.5487 23.7659 85.2034L26.0121 82.9572C27.616 83.7586 29.2806 84.4456 31 85.0145V88.1875C31 90.0896 32.3394 91.7286 34.2034 92.1074C37.0376 92.6833 39.9805 93 43 93C46.0194 93 48.9623 92.6833 51.7966 92.1074C53.6606 91.7286 55 90.0896 55 88.1875V85.0145C56.7193 84.4456 58.384 83.7586 59.9879 82.9572L62.2341 85.2034ZM233.234 85.2034C234.579 86.5487 236.686 86.7603 238.272 85.7093C239.8 84.6965 241.235 83.5858 242.585 82.4097C248.83 88.1796 253.77 95.8378 256.77 104.667C241.647 119.328 219.29 131.223 192.508 138.63C190.759 122.959 184.431 108.811 174.997 97.9375C177.825 92.1375 181.548 87.0254 185.937 82.8575C187.133 83.8682 188.395 84.826 189.728 85.7093C191.314 86.7603 193.421 86.5487 194.766 85.2034L197.012 82.9572C198.616 83.7586 200.281 84.4456 202 85.0145V88.1875C202 90.0896 203.339 91.7286 205.203 92.1074C208.038 92.6833 210.981 93 214 93C217.019 93 219.962 92.6833 222.797 92.1074C224.661 91.7286 226 90.0896 226 88.1875V85.0145C227.719 84.4456 229.384 83.7586 230.988 82.9572L233.234 85.2034Z" stroke="#C80000" stroke-width="2" stroke-linecap="round" stroke-linejoin="round"/>
<path fill-rule="evenodd" clip-rule="evenodd" d="M35 9.8125C37.5848 9.28719 40.2608 9 43 9C45.7391 9 48.4151 9.28719 51 9.8125V16C54.4748 16.8389 57.7198 18.1846 60.6875 20L65.0625 15.625C67.3051 17.1111 69.3547 18.8548 71.25 20.75C73.1452 22.6452 74.8889 24.6949 76.375 26.9375L72 31.3125C73.8154 34.2802 75.1611 37.5252 76 41H82.1875C82.7128 43.5848 83 46.2608 83 49C83 51.7392 82.7128 54.4152 82.1875 57H76C75.1611 60.4749 73.8154 63.7198 72 66.6875L76.375 71.0625C74.8889 73.3051 73.1452 75.3548 71.25 77.25C69.3547 79.1452 67.3051 80.8889 65.0625 82.375L60.6875 78C57.7198 79.8154 54.4748 81.1611 51 82V88.1875C48.4151 88.7128 45.7391 89 43 89C40.2608 89 37.5848 88.7128 35 88.1875V82C31.5251 81.1611 28.2802 79.8154 25.3125 78L20.9375 82.375C18.6949 80.8889 16.6452 79.1452 14.75 77.25C12.8547 75.3548 11.1111 73.3051 9.625 71.0625L14 66.6875C12.1846 63.7198 10.8389 60.4748 10 57H3.8125C3.2872 54.4152 3 51.7392 3 49C3 46.2608 3.2872 43.5848 3.8125 41H10C10.8389 37.5251 12.1846 34.2802 14 31.3125L9.625 26.9375C11.1111 24.6949 12.8547 22.6452 14.75 20.75C16.6452 18.8548 18.6949 17.1111 20.9375 15.625L25.3125 20C28.2802 18.1846 31.5252 16.8389 35 16V9.8125ZM43 69C54.04 69 63 60.04 63 49H23C23 60.04 31.96 69 43 69ZM36 41C36 43.7614 33.7614 46 31 46C28.2386 46 26 43.7614 26 41C26 38.2386 28.2386 36 31 36C33.7614 36 36 38.2386 36 41ZM55 46C57.7614 46 60 43.7614 60 41C60 38.2386 57.7614 36 55 36C52.2386 36 50 38.2386 50 41C50 43.7614 52.2386 46 55 46Z" fill="#C80000"/>
<path fill-rule="evenodd" clip-rule="evenodd" d="M109.733 2.94343C106.602 4.24067 103.678 5.83634 100.972 7.66107L103.902 14.7355C100.326 17.3402 97.2535 20.4156 94.7201 23.8967L87.6461 20.9665C85.7858 23.7277 84.2681 26.692 82.9988 29.7564C81.7294 32.8209 80.7066 35.9901 80.0695 39.2579L87.1436 42.1881C86.4734 46.4409 86.4716 50.7882 87.1581 55.1585L80.0837 58.0888C80.7072 61.2929 81.6462 64.4885 82.9434 67.6203C84.2407 70.7521 85.8363 73.6757 87.6611 76.3822L94.7355 73.4519C97.3402 77.0275 100.416 80.1003 103.897 82.6336L100.967 89.7077C103.728 91.5679 106.692 93.0857 109.756 94.3549C112.821 95.6242 115.99 96.6472 119.258 97.2842L122.188 90.2102C126.441 90.8803 130.788 90.8822 135.159 90.1957L138.089 97.2701C141.293 96.6465 144.488 95.7076 147.62 94.4103C150.752 93.1131 153.676 91.5174 156.382 89.6927L153.452 82.6183C157.027 80.0136 160.1 76.9382 162.634 73.4571L169.708 76.3873C171.568 73.6261 173.085 70.6618 174.355 67.5973C175.624 64.533 176.647 61.3637 177.284 58.0958L170.21 55.1657C170.88 50.9128 170.882 46.5655 170.196 42.1953L177.27 39.2649C176.647 36.0609 175.708 32.8653 174.41 29.7335C173.113 26.6016 171.517 23.6781 169.693 20.9716L162.618 23.9019C160.014 20.3263 156.938 17.2535 153.457 14.7201L156.387 7.64611C153.626 5.78586 150.662 4.26815 147.597 2.99884C144.533 1.72958 141.364 0.706599 138.096 0.0695496L135.166 7.14358C130.913 6.47343 126.565 6.47163 122.195 7.1581L119.265 0.0837024C116.061 0.707267 112.865 1.64623 109.733 2.94343ZM129 73.4302C115.2 73.4302 104.085 61.9418 104.085 48.2254L153.429 48.2842C153.429 54.2908 151.391 59.8589 147.94 64.2207C143.512 69.8191 136.757 73.4302 129 73.4302ZM144 44.4242C147.452 44.4242 150.25 41.643 150.25 38.2121C150.25 37.2157 150.014 36.274 149.594 35.4394C149.306 34.9828 149.004 34.5382 148.69 34.1056C147.544 32.8145 145.868 32 144 32C140.548 32 137.75 34.7813 137.75 38.2121C137.75 41.643 140.548 44.4242 144 44.4242ZM114 44.4242C117.452 44.4242 120.25 41.643 120.25 38.2121C120.25 34.7813 117.452 32 114 32C110.548 32 107.75 34.7813 107.75 38.2121C107.75 41.643 110.548 44.4242 114 44.4242Z" fill="#C80000"/>
<path fill-rule="evenodd" clip-rule="evenodd" d="M206 9.8125C208.585 9.28719 211.261 9 214 9C216.739 9 219.415 9.28719 222 9.8125V16C225.475 16.8389 228.72 18.1846 231.688 20L236.062 15.625C238.305 17.1111 240.355 18.8548 242.25 20.75C244.145 22.6452 245.889 24.6949 247.375 26.9375L243 31.3125C244.815 34.2802 246.161 37.5252 247 41H253.188C253.713 43.5848 254 46.2608 254 49C254 51.7392 253.713 54.4152 253.188 57H247C246.161 60.4749 244.815 63.7198 243 66.6875L247.375 71.0625C245.889 73.3051 244.145 75.3548 242.25 77.25C240.355 79.1452 238.305 80.8889 236.062 82.375L231.688 78C228.72 79.8154 225.475 81.1611 222 82V88.1875C219.415 88.7128 216.739 89 214 89C211.261 89 208.585 88.7128 206 88.1875V82C202.525 81.1611 199.28 79.8154 196.312 78L191.938 82.375C189.695 80.8889 187.645 79.1452 185.75 77.25C183.855 75.3548 182.111 73.3051 180.625 71.0625L185 66.6875C183.185 63.7198 181.839 60.4748 181 57H174.812C174.287 54.4152 174 51.7392 174 49C174 46.2608 174.287 43.5848 174.812 41H181C181.839 37.5251 183.185 34.2802 185 31.3125L180.625 26.9375C182.111 24.6949 183.855 22.6452 185.75 20.75C187.645 18.8548 189.695 17.1111 191.938 15.625L196.312 20C199.28 18.1846 202.525 16.8389 206 16V9.8125ZM214 69C225.04 69 234 60.04 234 49H194C194 60.04 202.96 69 214 69ZM207 41C207 43.7614 204.761 46 202 46C199.239 46 197 43.7614 197 41C197 38.2386 199.239 36 202 36C204.761 36 207 38.2386 207 41ZM226 46C228.761 46 231 43.7614 231 41C231 38.2386 228.761 36 226 36C223.239 36 221 38.2386 221 41C221 43.7614 223.239 46 226 46Z" fill="#C80000"/>
</g>
<defs>
<clipPath id="clip0">
<rect width="258" height="148" fill="white"/>
</clipPath>
</defs>
</svg>
