<svg width="128" height="128" viewBox="0 0 128 128" fill="none" xmlns="http://www.w3.org/2000/svg">
<rect width="128" height="128" fill="white"/>
<path d="M32.0226 110.172L25 31.4058H102.166L95.1361 110.16L63.5358 118.921L32.0226 110.172Z" fill="#E44D26"/>
<path d="M63.583 112.224L89.1176 105.145L95.1252 37.8457H63.583V112.224Z" fill="#F16529"/>
<path d="M63.5831 67.0592H50.7998L49.917 57.1668H63.5831V47.5063H63.5497H39.3594L39.5906 50.0981L41.965 76.7195H63.5831V67.0592Z" fill="#EBEBEB"/>
<path d="M63.582 92.1492L63.5396 92.1605L52.7808 89.2554L52.093 81.5508H46.8651H42.3955L43.7489 96.719L63.5375 102.212L63.582 102.2V92.1492Z" fill="#EBEBEB"/>
<path d="M32.1797 10H37.089V14.8504H41.5798V10H46.4893V24.6881H41.58V19.7696H37.0892V24.6881H32.1799V10H32.1797Z" fill="black"/>
<path d="M52.944 14.8708H48.6221V10H62.1775V14.8708H57.8537V24.6881H52.9442V14.8708H52.944Z" fill="black"/>
<path d="M64.3301 10H69.4491L72.598 15.1609L75.7437 10H80.8647V24.6881H75.9756V17.4078L72.598 22.6303H72.5136L69.1336 17.4078V24.6881H64.3301V10V10Z" fill="black"/>
<path d="M83.3076 10H88.2184V19.833H95.1223V24.6881H83.3076V10Z" fill="black"/>
<path d="M63.5498 67.0581V76.7184H75.4455L74.3242 89.2472L63.5498 92.1553V102.206L83.3542 96.7169L83.4995 95.0848L85.7696 69.6522L86.0053 67.0581H83.402H63.5498Z" fill="white"/>
<path d="M63.5498 47.5063V53.5063V57.1432V57.1669H86.8532H86.8843L87.0781 54.9955L87.5182 50.0981L87.7493 47.5063H63.5498Z" fill="white"/>
</svg>
