<svg width="100" height="100" viewBox="0 0 100 100" fill="none" xmlns="http://www.w3.org/2000/svg">
<path d="M87.5181 43.0314C87.1405 40.8224 87.0966 40.6738 85.9672 36.9314C85.2382 34.8505 85.1632 34.6923 83.5293 31.3731C83.5022 31.3243 83.4749 31.2756 83.4476 31.227C89.228 42.9177 84.845 60.1743 31.8402 76.4093C27.7197 77.6717 26.7085 78.0393 26.1182 78.5185C28.9524 80.9383 32.1487 82.9452 35.6143 84.4463C36.0047 84.2029 36.207 84.1452 38.7317 83.4855C58.4822 78.3245 68.8666 72.8459 74.1027 69.1609C86.2302 60.6188 87.9328 53.4413 88.0002 47.5473C87.9092 46.1861 87.69 44.3825 87.5181 43.0314Z" fill="#36A6F3"/>
<path d="M75.6084 38.7009C66.0625 31.1832 52.8952 25.1409 36.4678 20.7449C31.956 19.5378 30.7075 19.1556 29.8808 18.5922C29.8741 18.5353 29.8657 18.4691 29.8574 18.4029C29.849 18.3366 29.8406 18.2704 29.8339 18.2133C29.8507 18.1999 29.8699 18.1832 29.8891 18.1664L29.9047 18.1527C29.9163 18.1425 29.9276 18.1325 29.9382 18.1239C27.3398 19.9741 27.0042 20.2131 25.2083 21.828C22.6277 24.3764 22.5775 24.4267 21.3725 25.9121C21.3525 26.0932 21.3257 26.3312 21.3056 26.5089C22.0855 27.4243 23.4979 28.0547 31.3368 30.4656C65.303 40.9056 93.7344 60.0186 76.2299 77.4114C77.4215 76.2411 78.0498 75.6213 78.5623 75.0689C78.9227 74.6692 79.2747 74.2618 79.618 73.8469C79.7334 73.7062 79.8568 73.5544 79.9921 73.3875C80.0283 73.3424 80.0644 73.2971 80.1004 73.2518C81.0125 72.0156 81.5635 71.2678 81.9797 70.6683C82.558 69.7986 83.1012 68.9035 83.6073 67.9851C84.1603 66.9016 84.5335 66.1697 84.811 65.6055C85.2806 64.5894 85.7065 63.5488 86.0862 62.4862C87.1245 59.0533 89.5108 49.6455 75.6084 38.7009Z" fill="#0C336A"/>
<path d="M50.8032 85.9853C55.3244 89.6608 76.4882 83.0119 75.0261 71.5637C74.4365 66.9399 69.2079 54.8673 33.4766 42.7171C19.1949 37.8611 15.7593 36.5423 15.8254 35.0228C15.4968 35.8001 15.1933 36.5906 14.9161 37.3934C13.9312 40.6237 13.8705 40.8608 13.502 42.9635C13.3234 44.3337 13.0977 46.1596 13 47.5333C13.3672 49.4301 16.2679 50.6046 27.5876 54.2598C87.2521 73.528 62.0994 87.4096 50.8032 85.9853Z" fill="#0C336A"/>
<path fill-rule="evenodd" clip-rule="evenodd" d="M29.9047 18.1527C29.9163 18.1425 29.9276 18.1325 29.9382 18.1239C27.3398 19.9741 27.0042 20.2131 25.2083 21.828C22.6277 24.3764 22.5775 24.4267 21.3725 25.9121C21.3525 26.0932 21.3257 26.3312 21.3056 26.5089C22.0855 27.4243 23.4979 28.0547 31.3368 30.4656C65.303 40.9056 93.7344 60.0186 76.2299 77.4114C77.4215 76.2411 78.0498 75.6213 78.5623 75.0689C78.9227 74.6692 79.2747 74.2618 79.618 73.8469C79.7334 73.7062 79.8568 73.5544 79.9921 73.3875C80.0283 73.3424 80.0644 73.2971 80.1004 73.2518C81.0125 72.0156 81.5635 71.2678 81.9797 70.6683C82.558 69.7986 83.1012 68.9035 83.6073 67.9851C84.1603 66.9016 84.5335 66.1697 84.811 65.6055C85.2806 64.5894 85.7065 63.5488 86.0862 62.4862C87.1245 59.0533 89.5108 49.6455 75.6084 38.7009C66.0625 31.1832 52.8952 25.1409 36.4678 20.7449C31.956 19.5378 30.7075 19.1556 29.8808 18.5922C29.8741 18.5353 29.8657 18.4691 29.8574 18.4029C29.849 18.3366 29.8406 18.2704 29.8339 18.2133C29.8507 18.1999 29.8699 18.1832 29.8891 18.1664L29.9047 18.1527ZM15.8254 35.0228C15.4968 35.8001 15.1933 36.5906 14.9161 37.3934C13.9312 40.6237 13.8705 40.8608 13.502 42.9635C13.3234 44.3337 13.0977 46.1596 13 47.5333C13.3672 49.4301 16.2679 50.6046 27.5876 54.2598C87.2521 73.528 62.0994 87.4096 50.8032 85.9853C55.3244 89.6608 76.4882 83.0119 75.0261 71.5637C74.4365 66.9399 69.2079 54.8673 33.4766 42.7171C19.1949 37.8611 15.7593 36.5423 15.8254 35.0228Z" fill="#0C336A"/>
<path fill-rule="evenodd" clip-rule="evenodd" d="M83.4476 31.2269C83.4134 31.1578 83.3789 31.089 83.3441 31.0204L83.4655 31.2433L83.4812 31.2751L83.5293 31.373C83.5022 31.3242 83.4749 31.2755 83.4476 31.2269ZM19.819 71.6322C24.4833 69.6293 29.2833 67.9832 34.0832 66.337C40.2147 64.2343 46.346 62.1316 52.1939 59.2854C66.6472 52.2455 71.0259 47.917 73.6412 45.3317L73.644 45.329C77.8438 41.1771 86.8326 30.1376 72.3049 19.1518C71.3303 18.4812 69.9916 17.6508 68.9859 17.0289C66.8565 15.8581 66.3606 15.6461 63.9711 14.6282C62.6324 14.107 62.4208 14.041 60.392 13.4156C59.463 13.1502 59.3383 13.1219 57.8191 12.7778L57.6592 12.7416C56.8962 12.5852 56.8407 12.5748 55.4292 12.3455C54.8709 12.2691 54.1252 12.1787 53.5634 12.1162C53.4041 12.0985 53.2578 12.077 53.124 12.0574C53.1017 12.0541 53.0799 12.0509 53.0583 12.0478C52.8478 12.034 52.6368 12.022 52.4254 12.0117C52.3345 12.0273 52.2572 12.0597 52.1927 12.1162C52.2099 12.2947 52.3094 12.3493 52.4296 12.4153C52.5035 12.4559 52.5853 12.5008 52.6607 12.5816C56.7816 12.5816 58.4638 12.8285 63.2532 14.9964C71.1153 18.5576 75.7109 26.4042 65.0154 36.2436C62.3901 38.6617 56.1892 42.9282 47.3629 46.9966C40.6325 50.0988 33.6671 52.5809 26.7015 55.063C22.5074 56.5576 18.3132 58.0522 14.1702 59.6822C15.3487 64.0267 17.2815 68.06 19.819 71.6322Z" fill="#36A6F3"/>
<path d="M87.9999 47.6068C87.8824 46.2545 87.7179 44.4515 87.5198 43.1094L87.4959 42.9953C86.7035 39.2057 86.6834 39.1094 85.9752 37.0344L85.9749 37.0336C84.5818 33.4587 84.565 33.3007 83.5209 31.3499L83.366 31.0686C75.2575 17.9274 55.6655 13.1427 48.6161 12.0167C45.0197 12.2004 41.5563 12.8888 38.2952 14.0125C38.6535 14.1195 39.217 14.2395 40.5051 14.5139C45.085 15.486 61.0576 19.351 74.2837 28.2415C86.902 36.7249 87.7011 44.6298 87.9999 47.6068Z" fill="#0C336A"/>
</svg>
