<svg width="100" height="100" viewBox="0 0 100 100" fill="none" xmlns="http://www.w3.org/2000/svg">
<path d="M29.2925 0.349689C23.9724 0.60069 20.3394 1.44969 17.1633 2.6977C13.8763 3.9787 11.0902 5.69771 8.31819 8.47972C5.54616 11.2617 3.83913 14.0497 2.56712 17.3417C1.3361 20.5248 0.502088 24.1608 0.267085 29.4838C0.0320815 34.8068 -0.0199192 36.5178 0.00608116 50.0959C0.0320815 63.6739 0.0920824 65.3759 0.350086 70.7099C0.604089 76.0289 1.4501 79.661 2.69812 82.838C3.98114 86.125 5.69816 88.91 8.4812 91.683C11.2642 94.456 14.0503 96.159 17.3503 97.433C20.5304 98.662 24.1674 99.5 29.4895 99.733C34.8116 99.966 36.5246 100.02 50.0988 99.994C63.673 99.968 65.382 99.908 70.715 99.655C76.0481 99.402 79.6612 98.55 82.8392 97.308C86.1263 96.022 88.9133 94.308 91.6843 91.524C94.4554 88.74 96.1614 85.95 97.4324 82.656C98.6644 79.476 99.5014 75.839 99.7324 70.5209C99.9654 65.1839 100.02 63.4799 99.9944 49.9039C99.9684 36.3278 99.9074 34.6258 99.6544 29.2938C99.4014 23.9618 98.5544 20.3408 97.3074 17.1617C96.0224 13.8747 94.3074 11.0917 91.5253 8.31672C88.7433 5.54171 85.9513 3.8367 82.6582 2.5687C79.4762 1.33769 75.8411 0.49869 70.519 0.268689C65.197 0.0386882 63.4839 -0.020312 49.9048 0.00568808C36.3256 0.0316882 34.6256 0.0896884 29.2925 0.349689ZM29.8765 90.738C25.0014 90.526 22.3544 89.716 20.5904 89.038C18.2543 88.138 16.5903 87.05 14.8323 85.309C13.0743 83.568 11.9942 81.898 11.0822 79.567C10.3972 77.803 9.57221 75.159 9.34421 70.2839C9.09621 65.0149 9.0442 63.4329 9.0152 50.0839C8.9862 36.7348 9.0372 35.1548 9.26821 29.8838C9.47621 25.0128 10.2912 22.3628 10.9682 20.5998C11.8682 18.2608 12.9523 16.5997 14.6973 14.8427C16.4423 13.0857 18.1073 12.0037 20.4404 11.0917C22.2024 10.4037 24.8464 9.58572 29.7195 9.35372C34.9926 9.10372 36.5726 9.05372 49.9198 9.02472C63.2669 8.99572 64.851 9.04572 70.126 9.27772C74.9971 9.48972 77.6481 10.2967 79.4092 10.9777C81.7462 11.8777 83.4092 12.9587 85.1662 14.7067C86.9233 16.4547 88.0063 18.1138 88.9183 20.4518C89.6073 22.2088 90.4253 24.8518 90.6553 29.7278C90.9063 35.0008 90.9633 36.5818 90.9873 49.9279C91.0113 63.2739 90.9643 64.8589 90.7333 70.1279C90.5203 75.0029 89.7123 77.651 89.0333 79.417C88.1333 81.752 87.0483 83.417 85.3022 85.173C83.5562 86.929 81.8932 88.011 79.5592 88.923C77.7991 89.61 75.1521 90.43 70.283 90.662C65.01 90.91 63.4299 90.962 50.0778 90.991C36.7256 91.02 35.1506 90.966 29.8775 90.738M70.638 23.2768C70.64 24.4635 70.9939 25.6231 71.6549 26.6087C72.316 27.5944 73.2545 28.3618 74.3517 28.8141C75.4489 29.2663 76.6557 29.383 77.8192 29.1494C78.9828 28.9158 80.0509 28.3423 80.8886 27.5016C81.7262 26.6609 82.2957 25.5907 82.5251 24.4263C82.7544 23.2619 82.6333 22.0556 82.1771 20.96C81.7208 19.8645 80.9499 18.9288 79.9618 18.2714C78.9737 17.614 77.8129 17.2644 76.6261 17.2667C75.0352 17.2699 73.5106 17.9048 72.3876 19.0319C71.2647 20.1589 70.6354 21.6858 70.638 23.2768ZM24.3274 50.0499C24.3554 64.2299 35.8716 75.6989 50.0488 75.6719C64.226 75.6449 75.7031 64.1299 75.6761 49.9499C75.6491 35.7698 64.13 24.2978 49.9508 24.3258C35.7716 24.3538 24.3004 35.8718 24.3274 50.0499ZM33.3335 50.0319C33.327 46.7354 34.2982 43.5111 36.1241 40.7666C37.9501 38.0221 40.549 35.8807 43.592 34.6132C46.635 33.3457 49.9856 33.009 53.22 33.6457C56.4544 34.2824 59.4273 35.8639 61.7629 38.1902C64.0984 40.5165 65.6917 43.4831 66.3412 46.7149C66.9907 49.9468 66.6673 53.2986 65.4118 56.3466C64.1564 59.3946 62.0253 62.0018 59.288 63.8387C56.5507 65.6755 53.3302 66.6594 50.0338 66.6659C47.8449 66.6705 45.6766 66.2439 43.6527 65.4104C41.6287 64.5769 39.7888 63.3529 38.238 61.8082C36.6872 60.2635 35.4559 58.4285 34.6143 56.4079C33.7728 54.3873 33.3376 52.2207 33.3335 50.0319Z" fill="#EA86A2"/>
</svg>
