<svg width="50" height="50" viewBox="0 0 50 50" fill="none" xmlns="http://www.w3.org/2000/svg">
<g clip-path="url(#clip0_991_64)">
<path d="M8.6465 49.8544C6.74644 49.8544 4.99253 49.6361 3.38478 49.1994C1.77702 48.7142 0.315433 48.0835 -1 47.3071V41.8486C0.217993 42.6735 1.55779 43.377 3.01938 43.9592C4.52969 44.493 6.18616 44.7598 7.98879 44.7598C11.3017 44.7598 13.689 43.9592 15.1506 42.3581C16.6122 40.7084 17.343 38.0398 17.343 34.3523V0.727798H22.6047V34.7889C22.6047 37.8942 22.1662 40.4415 21.2893 42.4309C20.461 44.3717 19.3648 45.9 18.0007 47.016C16.6365 48.0834 15.1262 48.8355 13.4698 49.2722C11.862 49.6604 10.2543 49.8544 8.6465 49.8544Z" fill="white"/>
<path d="M28.0618 49.4905C29.767 49.8302 31.8376 50 34.2736 50C38.4148 50 41.6547 49.3207 43.9932 47.9622C46.3317 46.5551 47.9882 44.8083 48.9626 42.722C49.937 40.5871 50.4242 38.4279 50.4242 36.2445C50.4242 33.9156 49.9857 31.9748 49.1088 30.4221C48.2805 28.821 47.16 27.5109 45.7471 26.492C44.383 25.4246 42.8483 24.5512 41.1431 23.8719C39.4379 23.1441 37.7327 22.4891 36.0275 21.9068C33.8839 21.179 31.9838 20.4512 30.3273 19.7234C28.7196 18.9471 27.4529 17.9767 26.5272 16.8122C25.6502 15.6477 25.2117 14.0708 25.2117 12.0815C25.2117 10.1892 25.9669 8.51529 27.4772 7.05968C28.9875 5.55556 31.521 4.8035 35.0775 4.8035C37.075 4.8035 38.7558 4.99758 40.12 5.38573C41.5329 5.72538 42.7996 6.21058 43.9201 6.84134C45.0894 7.42358 46.3074 8.0786 47.5741 8.8064V3.42067C46.0638 2.69287 44.6996 2.08637 43.4816 1.60117C42.2636 1.06745 40.9726 0.679285 39.6084 0.436684C38.293 0.145561 36.6852 0 34.7852 0C32.0081 0 29.6452 0.388162 27.6965 1.16449C26.0622 1.83219 24.6983 2.67936 23.6047 3.70599V21.7852C23.7931 21.9533 23.9877 22.1151 24.1886 22.2707C25.5041 23.2411 26.9657 24.066 28.5734 24.7453C30.2299 25.376 31.8863 25.9825 33.5428 26.5648C35.4916 27.2926 37.343 28.0689 39.0969 28.8937C40.8508 29.6701 42.288 30.689 43.4086 31.9505C44.5291 33.1635 45.0894 34.7889 45.0894 36.8268C45.0894 39.2528 44.2368 41.2664 42.5316 42.8675C40.8751 44.4202 38.1956 45.1965 34.4929 45.1965C30.985 45.1965 27.9157 44.687 25.2848 43.6681C24.236 43.2619 23.2724 42.8326 22.3939 42.3801C22.3338 42.5322 22.2714 42.6818 22.2067 42.8288C21.6253 44.1899 20.9105 45.3805 20.0562 46.3882C21.2636 46.9958 22.3975 47.5447 23.4578 48.0349C24.822 48.6657 26.3567 49.1509 28.0618 49.4905Z" fill="white"/>
</g>
<defs>
<clipPath id="clip0_991_64">
<rect width="50" height="50" fill="white"/>
</clipPath>
</defs>
</svg>
