<svg width="64" height="64" viewBox="0 0 64 64" fill="none" xmlns="http://www.w3.org/2000/svg">
<rect width="64" height="64" fill="white"/>
<g clip-path="url(#clip0_3100_1240)">
<path d="M28.0842 11.0259L27.8595 11.1618C27.5021 11.378 27.1654 11.6197 26.8512 11.8838L27.4993 11.428H33L34 19L29 24L24 27.4754V31.4829C24 34.2819 25.4629 36.8774 27.8574 38.3268L33.1211 41.5129L22 48.0002H19.8551L15.8574 45.5804C13.4629 44.131 12 41.5355 12 38.7365V25.2606C12 22.4607 13.4638 19.8645 15.8595 18.4154L27.8595 11.1569C27.9339 11.1119 28.0088 11.0682 28.0842 11.0259Z" fill="url(#paint0_radial_3100_1240)"/>
<path d="M28.0842 11.0259L27.8595 11.1618C27.5021 11.378 27.1654 11.6197 26.8512 11.8838L27.4993 11.428H33L34 19L29 24L24 27.4754V31.4829C24 34.2819 25.4629 36.8774 27.8574 38.3268L33.1211 41.5129L22 48.0002H19.8551L15.8574 45.5804C13.4629 44.131 12 41.5355 12 38.7365V25.2606C12 22.4607 13.4638 19.8645 15.8595 18.4154L27.8595 11.1569C27.9339 11.1119 28.0088 11.0682 28.0842 11.0259Z" fill="url(#paint1_linear_3100_1240)"/>
<path d="M40 27V31.4803C40 34.2793 38.5371 36.8748 36.1426 38.3242L24.1426 45.5878C21.6878 47.0737 18.6335 47.1273 16.1355 45.7487L27.8573 52.844C30.4039 54.3855 33.5959 54.3855 36.1426 52.844L48.1426 45.5803C50.5371 44.1309 51.9999 41.5354 51.9999 38.7364V35.5L50.9999 34L40 27Z" fill="url(#paint2_radial_3100_1240)"/>
<path d="M40 27V31.4803C40 34.2793 38.5371 36.8748 36.1426 38.3242L24.1426 45.5878C21.6878 47.0737 18.6335 47.1273 16.1355 45.7487L27.8573 52.844C30.4039 54.3855 33.5959 54.3855 36.1426 52.844L48.1426 45.5803C50.5371 44.1309 51.9999 41.5354 51.9999 38.7364V35.5L50.9999 34L40 27Z" fill="url(#paint3_linear_3100_1240)"/>
<path d="M48.1405 18.4153L36.1405 11.1568C33.6738 9.66471 30.6021 9.61849 28.0979 11.0181L27.8595 11.1623C25.4638 12.6114 24 15.2076 24 18.0075V27.4914L27.8595 25.1568C30.4051 23.6171 33.5949 23.6171 36.1405 25.1568L48.1405 32.4153C50.4613 33.8192 51.9076 36.2994 51.9957 38.9985C51.9986 38.9113 52 38.824 52 38.7364V25.2605C52 22.4606 50.5362 19.8644 48.1405 18.4153Z" fill="url(#paint4_radial_3100_1240)"/>
<path d="M48.1405 18.4153L36.1405 11.1568C33.6738 9.66471 30.6021 9.61849 28.0979 11.0181L27.8595 11.1623C25.4638 12.6114 24 15.2076 24 18.0075V27.4914L27.8595 25.1568C30.4051 23.6171 33.5949 23.6171 36.1405 25.1568L48.1405 32.4153C50.4613 33.8192 51.9076 36.2994 51.9957 38.9985C51.9986 38.9113 52 38.824 52 38.7364V25.2605C52 22.4606 50.5362 19.8644 48.1405 18.4153Z" fill="url(#paint5_linear_3100_1240)"/>
</g>
<defs>
<radialGradient id="paint0_radial_3100_1240" cx="0" cy="0" r="1" gradientUnits="userSpaceOnUse" gradientTransform="translate(25.4186 18.6383) rotate(110.528) scale(33.3657 58.1966)">
<stop offset="0.06441" stop-color="#AE7FE2"/>
<stop offset="1" stop-color="#0078D4"/>
</radialGradient>
<linearGradient id="paint1_linear_3100_1240" x1="25.5119" y1="45.8685" x2="20.7513" y2="37.6347" gradientUnits="userSpaceOnUse">
<stop stop-color="#114A8B"/>
<stop offset="1" stop-color="#0078D4" stop-opacity="0"/>
</linearGradient>
<radialGradient id="paint2_radial_3100_1240" cx="0" cy="0" r="1" gradientUnits="userSpaceOnUse" gradientTransform="translate(18.4299 44.3511) rotate(-8.36717) scale(31.0503 20.5108)">
<stop offset="0.133928" stop-color="#D59DFF"/>
<stop offset="1" stop-color="#5E438F"/>
</radialGradient>
<linearGradient id="paint3_linear_3100_1240" x1="48.3566" y1="33.3768" x2="43.2552" y2="40.6916" gradientUnits="userSpaceOnUse">
<stop stop-color="#493474"/>
<stop offset="1" stop-color="#8C66BA" stop-opacity="0"/>
</linearGradient>
<radialGradient id="paint4_radial_3100_1240" cx="0" cy="0" r="1" gradientUnits="userSpaceOnUse" gradientTransform="translate(49.0552 34.504) rotate(-165.772) scale(24.9228 41.9552)">
<stop offset="0.0584996" stop-color="#50E6FF"/>
<stop offset="1" stop-color="#436DCD"/>
</radialGradient>
<linearGradient id="paint5_linear_3100_1240" x1="24.9758" y1="11.0566" x2="32.4868" y2="11.0566" gradientUnits="userSpaceOnUse">
<stop stop-color="#2D3F80"/>
<stop offset="1" stop-color="#436DCD" stop-opacity="0"/>
</linearGradient>
<clipPath id="clip0_3100_1240">
<rect width="40" height="44" fill="white" transform="translate(12 10)"/>
</clipPath>
</defs>
</svg>
