<svg width="128" height="128" viewBox="0 0 128 128" fill="none" xmlns="http://www.w3.org/2000/svg">
<rect width="128" height="128" fill="white"/>
<path d="M45.0719 111.444H25.2613C24.7017 111.444 24.1476 111.333 23.6306 111.119C23.1136 110.905 22.6438 110.591 22.2481 110.195C21.8524 109.8 21.5385 109.33 21.3244 108.813C21.1102 108.296 21 107.742 21 107.182V62.8048L35.9537 58.3975L49.3332 62.8048V107.182C49.3332 107.742 49.223 108.296 49.0089 108.813C48.7947 109.33 48.4808 109.8 48.0851 110.195C47.6894 110.591 47.2197 110.905 46.7026 111.119C46.1856 111.333 45.6315 111.444 45.0719 111.444V111.444Z" fill="#185C37"/>
<path d="M75.7778 17H101.599C102.766 17 103.885 17.4637 104.711 18.2891C105.536 19.1144 106 20.2339 106 21.4011V73.0431C106 74.2104 105.536 75.3298 104.711 76.1552C103.885 76.9805 102.766 77.4442 101.599 77.4442H75.7778L70.7407 45.1758L75.7778 17Z" fill="#33C481"/>
<path d="M21 21.4011V64.222H49.3332V94.4442H73.2654C74.4326 94.4442 75.552 93.9805 76.3774 93.1551C77.2028 92.3297 77.6665 91.2103 77.6665 90.0431V17H25.4011C24.2339 17 23.1144 17.4637 22.289 18.2891C21.4637 19.1144 21 20.2339 21 21.4011V21.4011Z" fill="#107C41"/>
<path d="M49.333 17H77.6662V49.111H49.333V17Z" fill="#21A366"/>
</svg>
