<svg width="100" height="100" viewBox="0 0 100 100" fill="none" xmlns="http://www.w3.org/2000/svg">
<g clip-path="url(#clip0_1986_442)">
<path d="M5 100H95C97.7614 100 100 97.7614 100 95V71.8102C100 70.6406 99.5899 69.5079 98.8411 68.6093L76.4992 41.7991C75.5493 40.6591 74.142 40 72.6581 40H50H27.3419C25.858 40 24.4507 40.6591 23.5008 41.7991L1.15889 68.6093C0.410081 69.5079 0 70.6406 0 71.8102V95C0 97.7614 2.23858 100 5 100Z" fill="#EA86A2"/>
<path d="M17.5 0H82.5C92.165 0 100 7.83502 100 17.5V20V30C100 32.7614 97.7614 35 95 35H70C67.2386 35 65 32.7614 65 30V22.5C65 19.7386 62.7614 17.5 60 17.5H40C37.2386 17.5 35 19.7386 35 22.5V30C35 32.7614 32.7614 35 30 35H5C2.23858 35 0 32.7614 0 30V20V17.5C0 7.83502 7.83502 0 17.5 0Z" fill="#EA86A2"/>
</g>
<defs>
<clipPath id="clip0_1986_442">
<rect width="100" height="100" fill="white"/>
</clipPath>
</defs>
</svg>
