<svg width="93" height="65" viewBox="0 0 93 65" fill="none" xmlns="http://www.w3.org/2000/svg">
<path d="M77.8852 17.75L78.3578 19.2641H79.8873L78.6499 20.1998L79.1226 21.7139L77.8852 20.7782L76.6478 21.7139L77.1205 20.1998L75.8831 19.2641H77.4126L77.8852 17.75Z" fill="#C80000"/>
<path d="M77.8852 43.7861L78.3578 45.3002H79.8873L78.6499 46.2359L79.1226 47.75L77.8852 46.8142L76.6478 47.75L77.1205 46.2359L75.8831 45.3002H77.4126L77.8852 43.7861Z" fill="#C80000"/>
<path d="M84.3773 42.0626L84.8499 43.5766H86.3794L85.142 44.5124L85.6146 46.0265L84.3773 45.0907L83.1399 46.0265L83.6126 44.5124L82.3752 43.5766H83.9047L84.3773 42.0626Z" fill="#C80000"/>
<path d="M89.1595 37.2957L89.6322 38.8098H91.1616L89.9243 39.7455L90.3969 41.2596L89.1595 40.3238L87.9222 41.2596L88.3948 39.7455L87.1575 38.8098H88.6869L89.1595 37.2957Z" fill="#C80000"/>
<path d="M90.8645 30.7437L91.3371 32.2578H92.8666L91.6292 33.1936L92.1019 34.7076L90.8645 33.7719L89.6271 34.7076L90.0998 33.1936L88.8624 32.2578H90.3919L90.8645 30.7437Z" fill="#C80000"/>
<path d="M89.1528 24.2875L89.6254 25.8016H91.1548L89.9175 26.7374L90.3901 28.2515L89.1528 27.3157L87.9154 28.2515L88.388 26.7374L87.1507 25.8016H88.6801L89.1528 24.2875Z" fill="#C80000"/>
<path d="M84.4315 19.5044L84.9041 21.0184H86.4336L85.1962 21.9542L85.6688 23.4683L84.4315 22.5325L83.1941 23.4683L83.6667 21.9542L82.4294 21.0184H83.9588L84.4315 19.5044Z" fill="#C80000"/>
<path fill-rule="evenodd" clip-rule="evenodd" d="M25.8666 51.75L27.8666 62.25H31.8666L34.3666 62.75L36.3666 60.25L39.3666 58.25L40.3666 53.75L39.3666 52.25L40.3666 48.75L42.3666 47.25L44.3666 47.75L46.3666 46.75L46.8666 45.75L48.3666 45.25L50.3666 46.25L52.8666 49.25L55.8666 50.25L58.8666 52.25L59.3666 54.75H60.3666V52.25L59.8666 50.25H61.8666L61.3666 49.25L58.3666 47.75L54.8666 44.25L55.8666 42.25L57.3666 41.25L58.3666 42.25H60.3666L65.3666 45.25C66.7937 45.7852 67.9685 46.0397 69.0248 46.2686C70.9291 46.6813 72.4483 47.0105 74.3666 48.75V1.25C74.1831 1.44018 74.0011 1.62905 73.8207 1.81634C69.3123 6.49594 65.7511 10.1923 62.8666 8.75L61.3666 7.75L60.8666 10.25V11.75L60.3666 13.75L58.3666 15.75H56.3666V14.75L53.3666 16.25L49.8666 17.75L47.3666 18.25L47.8666 17.25H45.8666V16.25L44.8666 15.25V13.25L43.8666 12.75H42.8666L42.3666 14.25V16.25L43.3666 18.25L44.3666 19.75L43.3666 19.25L41.3666 20.25L39.8666 21.75L40.3666 22.75V23.75H39.3666L38.8666 22.75L38.3666 23.25L38.8666 28.25L38.3666 30.25L36.8666 31.25V32.75L36.3666 34.75L34.8666 36.25L31.8666 35.75L32.8666 37.25L31.8666 38.25H29.3666L28.3666 38.75L28.8666 40.25L31.3666 41.25L32.3666 43.25L34.8666 44.75H32.8666L34.3666 47.25V49.5407L25.8666 51.75ZM71.8527 43.5703L71.38 42.0562L70.9074 43.5703H69.378L70.6153 44.506L70.1427 46.0201L71.38 45.0844L72.6174 46.0201L72.1448 44.506L73.3821 43.5703H71.8527ZM66.6148 37.2834L67.0874 38.7975H68.6169L67.3795 39.7332L67.8521 41.2473L66.6148 40.3115L65.3774 41.2473L65.8501 39.7332L64.6127 38.7975H66.1422L66.6148 37.2834ZM65.3413 32.2902L64.8687 30.7761L64.396 32.2902H62.8666L64.1039 33.2259L63.6313 34.74L64.8687 33.8043L66.106 34.74L65.6334 33.2259L66.8708 32.2902H65.3413ZM66.6199 24.2711L67.0925 25.7852H68.622L67.3846 26.7209L67.8572 28.235L66.6199 27.2993L65.3825 28.235L65.8552 26.7209L64.6178 25.7852H66.1473L66.6199 24.2711ZM71.8561 21.0011L71.3835 19.487L70.9109 21.0011H69.3814L70.6188 21.9369L70.1461 23.451L71.3835 22.5152L72.6208 23.451L72.1482 21.9369L73.3856 21.0011H71.8561Z" fill="#C80000"/>
<path fill-rule="evenodd" clip-rule="evenodd" d="M21.8666 0.25H75.3666V64.75H21.8666V41.5816C22.2076 41.4392 22.5409 41.2929 22.8666 41.1428V63.75H74.3666V1.25H22.8666V13.4516C22.5316 13.3256 22.1982 13.2101 21.8666 13.1051V0.25ZM21.8666 19.4606V13.1051C18.8173 12.1391 15.9089 12.0556 13.1412 12.8548C9.61676 13.8701 6.99196 16.1575 5.26683 19.7168L11.3994 22.5962C12.3436 20.5851 13.781 19.3046 15.7115 18.7546C17.6071 18.2144 19.6588 18.4498 21.8666 19.4606ZM22.8666 19.9721C22.5891 19.8133 22.2963 19.6616 21.9884 19.517C21.9477 19.4979 21.9071 19.4791 21.8666 19.4606V34.5662C21.202 35.0055 20.4696 35.398 19.6694 35.7437L13.2257 38.18C10.6525 39.2373 8.73165 40.3988 7.46321 41.6642C6.19478 42.9297 4.92108 44.8669 3.64212 47.476L9.7747 50.3554C11.3519 46.9963 13.3673 44.8004 15.821 43.7678L21.1152 41.8842C21.3697 41.7854 21.6201 41.6845 21.8666 41.5816V34.5662C22.219 34.3332 22.5523 34.0871 22.8666 33.8278V41.1428C27.2491 39.1222 30.2453 36.3977 31.855 32.9692C33.6916 29.0576 33.9626 25.4359 32.668 22.104C31.406 18.7603 28.6866 16.108 24.5098 14.1469C23.9577 13.8876 23.4099 13.6559 22.8666 13.4516V19.9721ZM22.8666 19.9721V33.8278C24.0645 32.8394 24.9853 31.6597 25.629 30.2887C26.7185 27.9683 26.9616 25.8708 26.3584 23.9962C25.8442 22.3513 24.6802 21.0099 22.8666 19.9721ZM0.568114 53.3338C1.03504 52.3393 1.72249 51.6507 2.63045 51.2678C3.57089 50.8733 4.6378 50.9562 5.83117 51.5165C7.02453 52.0768 7.76978 52.8448 8.0669 53.8204C8.3744 54.7739 8.29469 55.7479 7.82776 56.7424C7.36083 57.7368 6.66234 58.4203 5.73227 58.7927C4.81258 59.1431 3.75605 59.0381 2.56269 58.4778C1.36932 57.9175 0.613701 57.1716 0.295825 56.2402C0.0104257 55.2971 0.101189 54.3283 0.568114 53.3338Z" fill="#C80000"/>
</svg>
