<svg width="120" height="120" viewBox="0 0 120 120" fill="none" xmlns="http://www.w3.org/2000/svg">
<path d="M58.9188 4.00092C54.3351 4.02222 49.9578 4.41314 46.1063 5.09467C34.7601 7.09917 32.7 11.2948 32.7 19.0322V29.2509H59.5125V32.6572H32.7H22.6375C14.8451 32.6572 8.02178 37.3409 5.88754 46.2509C3.42572 56.4639 3.31652 62.8369 5.88754 73.5009C7.79346 81.4388 12.3451 87.0947 20.1375 87.0947H29.3563V74.8447C29.3563 65.9948 37.0134 58.1884 46.1063 58.1884H72.8875C80.3425 58.1884 86.2938 52.0503 86.2938 44.5634V19.0322C86.2938 11.7658 80.1638 6.30739 72.8875 5.09467C68.2815 4.32794 63.5024 3.97962 58.9188 4.00092ZM44.4188 12.2197C47.1883 12.2197 49.45 14.5183 49.45 17.3447C49.45 20.161 47.1883 22.4384 44.4188 22.4384C41.6393 22.4384 39.3875 20.161 39.3875 17.3447C39.3875 14.5183 41.6393 12.2197 44.4188 12.2197Z" fill="url(#paint0_linear)"/>
<path d="M89.6375 32.6572V44.5634C89.6375 53.7942 81.8116 61.5634 72.8875 61.5634H46.1063C38.7704 61.5634 32.7 67.8419 32.7 75.1884V100.72C32.7 107.986 39.0186 112.26 46.1063 114.345C54.5936 116.84 62.7325 117.291 72.8875 114.345C79.6377 112.39 86.2938 108.457 86.2938 100.72V90.5009H59.5125V87.0947H86.2938H99.7C107.492 87.0947 110.396 81.6593 113.106 73.5009C115.906 65.1021 115.786 57.0252 113.106 46.2509C111.18 38.4935 107.502 32.6572 99.7 32.6572H89.6375ZM74.575 97.3134C77.3545 97.3134 79.6063 99.5909 79.6063 102.407C79.6063 105.234 77.3545 107.532 74.575 107.532C71.8055 107.532 69.5438 105.234 69.5438 102.407C69.5438 99.5909 71.8055 97.3134 74.575 97.3134Z" fill="url(#paint1_linear)"/>
<defs>
<linearGradient id="paint0_linear" x1="4" y1="4" x2="65.8267" y2="56.6849" gradientUnits="userSpaceOnUse">
<stop stop-color="#5A9FD4"/>
<stop offset="1" stop-color="#306998"/>
</linearGradient>
<linearGradient id="paint1_linear" x1="73.9307" y1="101.548" x2="51.7496" y2="70.4658" gradientUnits="userSpaceOnUse">
<stop stop-color="#FFD43B"/>
<stop offset="1" stop-color="#FFE873"/>
</linearGradient>
</defs>
</svg>
