<svg width="100" height="50" viewBox="0 0 100 50" fill="none" xmlns="http://www.w3.org/2000/svg">
<g clip-path="url(#clip0)">
<path d="M25 0L25 50" stroke="#C80000"/>
<path d="M50 0L50 50" stroke="#C80000"/>
<path d="M75 0L75 50" stroke="#C80000"/>
<path d="M100 9L9.53674e-07 9" stroke="#C80000"/>
<path d="M6.61386 6.06C6.47519 6.06 6.34586 6.048 6.22586 6.024C6.10586 6.00267 6.00853 5.96267 5.93386 5.904C5.86186 5.84533 5.82586 5.764 5.82586 5.66V3.16H6.11386V4.088C6.19653 4.056 6.28853 4.02933 6.38986 4.008C6.49119 3.984 6.57786 3.972 6.64986 3.972C6.95919 3.972 7.18853 4.06267 7.33786 4.244C7.48719 4.42267 7.56186 4.66667 7.56186 4.976C7.56186 5.20533 7.53119 5.392 7.46986 5.536C7.40853 5.67733 7.32986 5.78667 7.23386 5.864C7.14053 5.93867 7.03919 5.98933 6.92986 6.016C6.82053 6.04533 6.71519 6.06 6.61386 6.06ZM6.58586 5.796C6.77519 5.796 6.91786 5.75733 7.01386 5.68C7.10986 5.60267 7.17386 5.50267 7.20586 5.38C7.24053 5.25467 7.25786 5.12 7.25786 4.976C7.25786 4.75733 7.21119 4.58 7.11786 4.444C7.02453 4.30533 6.86853 4.236 6.64986 4.236C6.56719 4.236 6.47786 4.248 6.38186 4.272C6.28586 4.29333 6.19653 4.328 6.11386 4.376V5.592C6.11386 5.65067 6.13919 5.69467 6.18986 5.724C6.24319 5.75333 6.30586 5.77333 6.37786 5.784C6.45253 5.792 6.52186 5.796 6.58586 5.796ZM8.7912 6.06C8.7032 6.06 8.61387 6.05067 8.5232 6.032C8.4352 6.01333 8.35254 5.98133 8.2752 5.936C8.20054 5.89067 8.1392 5.82933 8.0912 5.752C8.04587 5.672 8.0232 5.572 8.0232 5.452C8.0232 5.28667 8.05387 5.15467 8.1152 5.056C8.1792 4.95467 8.26587 4.88267 8.3752 4.84C8.4872 4.79467 8.6152 4.772 8.7592 4.772C8.90854 4.772 9.03254 4.78533 9.1312 4.812C9.22987 4.836 9.3152 4.86933 9.3872 4.912V4.676C9.3872 4.52133 9.34187 4.408 9.2512 4.336C9.16054 4.264 9.0312 4.228 8.8632 4.228C8.75654 4.228 8.6432 4.244 8.5232 4.276C8.40587 4.30533 8.30454 4.35333 8.2192 4.42V4.132C8.30187 4.07867 8.41254 4.03867 8.5512 4.012C8.68987 3.98267 8.82454 3.968 8.9552 3.968C9.17387 3.968 9.34854 4.02133 9.4792 4.128C9.61254 4.23467 9.6792 4.39467 9.6792 4.608V5.576C9.6792 5.71733 9.63654 5.82267 9.5512 5.892C9.46854 5.96133 9.3592 6.00667 9.2232 6.028C9.08987 6.04933 8.94587 6.06 8.7912 6.06ZM8.3112 5.408C8.3112 5.50667 8.33787 5.58533 8.3912 5.644C8.4472 5.70267 8.51654 5.744 8.5992 5.768C8.68454 5.792 8.7712 5.804 8.8592 5.804C9.03254 5.804 9.1632 5.792 9.2512 5.768C9.34187 5.74133 9.3872 5.68267 9.3872 5.592V5.144C9.32054 5.112 9.2392 5.08533 9.1432 5.064C9.0472 5.04267 8.94454 5.032 8.8352 5.032C8.6672 5.032 8.53787 5.064 8.4472 5.128C8.35654 5.192 8.3112 5.28533 8.3112 5.408ZM11.154 6.032C11.0474 6.032 10.938 6.01867 10.826 5.992C10.7167 5.96267 10.6154 5.912 10.522 5.84C10.4314 5.76533 10.358 5.66 10.302 5.524C10.246 5.388 10.218 5.21333 10.218 5C10.218 4.78667 10.246 4.61333 10.302 4.48C10.358 4.344 10.4314 4.23867 10.522 4.164C10.6154 4.08933 10.7167 4.03867 10.826 4.012C10.938 3.98267 11.0474 3.968 11.154 3.968C11.2554 3.968 11.3554 3.97733 11.454 3.996C11.5554 4.01467 11.6527 4.04267 11.746 4.08V4.356C11.658 4.31867 11.5674 4.29067 11.474 4.272C11.3807 4.25333 11.2847 4.244 11.186 4.244C10.9487 4.244 10.7754 4.304 10.666 4.424C10.5594 4.544 10.506 4.736 10.506 5C10.506 5.26667 10.5594 5.46 10.666 5.58C10.7754 5.69733 10.9487 5.756 11.186 5.756C11.386 5.756 11.5727 5.71867 11.746 5.644V5.924C11.5594 5.996 11.362 6.032 11.154 6.032ZM12.5748 6H12.2868V3.244H12.5748V4.744L13.3868 4.004H13.7468L12.7668 4.868L13.8908 6H13.5068L12.5748 5.056V6ZM14.6178 6H14.3298V3.244H14.6178V6ZM16.0795 6.06C15.7675 6.06 15.5355 5.968 15.3835 5.784C15.2341 5.59733 15.1595 5.33867 15.1595 5.008C15.1595 4.66133 15.2381 4.40133 15.3955 4.228C15.5555 4.05467 15.7808 3.968 16.0715 3.968C16.2875 3.968 16.4635 4.012 16.5995 4.1C16.7355 4.18533 16.8355 4.30667 16.8995 4.464C16.9635 4.61867 16.9955 4.8 16.9955 5.008C16.9955 5.336 16.9155 5.59333 16.7555 5.78C16.5981 5.96667 16.3728 6.06 16.0795 6.06ZM16.0755 5.796C16.2381 5.796 16.3648 5.76133 16.4555 5.692C16.5461 5.62 16.6101 5.52533 16.6475 5.408C16.6875 5.288 16.7075 5.15467 16.7075 5.008C16.7075 4.77067 16.6608 4.58267 16.5675 4.444C16.4741 4.30267 16.3101 4.232 16.0755 4.232C15.9155 4.232 15.7901 4.26667 15.6995 4.336C15.6088 4.40533 15.5435 4.49867 15.5035 4.616C15.4661 4.73067 15.4475 4.86133 15.4475 5.008C15.4475 5.24267 15.4941 5.43333 15.5875 5.58C15.6808 5.724 15.8435 5.796 16.0755 5.796ZM18.3488 6.06C18.0421 6.06 17.8128 5.96933 17.6608 5.788C17.5115 5.60667 17.4368 5.36267 17.4368 5.056C17.4368 4.82667 17.4675 4.64133 17.5288 4.5C17.5901 4.356 17.6688 4.24667 17.7648 4.172C17.8635 4.09467 17.9701 4.04267 18.0848 4.016C18.2021 3.98667 18.3155 3.972 18.4248 3.972C18.5501 3.972 18.6688 3.98933 18.7808 4.024C18.8955 4.056 18.9888 4.108 19.0608 4.18C19.1355 4.252 19.1728 4.348 19.1728 4.468V6.084C19.1728 6.164 19.1608 6.24533 19.1368 6.328C19.1128 6.41067 19.0688 6.48667 19.0048 6.556C18.9435 6.628 18.8555 6.68533 18.7408 6.728C18.6288 6.77067 18.4835 6.792 18.3048 6.792C18.1901 6.792 18.0848 6.78133 17.9888 6.76C17.8928 6.73867 17.8088 6.71867 17.7368 6.7V6.428C17.8008 6.44667 17.8781 6.46667 17.9688 6.488C18.0595 6.50933 18.1608 6.52 18.2728 6.52C18.4541 6.52 18.5875 6.49733 18.6728 6.452C18.7608 6.40933 18.8181 6.35467 18.8448 6.288C18.8715 6.224 18.8848 6.15867 18.8848 6.092V5.944C18.8021 5.976 18.7101 6.00267 18.6088 6.024C18.5075 6.048 18.4208 6.06 18.3488 6.06ZM18.3488 5.796C18.4341 5.796 18.5235 5.78533 18.6168 5.764C18.7128 5.74 18.8021 5.704 18.8848 5.656V4.508C18.8848 4.43333 18.8635 4.37733 18.8208 4.34C18.7808 4.3 18.7261 4.27333 18.6568 4.26C18.5875 4.244 18.5128 4.236 18.4328 4.236C18.2381 4.236 18.0915 4.27467 17.9928 4.352C17.8941 4.42667 17.8275 4.52667 17.7928 4.652C17.7581 4.77733 17.7408 4.912 17.7408 5.056C17.7408 5.27467 17.7875 5.45333 17.8808 5.592C17.9741 5.728 18.1301 5.796 18.3488 5.796Z" fill="#C80000"/>
<path d="M33.7253 6.032C33.584 6.032 33.4653 5.98933 33.3693 5.904C33.2733 5.816 33.2253 5.68667 33.2253 5.516V4.268H32.8773V4.004H33.2253V3.44H33.5133V4.004H34.0293V4.268H33.5133V5.424C33.5133 5.536 33.5307 5.62 33.5653 5.676C33.6 5.732 33.6707 5.76 33.7773 5.76C33.876 5.76 33.96 5.744 34.0293 5.712V5.984C33.992 5.99733 33.944 6.008 33.8853 6.016C33.8293 6.02667 33.776 6.032 33.7253 6.032ZM35.3705 6.06C35.0585 6.06 34.8265 5.968 34.6745 5.784C34.5251 5.59733 34.4505 5.33867 34.4505 5.008C34.4505 4.66133 34.5291 4.40133 34.6865 4.228C34.8465 4.05467 35.0718 3.968 35.3625 3.968C35.5785 3.968 35.7545 4.012 35.8905 4.1C36.0265 4.18533 36.1265 4.30667 36.1905 4.464C36.2545 4.61867 36.2865 4.8 36.2865 5.008C36.2865 5.336 36.2065 5.59333 36.0465 5.78C35.8891 5.96667 35.6638 6.06 35.3705 6.06ZM35.3665 5.796C35.5291 5.796 35.6558 5.76133 35.7465 5.692C35.8371 5.62 35.9011 5.52533 35.9385 5.408C35.9785 5.288 35.9985 5.15467 35.9985 5.008C35.9985 4.77067 35.9518 4.58267 35.8585 4.444C35.7651 4.30267 35.6011 4.232 35.3665 4.232C35.2065 4.232 35.0811 4.26667 34.9905 4.336C34.8998 4.40533 34.8345 4.49867 34.7945 4.616C34.7571 4.73067 34.7385 4.86133 34.7385 5.008C34.7385 5.24267 34.7851 5.43333 34.8785 5.58C34.9718 5.724 35.1345 5.796 35.3665 5.796ZM38.816 6.06C38.72 6.06 38.6186 6.04533 38.512 6.016C38.4053 5.98933 38.304 5.93867 38.208 5.864C38.1146 5.78667 38.0373 5.67733 37.976 5.536C37.9173 5.392 37.888 5.20533 37.888 4.976C37.888 4.66667 37.9626 4.42267 38.112 4.244C38.264 4.06267 38.4933 3.972 38.8 3.972C38.872 3.972 38.9586 3.984 39.06 4.008C39.1613 4.02933 39.2533 4.056 39.336 4.088V3.16H39.624V5.656C39.624 5.73067 39.5973 5.79467 39.544 5.848C39.4933 5.89867 39.4266 5.94 39.344 5.972C39.2613 6.00133 39.1733 6.02267 39.08 6.036C38.9866 6.052 38.8986 6.06 38.816 6.06ZM38.82 5.796C38.9586 5.796 39.0786 5.78 39.18 5.748C39.284 5.716 39.336 5.676 39.336 5.628V4.376C39.2533 4.328 39.164 4.29333 39.068 4.272C38.9746 4.248 38.8853 4.236 38.8 4.236C38.5813 4.236 38.4253 4.30533 38.332 4.444C38.2386 4.58 38.192 4.75733 38.192 4.976C38.192 5.12 38.208 5.25467 38.24 5.38C38.272 5.50267 38.3333 5.60267 38.424 5.68C38.5146 5.75733 38.6466 5.796 38.82 5.796ZM41.0853 6.06C40.7733 6.06 40.5413 5.968 40.3893 5.784C40.24 5.59733 40.1653 5.33867 40.1653 5.008C40.1653 4.66133 40.244 4.40133 40.4013 4.228C40.5613 4.05467 40.7866 3.968 41.0773 3.968C41.2933 3.968 41.4693 4.012 41.6053 4.1C41.7413 4.18533 41.8413 4.30667 41.9053 4.464C41.9693 4.61867 42.0013 4.8 42.0013 5.008C42.0013 5.336 41.9213 5.59333 41.7613 5.78C41.604 5.96667 41.3786 6.06 41.0853 6.06ZM41.0813 5.796C41.244 5.796 41.3706 5.76133 41.4613 5.692C41.552 5.62 41.616 5.52533 41.6533 5.408C41.6933 5.288 41.7133 5.15467 41.7133 5.008C41.7133 4.77067 41.6666 4.58267 41.5733 4.444C41.48 4.30267 41.316 4.232 41.0813 4.232C40.9213 4.232 40.796 4.26667 40.7053 4.336C40.6146 4.40533 40.5493 4.49867 40.5093 4.616C40.472 4.73067 40.4533 4.86133 40.4533 5.008C40.4533 5.24267 40.5 5.43333 40.5933 5.58C40.6866 5.724 40.8493 5.796 41.0813 5.796Z" fill="#C80000"/>
<path d="M52.9196 3.648V3.332H53.2396V3.648H52.9196ZM52.9356 6V4.004H53.2236V6H52.9356ZM53.8805 4.164C54.1392 4.03333 54.4205 3.968 54.7245 3.968C55.0152 3.968 55.2192 4.032 55.3365 4.16C55.4565 4.288 55.5165 4.468 55.5165 4.7V6H55.2285V4.7C55.2285 4.652 55.2219 4.60133 55.2085 4.548C55.1979 4.49467 55.1752 4.444 55.1405 4.396C55.1059 4.34533 55.0525 4.30533 54.9805 4.276C54.9085 4.244 54.8125 4.228 54.6925 4.228C54.5272 4.228 54.3525 4.25467 54.1685 4.308V6H53.8805V4.164ZM58.102 6.056C58.03 6.056 57.9487 6.044 57.858 6.02C57.7674 5.99867 57.6834 5.972 57.606 5.94V6.868H57.318V4.364C57.318 4.28133 57.3434 4.21467 57.394 4.164C57.4474 4.11333 57.5154 4.07467 57.598 4.048C57.6807 4.01867 57.7687 3.99867 57.862 3.988C57.9554 3.97467 58.0434 3.968 58.126 3.968C58.286 3.968 58.4367 4.00133 58.578 4.068C58.7194 4.13467 58.834 4.248 58.922 4.408C59.01 4.56533 59.054 4.78 59.054 5.052C59.054 5.35867 58.9727 5.60267 58.81 5.784C58.6474 5.96533 58.4114 6.056 58.102 6.056ZM58.102 5.792C58.3207 5.792 58.4834 5.724 58.59 5.588C58.6967 5.44933 58.75 5.27067 58.75 5.052C58.75 4.908 58.734 4.77333 58.702 4.648C58.67 4.52267 58.6087 4.42267 58.518 4.348C58.4274 4.27067 58.2954 4.232 58.122 4.232C57.9834 4.232 57.862 4.248 57.758 4.28C57.6567 4.312 57.606 4.35733 57.606 4.416V5.652C57.766 5.74533 57.9314 5.792 58.102 5.792ZM59.5954 6V4.164C59.6274 4.15067 59.6887 4.128 59.7794 4.096C59.8727 4.064 59.9834 4.03467 60.1114 4.008C60.2421 3.98133 60.3767 3.968 60.5154 3.968C60.5367 3.968 60.5581 3.97067 60.5794 3.976C60.6007 3.98133 60.6221 3.98667 60.6434 3.992V4.248C60.5047 4.232 60.3741 4.232 60.2514 4.248C60.1287 4.264 60.0061 4.28267 59.8834 4.304V6H59.5954ZM61.7826 6.06C61.4706 6.06 61.2386 5.968 61.0866 5.784C60.9372 5.59733 60.8626 5.33867 60.8626 5.008C60.8626 4.66133 60.9412 4.40133 61.0986 4.228C61.2586 4.05467 61.4839 3.968 61.7746 3.968C61.9906 3.968 62.1666 4.012 62.3026 4.1C62.4386 4.18533 62.5386 4.30667 62.6026 4.464C62.6666 4.61867 62.6986 4.8 62.6986 5.008C62.6986 5.336 62.6186 5.59333 62.4586 5.78C62.3012 5.96667 62.0759 6.06 61.7826 6.06ZM61.7786 5.796C61.9412 5.796 62.0679 5.76133 62.1586 5.692C62.2492 5.62 62.3132 5.52533 62.3506 5.408C62.3906 5.288 62.4106 5.15467 62.4106 5.008C62.4106 4.77067 62.3639 4.58267 62.2706 4.444C62.1772 4.30267 62.0132 4.232 61.7786 4.232C61.6186 4.232 61.4932 4.26667 61.4026 4.336C61.3119 4.40533 61.2466 4.49867 61.2066 4.616C61.1692 4.73067 61.1506 4.86133 61.1506 5.008C61.1506 5.24267 61.1972 5.43333 61.2906 5.58C61.3839 5.724 61.5466 5.796 61.7786 5.796ZM64.0519 6.06C63.7453 6.06 63.5159 5.96933 63.3639 5.788C63.2146 5.60667 63.1399 5.36267 63.1399 5.056C63.1399 4.82667 63.1706 4.64133 63.2319 4.5C63.2933 4.356 63.3719 4.24667 63.4679 4.172C63.5666 4.09467 63.6733 4.04267 63.7879 4.016C63.9053 3.98667 64.0186 3.972 64.1279 3.972C64.2533 3.972 64.3719 3.98933 64.4839 4.024C64.5986 4.056 64.6919 4.108 64.7639 4.18C64.8386 4.252 64.8759 4.348 64.8759 4.468V6.084C64.8759 6.164 64.8639 6.24533 64.8399 6.328C64.8159 6.41067 64.7719 6.48667 64.7079 6.556C64.6466 6.628 64.5586 6.68533 64.4439 6.728C64.3319 6.77067 64.1866 6.792 64.0079 6.792C63.8933 6.792 63.7879 6.78133 63.6919 6.76C63.5959 6.73867 63.5119 6.71867 63.4399 6.7V6.428C63.5039 6.44667 63.5813 6.46667 63.6719 6.488C63.7626 6.50933 63.8639 6.52 63.9759 6.52C64.1573 6.52 64.2906 6.49733 64.3759 6.452C64.4639 6.40933 64.5213 6.35467 64.5479 6.288C64.5746 6.224 64.5879 6.15867 64.5879 6.092V5.944C64.5053 5.976 64.4133 6.00267 64.3119 6.024C64.2106 6.048 64.1239 6.06 64.0519 6.06ZM64.0519 5.796C64.1373 5.796 64.2266 5.78533 64.3199 5.764C64.4159 5.74 64.5053 5.704 64.5879 5.656V4.508C64.5879 4.43333 64.5666 4.37733 64.5239 4.34C64.4839 4.3 64.4293 4.27333 64.3599 4.26C64.2906 4.244 64.2159 4.236 64.1359 4.236C63.9413 4.236 63.7946 4.27467 63.6959 4.352C63.5973 4.42667 63.5306 4.52667 63.4959 4.652C63.4613 4.77733 63.4439 4.912 63.4439 5.056C63.4439 5.27467 63.4906 5.45333 63.5839 5.592C63.6773 5.728 63.8333 5.796 64.0519 5.796ZM65.5173 6V4.164C65.5493 4.15067 65.6106 4.128 65.7013 4.096C65.7946 4.064 65.9053 4.03467 66.0333 4.008C66.1639 3.98133 66.2986 3.968 66.4373 3.968C66.4586 3.968 66.4799 3.97067 66.5013 3.976C66.5226 3.98133 66.5439 3.98667 66.5653 3.992V4.248C66.4266 4.232 66.2959 4.232 66.1733 4.248C66.0506 4.264 65.9279 4.28267 65.8053 4.304V6H65.5173ZM67.7085 6.06C67.4231 6.06 67.1978 5.972 67.0325 5.796C66.8671 5.61733 66.7845 5.352 66.7845 5C66.7845 4.656 66.8618 4.39867 67.0165 4.228C67.1738 4.05467 67.3885 3.968 67.6605 3.968C67.8738 3.968 68.0445 4.016 68.1725 4.112C68.3031 4.208 68.3965 4.33733 68.4525 4.5C68.5085 4.66267 68.5351 4.84667 68.5325 5.052H67.0765C67.0765 5.29467 67.1325 5.48 67.2445 5.608C67.3591 5.73333 67.5191 5.796 67.7245 5.796C67.8711 5.796 68.0005 5.78 68.1125 5.748C68.2271 5.716 68.3258 5.67467 68.4085 5.624V5.92C68.2138 6.01333 67.9805 6.06 67.7085 6.06ZM67.6605 4.232C67.4925 4.232 67.3618 4.272 67.2685 4.352C67.1751 4.42933 67.1151 4.57467 67.0885 4.788H68.2285C68.2178 4.60133 68.1658 4.46267 68.0725 4.372C67.9791 4.27867 67.8418 4.232 67.6605 4.232ZM69.636 6.06C69.492 6.06 69.3706 6.04533 69.272 6.016C69.176 5.98667 69.076 5.94533 68.972 5.892V5.588C69.0946 5.65733 69.2 5.70933 69.288 5.744C69.3786 5.77867 69.488 5.796 69.616 5.796C69.7493 5.796 69.8573 5.76667 69.94 5.708C70.0253 5.64933 70.068 5.57333 70.068 5.48C70.068 5.40533 70.0466 5.348 70.004 5.308C69.964 5.268 69.912 5.23467 69.848 5.208C69.784 5.18133 69.7173 5.15333 69.648 5.124C69.5706 5.10267 69.492 5.08 69.412 5.056C69.3346 5.02933 69.2626 4.996 69.196 4.956C69.132 4.91333 69.08 4.86 69.04 4.796C69 4.72933 68.98 4.644 68.98 4.54C68.98 4.404 69.0146 4.29467 69.084 4.212C69.1533 4.12667 69.2413 4.06533 69.348 4.028C69.4573 3.988 69.5666 3.968 69.676 3.968C69.796 3.968 69.8986 3.984 69.984 4.016C70.0693 4.048 70.1573 4.084 70.248 4.124V4.412C70.1466 4.35867 70.056 4.316 69.976 4.284C69.896 4.24933 69.8013 4.232 69.692 4.232C69.5826 4.232 69.484 4.25467 69.396 4.3C69.3106 4.34267 69.268 4.40933 69.268 4.5C69.268 4.57467 69.2893 4.63467 69.332 4.68C69.3773 4.72267 69.436 4.75733 69.508 4.784C69.58 4.808 69.6573 4.832 69.74 4.856C69.8066 4.87733 69.876 4.90133 69.948 4.928C70.02 4.952 70.0866 4.98533 70.148 5.028C70.2093 5.068 70.2586 5.12133 70.296 5.188C70.336 5.25467 70.356 5.34 70.356 5.444C70.356 5.58533 70.32 5.70267 70.248 5.796C70.176 5.88667 70.084 5.95333 69.972 5.996C69.8626 6.03867 69.7506 6.06 69.636 6.06ZM71.4602 6.06C71.3162 6.06 71.1948 6.04533 71.0962 6.016C71.0002 5.98667 70.9002 5.94533 70.7962 5.892V5.588C70.9188 5.65733 71.0242 5.70933 71.1122 5.744C71.2028 5.77867 71.3122 5.796 71.4402 5.796C71.5735 5.796 71.6815 5.76667 71.7642 5.708C71.8495 5.64933 71.8922 5.57333 71.8922 5.48C71.8922 5.40533 71.8708 5.348 71.8282 5.308C71.7882 5.268 71.7362 5.23467 71.6722 5.208C71.6082 5.18133 71.5415 5.15333 71.4722 5.124C71.3948 5.10267 71.3162 5.08 71.2362 5.056C71.1588 5.02933 71.0868 4.996 71.0202 4.956C70.9562 4.91333 70.9042 4.86 70.8642 4.796C70.8242 4.72933 70.8042 4.644 70.8042 4.54C70.8042 4.404 70.8388 4.29467 70.9082 4.212C70.9775 4.12667 71.0655 4.06533 71.1722 4.028C71.2815 3.988 71.3908 3.968 71.5002 3.968C71.6202 3.968 71.7228 3.984 71.8082 4.016C71.8935 4.048 71.9815 4.084 72.0722 4.124V4.412C71.9708 4.35867 71.8802 4.316 71.8002 4.284C71.7202 4.24933 71.6255 4.232 71.5162 4.232C71.4068 4.232 71.3082 4.25467 71.2202 4.3C71.1348 4.34267 71.0922 4.40933 71.0922 4.5C71.0922 4.57467 71.1135 4.63467 71.1562 4.68C71.2015 4.72267 71.2602 4.75733 71.3322 4.784C71.4042 4.808 71.4815 4.832 71.5642 4.856C71.6308 4.87733 71.7002 4.90133 71.7722 4.928C71.8442 4.952 71.9108 4.98533 71.9722 5.028C72.0335 5.068 72.0828 5.12133 72.1202 5.188C72.1602 5.25467 72.1802 5.34 72.1802 5.444C72.1802 5.58533 72.1442 5.70267 72.0722 5.796C72.0002 5.88667 71.9082 5.95333 71.7962 5.996C71.6868 6.03867 71.5748 6.06 71.4602 6.06Z" fill="#C80000"/>
<path d="M84.1382 6.06C84.0422 6.06 83.9409 6.04533 83.8342 6.016C83.7276 5.98933 83.6262 5.93867 83.5302 5.864C83.4369 5.78667 83.3596 5.67733 83.2982 5.536C83.2396 5.392 83.2102 5.20533 83.2102 4.976C83.2102 4.66667 83.2849 4.42267 83.4342 4.244C83.5862 4.06267 83.8156 3.972 84.1222 3.972C84.1942 3.972 84.2809 3.984 84.3822 4.008C84.4836 4.02933 84.5756 4.056 84.6582 4.088V3.16H84.9462V5.656C84.9462 5.73067 84.9196 5.79467 84.8662 5.848C84.8156 5.89867 84.7489 5.94 84.6662 5.972C84.5836 6.00133 84.4956 6.02267 84.4022 6.036C84.3089 6.052 84.2209 6.06 84.1382 6.06ZM84.1422 5.796C84.2809 5.796 84.4009 5.78 84.5022 5.748C84.6062 5.716 84.6582 5.676 84.6582 5.628V4.376C84.5756 4.328 84.4862 4.29333 84.3902 4.272C84.2969 4.248 84.2076 4.236 84.1222 4.236C83.9036 4.236 83.7476 4.30533 83.6542 4.444C83.5609 4.58 83.5142 4.75733 83.5142 4.976C83.5142 5.12 83.5302 5.25467 83.5622 5.38C83.5942 5.50267 83.6556 5.60267 83.7462 5.68C83.8369 5.75733 83.9689 5.796 84.1422 5.796ZM86.4076 6.06C86.0956 6.06 85.8636 5.968 85.7116 5.784C85.5622 5.59733 85.4876 5.33867 85.4876 5.008C85.4876 4.66133 85.5662 4.40133 85.7236 4.228C85.8836 4.05467 86.1089 3.968 86.3996 3.968C86.6156 3.968 86.7916 4.012 86.9276 4.1C87.0636 4.18533 87.1636 4.30667 87.2276 4.464C87.2916 4.61867 87.3236 4.8 87.3236 5.008C87.3236 5.336 87.2436 5.59333 87.0836 5.78C86.9262 5.96667 86.7009 6.06 86.4076 6.06ZM86.4036 5.796C86.5662 5.796 86.6929 5.76133 86.7836 5.692C86.8742 5.62 86.9382 5.52533 86.9756 5.408C87.0156 5.288 87.0356 5.15467 87.0356 5.008C87.0356 4.77067 86.9889 4.58267 86.8956 4.444C86.8022 4.30267 86.6382 4.232 86.4036 4.232C86.2436 4.232 86.1182 4.26667 86.0276 4.336C85.9369 4.40533 85.8716 4.49867 85.8316 4.616C85.7942 4.73067 85.7756 4.86133 85.7756 5.008C85.7756 5.24267 85.8222 5.43333 85.9156 5.58C86.0089 5.724 86.1716 5.796 86.4036 5.796ZM87.8649 4.164C88.1236 4.03333 88.4049 3.968 88.7089 3.968C88.9996 3.968 89.2036 4.032 89.3209 4.16C89.4409 4.288 89.5009 4.468 89.5009 4.7V6H89.2129V4.7C89.2129 4.652 89.2063 4.60133 89.1929 4.548C89.1823 4.49467 89.1596 4.444 89.1249 4.396C89.0903 4.34533 89.0369 4.30533 88.9649 4.276C88.8929 4.244 88.7969 4.228 88.6769 4.228C88.5116 4.228 88.3369 4.25467 88.1529 4.308V6H87.8649V4.164ZM90.9663 6.06C90.6809 6.06 90.4556 5.972 90.2903 5.796C90.1249 5.61733 90.0423 5.352 90.0423 5C90.0423 4.656 90.1196 4.39867 90.2743 4.228C90.4316 4.05467 90.6463 3.968 90.9183 3.968C91.1316 3.968 91.3023 4.016 91.4303 4.112C91.5609 4.208 91.6543 4.33733 91.7103 4.5C91.7663 4.66267 91.7929 4.84667 91.7903 5.052H90.3343C90.3343 5.29467 90.3903 5.48 90.5023 5.608C90.6169 5.73333 90.7769 5.796 90.9823 5.796C91.1289 5.796 91.2583 5.78 91.3703 5.748C91.4849 5.716 91.5836 5.67467 91.6663 5.624V5.92C91.4716 6.01333 91.2383 6.06 90.9663 6.06ZM90.9183 4.232C90.7503 4.232 90.6196 4.272 90.5263 4.352C90.4329 4.42933 90.3729 4.57467 90.3463 4.788H91.4863C91.4756 4.60133 91.4236 4.46267 91.3303 4.372C91.2369 4.27867 91.0996 4.232 90.9183 4.232Z" fill="#C80000"/>
<path d="M8 14H18M9 16H17M17 18H9M12 20H17M12 22H17M7 12H19V24H7V12ZM9 20V22H11V20H9Z" stroke="#C80000"/>
<path d="M8 29H18M9 31H17M17 33H9M12 35H17M12 37H17M7 27H19V39H7V27ZM9 35V37H11V35H9Z" stroke="#C80000"/>
<path d="M33 14H43M34 16H42M42 18H34M37 20H42M37 22H42M32 12H44V24H32V12ZM34 20V22H36V20H34Z" stroke="#C80000"/>
<path d="M58 14H68M59 16H67M67 18H59M62 20H67M62 22H67M57 12H69V24H57V12ZM59 20V22H61V20H59Z" stroke="#C80000"/>
<path d="M58 29H68M59 31H67M67 33H59M62 35H67M62 37H67M57 27H69V39H57V27ZM59 35V37H61V35H59Z" stroke="#C80000"/>
<path d="M83 14H93M84 16H92M92 18H84M87 20H92M87 22H92M82 12H94V24H82V12ZM84 20V22H86V20H84Z" stroke="#C80000"/>
<path d="M83 29H93M84 31H92M92 33H84M87 35H92M87 37H92M82 27H94V39H82V27ZM84 35V37H86V35H84Z" stroke="#C80000"/>
<path d="M83 44H93M84 46H92M92 48H84M87 50H92M87 52H92M82 42H94V54H82V42ZM84 50V52H86V50H84Z" stroke="#C80000"/>
</g>
<defs>
<clipPath id="clip0">
<rect width="100" height="50" fill="white"/>
</clipPath>
</defs>
</svg>
