<svg fill="none" height="33" viewBox="0 0 33 33" width="33" xmlns="http://www.w3.org/2000/svg" xmlns:xlink="http://www.w3.org/1999/xlink"><linearGradient id="a" gradientUnits="userSpaceOnUse" x1="16.0133" x2="16.0133" y1="28.68" y2="4.30798"><stop offset="0" stop-color="#fff" stop-opacity=".4"/><stop offset=".11" stop-color="#fff" stop-opacity=".54"/><stop offset=".25" stop-color="#fff" stop-opacity=".71"/><stop offset=".39" stop-color="#fff" stop-opacity=".83"/><stop offset=".52" stop-color="#fff" stop-opacity=".93"/><stop offset=".64" stop-color="#fff" stop-opacity=".98"/><stop offset=".75" stop-color="#fff"/></linearGradient><path clip-rule="evenodd" d="m25.3013 4.30798h-18.57605c-.76843.00106-1.50503.30707-2.04802.85081s-.84798 1.28076-.84798 2.04919v18.57602c0 .7681.30512 1.5047.84822 2.0478.54311.5431 1.27972.8482 2.04778.8482h18.57605c.7684 0 1.5054-.305 2.0492-.848.5437-.543.8497-1.2796.8508-2.048v-18.57602c-.0011-.7688-.307-1.50581-.8506-2.04944-.5436-.54362-1.2806-.8495-2.0494-.85056zm-10.976 17.55602c.0005.1264-.024.2517-.072.3686s-.1186.2232-.2078.3128-.1952.1606-.3119.2091c-.1168.0485-.2419.0735-.3683.0735h-4.07605c-.1264 0-.25156-.025-.3683-.0735-.11673-.0485-.22274-.1195-.31194-.2091-.08919-.0896-.15982-.1959-.20783-.3128s-.07245-.2422-.07193-.3686v-12.09202c-.00052-.1264.02392-.25167.07193-.3686.04801-.11694.11864-.22324.20783-.31281.0892-.08956.19521-.16064.31194-.20913.11674-.04849.2419-.07346.3683-.07346h4.07605c.1264 0 .2515.02497.3683.07346.1167.04849.2227.11957.3119.20913.0892.08957.1598.19587.2078.31281.048.11693.0725.2422.072.3686zm9.376-5.552c0 .2557-.1016.5008-.2824.6816s-.426.2824-.6816.2824h-4.072c-.2557 0-.5009-.1016-.6817-.2824s-.2823-.4259-.2823-.6816v-6.54002c0-.25567.1015-.50086.2823-.68165.1808-.18078.426-.28235.6817-.28235h4.072c.2556 0 .5008.10157.6816.28235.1808.18079.2824.42598.2824.68165z" fill="url(#a)" fill-rule="evenodd"/></svg>