<svg width="128" height="128" viewBox="0 0 128 128" fill="none" xmlns="http://www.w3.org/2000/svg">
<rect width="128" height="128" fill="white"/>
<path fill-rule="evenodd" clip-rule="evenodd" d="M98.1955 19H28.8045C25.9377 19.0039 23.1895 20.1458 21.1637 22.175C19.1379 24.2042 18 26.9548 18 29.8226V99.1483C17.9962 100.571 18.2727 101.98 18.8138 103.295C19.3549 104.611 20.1499 105.807 21.1534 106.815C22.1569 107.823 23.3491 108.623 24.662 109.169C25.9748 109.716 27.3825 109.998 28.8045 110H98.1955C99.6174 109.998 101.025 109.716 102.338 109.169C103.651 108.623 104.843 107.823 105.847 106.815C106.85 105.807 107.645 104.611 108.186 103.295C108.727 101.98 109.004 100.571 109 99.1483V29.8226C109 26.9548 107.862 24.2042 105.836 22.175C103.81 20.1458 101.062 19.0039 98.1955 19ZM57.2229 84.5626C57.221 85.0362 57.1254 85.5048 56.9415 85.9414C56.7576 86.3779 56.4892 86.7736 56.1516 87.1059C55.8141 87.4382 55.4143 87.7001 54.975 87.877C54.5356 88.0538 54.0657 88.1419 53.5922 88.1361H38.428C37.4778 88.1361 36.5662 87.7605 35.8917 87.0912C35.217 86.4218 34.8341 85.513 34.8265 84.5626V39.347C34.8303 38.394 35.2115 37.4815 35.8864 36.809C36.5615 36.1366 37.4753 35.7589 38.428 35.7589H53.5922C54.0669 35.7531 54.5381 35.8416 54.9783 36.0194C55.4185 36.1971 55.8192 36.4605 56.1569 36.7942C56.4946 37.1281 56.7627 37.5256 56.9457 37.9637C57.1287 38.4019 57.2229 38.8721 57.2229 39.347V84.5626ZM92.2173 63.8364C92.2135 64.3095 92.1165 64.7771 91.9319 65.2128C91.7475 65.6485 91.4789 66.0435 91.1418 66.3753C90.8047 66.7071 90.4054 66.9694 89.967 67.1469C89.5287 67.3244 89.0595 67.4136 88.5866 67.4098H73.4078C72.4564 67.4098 71.5441 67.0318 70.8714 66.3589C70.1988 65.686 69.8209 64.7733 69.8209 63.8218V39.347C69.8209 38.3954 70.1988 37.4828 70.8714 36.8098C71.5441 36.137 72.4564 35.7589 73.4078 35.7589H88.5866C89.0608 35.7551 89.531 35.845 89.9703 36.0234C90.4098 36.2018 90.8096 36.4652 91.1469 36.7986C91.4843 37.132 91.7524 37.5288 91.9361 37.966C92.1199 38.4033 92.2154 38.8727 92.2173 39.347V63.8364Z" fill="url(#paint0_linear_2035_470)"/>
<defs>
<linearGradient id="paint0_linear_2035_470" x1="63.5219" y1="143.285" x2="63.5219" y2="52.2845" gradientUnits="userSpaceOnUse">
<stop stop-color="#42526E"/>
<stop offset="1" stop-color="#7A869A"/>
</linearGradient>
</defs>
</svg>
