<svg width="279" height="98" viewBox="0 0 279 98" fill="none" xmlns="http://www.w3.org/2000/svg">
<path d="M86.2002 68.2001V23.2001L47.2002 0.7001V18.0001L62.5002 26.8001C63.1002 27.1001 63.1002 28.0001 62.5002 28.3001L44.3002 38.8001C43.8002 39.1001 43.1002 39.1001 42.6002 38.8001L24.4002 28.2001C23.8002 27.9001 23.8002 27.0001 24.4002 26.7001L39.7002 17.9001V0.600098L0.700195 23.1001V68.2001V68.0001V68.2001L15.7002 59.6001V41.9001C15.7002 41.3001 16.4002 40.8001 17.0002 41.2001L35.2002 51.7001C35.7002 52.0001 36.1002 52.6001 36.1002 53.2001V74.2001C36.1002 74.8001 35.4002 75.3001 34.8002 74.9001L19.5002 66.1001L4.50019 74.7001L43.5002 97.2001L82.5002 74.7001L67.5002 66.1001L52.2002 74.9001C51.7002 75.2001 50.9002 74.8001 50.9002 74.2001V53.2001C50.9002 52.6001 51.2002 52.0001 51.8002 51.7001L70.0002 41.2001C70.5002 40.9001 71.3002 41.3001 71.3002 41.9001V59.6001L86.2002 68.2001Z" fill="#4C4C4C"/>
<path d="M43.4001 97.3002L82.4001 74.8002L67.4001 66.2002L52.1001 75.0002C51.6001 75.3002 50.8001 74.9002 50.8001 74.3002V53.3002C50.8001 52.7002 51.1001 52.1002 51.7001 51.8002L69.9001 41.3002C70.4001 41.0002 71.2001 41.4002 71.2001 42.0002V59.7002L86.2001 68.3002V23.2002L43.4001 47.9002V97.3002Z" fill="black"/>
<path d="M47.1002 0.600098V17.9001L62.4002 26.7001C63.0002 27.0001 63.0002 27.9001 62.4002 28.2001L44.2002 38.7001C43.7002 39.0001 43.0002 39.0001 42.5002 38.7001L24.4002 28.2001C23.8002 27.9001 23.8002 27.0001 24.4002 26.7001L39.7002 17.9001V0.600098L0.700195 23.1001L43.5002 47.8001L86.3002 23.1001L47.1002 0.600098Z" fill="#808080"/>
<path d="M34.6001 74.9002L19.3001 66.1002L4.3001 74.7002L43.3001 97.2002V47.8002L0.600098 23.2002V68.3002V68.1002V68.3002L15.6001 59.7002V42.0002C15.6001 41.4002 16.3001 40.9002 16.9001 41.3002L35.1001 51.8002C35.6001 52.1002 36.0001 52.7002 36.0001 53.3002V74.3002C35.9001 74.8002 35.2001 75.2002 34.6001 74.9002Z" fill="#4C4C4C"/>
<path d="M108.7 53.2003V25.8003H120.2V53.6003C120.2 58.1003 122.5 61.2003 128.2 61.2003C133.5 61.2003 136.1 58.0003 136.1 53.4003V25.8003H147.6V53.2003C147.6 63.9003 141.2 70.4003 128.2 70.4003C115.2 70.4003 108.7 64.1003 108.7 53.2003Z" fill="black"/>
<path d="M152.9 36.3003H163.1V40.8003H163.3C165.8 37.2003 169 35.3003 173.6 35.3003C180.9 35.3003 185.2 40.5003 185.2 47.9003V69.5003H174.6V50.1003C174.6 46.6003 172.8 44.2003 169.4 44.2003C165.9 44.2003 163.6 47.1003 163.6 51.2003V69.6003H153V36.3003H152.9Z" fill="black"/>
<path d="M190.6 23.2002H201.2V31.8002H190.6V23.2002ZM190.6 36.3002H201.2V69.6002H190.6V36.3002Z" fill="black"/>
<path d="M209.5 60.8003V44.9003H205.1V36.3003H209.5V25.8003H219.8V36.3003H225.8V44.9003H219.8V58.5003C219.8 61.1003 221.2 61.7003 223.5 61.7003C224.4 61.7003 225.4 61.6003 225.8 61.6003V69.3003C224.9 69.6003 222.9 69.8003 220 69.8003C213.9 70.0003 209.5 68.0003 209.5 60.8003Z" fill="black"/>
<path d="M232.4 72.3003H236C239.1 72.3003 240.4 71.1003 240.4 68.8003C240.4 67.4003 239.8 65.4003 238.4 61.9003L228.6 36.3003H239.8L244.3 50.5003C245.3 53.7003 246.4 58.2003 246.4 58.2003H246.5C246.5 58.2003 247.4 53.8003 248.4 50.5003L252.8 36.3003H263.4L251.9 70.0003C249.2 77.8003 246.1 80.5003 239.4 80.5003H232.5V72.3003H232.4Z" fill="black"/>
<path d="M277.9 38.9003C277.7 38.4003 277.4 37.9003 277 37.5003C276.6 37.1003 276.2 36.8003 275.6 36.6003C275.1 36.4003 274.5 36.3003 274 36.3003C273.5 36.3003 272.9 36.4003 272.4 36.6003C271.9 36.8003 271.4 37.1003 271 37.5003C270.6 37.9003 270.3 38.3003 270.1 38.9003C269.9 39.4003 269.8 40.0003 269.8 40.5003C269.8 41.1003 269.9 41.6003 270.1 42.1003C270.3 42.6003 270.6 43.1003 271 43.5003C271.4 43.9003 271.8 44.2003 272.4 44.4003C272.9 44.6003 273.5 44.7003 274 44.7003C274.5 44.7003 275.1 44.6003 275.6 44.4003C276.1 44.2003 276.6 43.9003 277 43.5003C277.4 43.1003 277.7 42.7003 277.9 42.1003C278.1 41.6003 278.2 41.0003 278.2 40.5003C278.2 40.0003 278.1 39.4003 277.9 38.9003ZM276.8 42.2003C276.5 42.7003 276.1 43.1003 275.6 43.4003C275.1 43.7003 274.6 43.8003 274 43.8003C273.4 43.8003 272.9 43.7003 272.4 43.4003C271.9 43.1003 271.5 42.7003 271.2 42.2003C270.9 41.7003 270.8 41.2003 270.8 40.6003C270.8 40.0003 270.9 39.5003 271.2 39.0003C271.5 38.5003 271.9 38.1003 272.4 37.8003C272.9 37.5003 273.4 37.4003 274 37.4003C274.6 37.4003 275.1 37.5003 275.6 37.8003C276.1 38.1003 276.5 38.5003 276.8 39.0003C277.1 39.5003 277.2 40.0003 277.2 40.6003C277.2 41.2003 277.1 41.7003 276.8 42.2003Z" fill="black"/>
<path d="M275.5 40.6002C275.6 40.4002 275.7 40.2002 275.7 39.9002C275.7 39.6002 275.6 39.4002 275.5 39.2002C275.4 39.0002 275.2 38.9002 275 38.8002C274.8 38.7002 274.6 38.7002 274.5 38.7002H272.5V42.6002H273.4V41.3002H274.3L275 42.6002H275.9L275.1 41.1002C275.2 40.9002 275.4 40.7002 275.5 40.6002ZM273.4 39.2002H274.2C274.3 39.2002 274.4 39.2002 274.6 39.3002C274.7 39.4002 274.8 39.5002 274.8 39.8002C274.8 40.0002 274.7 40.2002 274.6 40.3002C274.5 40.4002 274.3 40.5002 274.2 40.5002H273.4V39.2002Z" fill="black"/>
</svg>
