<svg width="100" height="100" viewBox="0 0 100 100" fill="none" xmlns="http://www.w3.org/2000/svg">
<mask id="mask0_3334_247" style="mask-type:luminance" maskUnits="userSpaceOnUse" x="0" y="0" width="100" height="100">
<path d="M100 0H0V100H100V0Z" fill="white"/>
</mask>
<g mask="url(#mask0_3334_247)">
<mask id="mask1_3334_247" style="mask-type:luminance" maskUnits="userSpaceOnUse" x="0" y="0" width="100" height="100">
<path d="M100 0H0V100H100V0Z" fill="white"/>
</mask>
<g mask="url(#mask1_3334_247)">
<path d="M91.0914 68.5359V25.2385L53.5947 3.59476V20.1961L68.3006 28.6928C68.4239 28.766 68.526 28.8701 68.5969 28.9947C68.6678 29.1193 68.705 29.2602 68.705 29.4036C68.705 29.547 68.6678 29.6879 68.5969 29.8125C68.526 29.9371 68.4239 30.0411 68.3006 30.1144L50.8235 40.1961C50.5751 40.3395 50.2933 40.415 50.0065 40.415C49.7197 40.415 49.4379 40.3395 49.1895 40.1961L31.7287 30.1144C31.6047 30.0413 31.5019 29.9372 31.4305 29.8122C31.3591 29.6873 31.3215 29.5459 31.3215 29.4019C31.3215 29.258 31.3591 29.1166 31.4305 28.9917C31.5019 28.8667 31.6047 28.7626 31.7287 28.6895L46.4346 20.2091V3.59476L8.90845 25.2385V68.5359L23.2875 60.232V43.2647C23.2895 43.1213 23.3288 42.981 23.4014 42.8573C23.474 42.7337 23.5775 42.6311 23.7018 42.5596C23.826 42.4881 23.9668 42.4501 24.1101 42.4494C24.2535 42.4487 24.3946 42.4853 24.5196 42.5555L41.9836 52.6405C42.2341 52.7843 42.4419 52.992 42.586 53.2422C42.7301 53.4925 42.8053 53.7765 42.8039 54.0653V74.2287C42.8024 74.3717 42.7638 74.5118 42.692 74.6355C42.6202 74.7591 42.5175 74.862 42.3941 74.9341C42.2706 75.0062 42.1306 75.0451 41.9876 75.0469C41.8446 75.0487 41.7036 75.0134 41.5784 74.9444L26.8725 66.4477L12.4934 74.7484L49.9999 96.4052L87.4967 74.7549L73.1176 66.4542L58.4117 74.9346C58.2866 75.0042 58.1456 75.0402 58.0024 75.0389C57.8592 75.0376 57.7188 74.9992 57.595 74.9274C57.4711 74.8556 57.368 74.7529 57.2958 74.6292C57.2236 74.5056 57.1847 74.3654 57.183 74.2222V54.0621C57.1819 53.773 57.2576 53.4887 57.4022 53.2384C57.5469 52.9881 57.7554 52.7806 58.0065 52.6372L75.4901 42.5555C75.6153 42.4851 75.7567 42.4486 75.9004 42.4494C76.044 42.4503 76.1849 42.4885 76.3093 42.5605C76.4336 42.6324 76.5371 42.7354 76.6095 42.8595C76.6819 42.9835 76.7207 43.1243 76.7222 43.268V60.232L91.0914 68.5359Z" fill="#CCCCCC"/>
<path d="M50 96.4052L87.4967 74.7549L73.1176 66.4542L58.4118 74.9346C58.2867 75.0042 58.1456 75.0402 58.0024 75.0389C57.8593 75.0376 57.7189 74.9992 57.595 74.9274C57.4712 74.8556 57.3681 74.7528 57.2959 74.6292C57.2236 74.5056 57.1848 74.3653 57.183 74.2222V54.0621C57.1819 53.7729 57.2576 53.4887 57.4023 53.2384C57.547 52.9881 57.7555 52.7806 58.0065 52.6372L75.4902 42.5555C75.6154 42.4851 75.7568 42.4485 75.9004 42.4494C76.0441 42.4503 76.185 42.4885 76.3093 42.5604C76.4337 42.6323 76.5372 42.7354 76.6096 42.8595C76.682 42.9835 76.7208 43.1243 76.7222 43.2679V60.232L91.1013 68.5359V25.2385L50 48.9608V96.4052Z" fill="#A6A6A6"/>
<path d="M53.5947 3.59476V20.1961L68.3006 28.6928C68.4239 28.766 68.526 28.8701 68.5969 28.9947C68.6678 29.1193 68.705 29.2602 68.705 29.4036C68.705 29.547 68.6678 29.6879 68.5969 29.8125C68.526 29.9371 68.4239 30.0411 68.3006 30.1144L50.8235 40.1961C50.5751 40.3395 50.2933 40.415 50.0065 40.415C49.7197 40.415 49.4379 40.3395 49.1895 40.1961L31.6993 30.1013C31.5761 30.0276 31.4741 29.9233 31.4033 29.7984C31.3325 29.6735 31.2952 29.5324 31.2952 29.3889C31.2952 29.2453 31.3325 29.1042 31.4033 28.9794C31.4741 28.8545 31.5761 28.7501 31.6993 28.6765L46.4052 20.1961V3.59476L8.90845 25.2385L49.9999 48.9608L91.0914 25.2385L53.5947 3.59476Z" fill="white"/>
<path d="M41.5817 74.9444L26.8758 66.4477L12.4967 74.7549L50 96.4052V48.9608L8.90845 25.2385V68.5359L23.2875 60.232V43.2647C23.2895 43.1213 23.3288 42.9809 23.4014 42.8573C23.474 42.7337 23.5775 42.6311 23.7018 42.5596C23.826 42.4881 23.9668 42.4501 24.1101 42.4494C24.2535 42.4487 24.3946 42.4852 24.5196 42.5555L41.9836 52.6405C42.2341 52.7843 42.4419 52.9919 42.586 53.2422C42.7301 53.4925 42.8053 53.7765 42.8039 54.0653V74.2287C42.8024 74.3717 42.7638 74.5118 42.692 74.6355C42.6202 74.7591 42.5175 74.862 42.3941 74.9341C42.2706 75.0062 42.1306 75.045 41.9876 75.0468C41.8446 75.0487 41.7036 75.0134 41.5784 74.9444" fill="#CCCCCC"/>
</g>
</g>
</svg>
