<svg width="3000" height="3001" viewBox="0 0 3000 3001" fill="none" xmlns="http://www.w3.org/2000/svg">
<g opacity="0.02">
<path fill-rule="evenodd" clip-rule="evenodd" d="M2680.05 1500.52C2680.05 2151.69 2152.17 2679.57 1501 2679.57C1102.88 2679.57 750.861 2482.22 537.417 2180.14L509.552 2213.26C731.271 2521.12 1092.74 2721.47 1501 2721.47C2175.31 2721.47 2721.95 2174.84 2721.95 1500.52C2721.95 1327.95 2686.17 1163.82 2621.64 1015.07H2575.78C2642.77 1163.15 2680.05 1327.51 2680.05 1500.52ZM2543.82 1015.07C2612.59 1162.56 2651 1327.05 2651 1500.52C2651 2135.65 2136.13 2650.52 1501 2650.52C1109.98 2650.52 764.541 2455.37 556.767 2157.15C551.017 2148.9 545.373 2140.57 539.836 2132.16L472.893 2211.71C698.539 2537.29 1074.87 2750.52 1501 2750.52C2191.35 2750.52 2751 2190.88 2751 1500.52C2751 1317.11 2711.5 1142.93 2640.54 986.022H2529.77C2534.58 995.628 2539.26 1005.31 2543.82 1015.07ZM484.07 773.474L551.476 851.552C557.118 843.313 562.865 835.152 568.714 827.069C777.635 538.355 1117.38 350.521 1501 350.521C1847.19 350.521 2157.65 503.49 2368.47 745.522H2497.31C2489.88 735.725 2482.3 726.042 2474.59 716.474C2245.46 432.309 1894.46 250.521 1501 250.521C1081.83 250.521 710.846 456.844 484.07 773.474ZM2436.98 716.474C2212.97 449.339 1876.82 279.569 1501 279.569C1099.78 279.569 743.748 473.071 521.141 771.965L549.222 804.491C763.701 511.694 1110.13 321.474 1501 321.474C1851.16 321.474 2165.69 474.153 2381.59 716.474H2436.98Z" fill="white"/>
<path d="M577 927.019L447.5 777.019L245 1371.52L390.5 2263.02L1142 1370.02L1282 956.019H2154L1770 2084.52L1802 2260.52L1954 2084.52L2337 956.019H2615.5L2755 775.519H1342.5L1109 929.019L962 1361.02L507.5 1916.52L431 1363.02L577 927.019Z" fill="white"/>
<path d="M1568.5 2074.52L1751.5 1955.52L1712 2074.52C1689.6 2171.72 1585.67 2216.35 1536.5 2226.52H1054.5C931.7 2226.52 943 2125.19 964 2074.52C1055.5 1807.69 1247.2 1247.82 1282 1143.02C1316.8 1038.22 1409.83 1006.69 1452 1004.02C1571.17 1005.02 1836.9 1006.42 1946.5 1004.02C2056.1 1001.62 2043.5 1103.69 2023.5 1155.02L1984 1274.52L1880 1155.02H1467C1436.2 1157.02 1420.5 1180.52 1416.5 1192.02C1324 1462.35 1137.1 2009.42 1129.5 2035.02C1121.9 2060.62 1140 2072.02 1150 2074.52H1568.5Z" fill="white"/>
<path d="M1635.5 1375.52L1694.43 1556.9H1885.15L1730.86 1669L1789.79 1850.39L1635.5 1738.28L1481.21 1850.39L1540.14 1669L1385.85 1556.9H1576.57L1635.5 1375.52Z" fill="white"/>
</g>
</svg>
