<svg width="202" height="198" viewBox="0 0 202 198" fill="none" xmlns="http://www.w3.org/2000/svg">
<g clip-path="url(#clip0_896_48)">
<path d="M172.93 48.0384H172.571L172.456 48.3777L159.529 86.4677L150.736 78.3126L160.813 48.6995L161.038 48.0384H160.339H118.094L105.782 36.62H200.67L191.845 48.0384H172.93ZM50.0418 40.5349L46.0844 35.951C61.6169 14.473 86.8831 0.5 115.413 0.5C142.868 0.5 167.3 13.4401 182.945 33.556H175.322C160.729 16.8992 139.299 6.38 115.413 6.38C88.3417 6.38 64.4264 19.8908 50.0418 40.5349ZM186.997 51.1024H193.49C198.26 61.7579 200.913 73.5685 200.913 86C200.913 97.6229 198.594 108.703 194.394 118.804L189.773 114.518C193.171 105.664 195.033 96.0487 195.033 86C195.033 73.4837 192.144 61.6407 186.997 51.1024Z" stroke="#C00136"/>
<path d="M124.666 77.4L128.721 89.8792H141.842L131.227 97.5917L135.282 110.071L124.666 102.358L114.051 110.071L118.106 97.5917L107.49 89.8792H120.612L124.666 77.4Z" fill="#C00136"/>
<path d="M51.8416 46.5432L42.932 36.2232L29 77.1248L39.0104 138.46L90.7136 77.0216L100.346 48.5384H117.898L104.508 36.12L88.4432 46.6808L78.3296 76.4024L47.06 114.621L41.7968 76.54L51.8416 46.5432Z" fill="#C00136"/>
<path d="M86 135.949L110.54 125.491H112L87.4602 135.949H86Z" fill="#C00136"/>
<path d="M84.6936 135.949C76.245 135.949 77.0224 128.977 78.4672 125.491C84.7624 107.133 97.9514 68.6142 100.346 61.404C102.74 54.1938 109.141 52.0243 112.042 51.8408C120.24 51.9096 138.523 52.0059 146.063 51.8408C153.604 51.6757 152.737 58.6979 151.361 62.2296L148.643 70.4512L141.488 62.2296H113.074C110.955 62.3672 109.874 63.984 109.599 64.7752C103.235 83.3741 90.3765 121.012 89.8536 122.774C89.3307 124.535 90.576 125.319 91.264 125.491H109.233L84.6936 135.949Z" fill="#C00136"/>
<path d="M159.754 87.3588L150.158 78.4586L138.381 113.07L153.167 106.769L159.754 87.3588Z" fill="#C00136"/>
<path d="M137.911 114.449L152.698 108.148L152.946 107.42L138.159 113.721L137.911 114.449Z" fill="#C00136"/>
<path fill-rule="evenodd" clip-rule="evenodd" d="M172.427 148.344L184.187 147.713L159.093 125.25L166 158.213L172.427 148.344ZM167.447 150.492L170.744 145.43L176.777 145.106L163.904 133.583L167.447 150.492Z" fill="#C00136"/>
<path d="M109.285 127.296L113.5 125.5H158.146L158.522 127.296H109.285Z" fill="#C00136"/>
<rect x="26" width="2" height="198" fill="#C00136"/>
<path d="M200 170L200 172L-8.74232e-08 172L0 170L200 170Z" fill="#C00136"/>
</g>
<defs>
<clipPath id="clip0_896_48">
<rect width="202" height="198" fill="white"/>
</clipPath>
</defs>
</svg>
