<svg width="1836" height="766" viewBox="0 0 1836 766" fill="none" xmlns="http://www.w3.org/2000/svg">
<path d="M1619.46 515.236V315.114H1767.66V181.081H1619.46V0.431641L1458.28 25.9737V517.427C1458.28 554.181 1461.66 587.731 1468.57 617.994C1475.4 648.257 1487.45 674.052 1504.82 695.295C1522.1 716.538 1545.19 733.144 1574.02 745.03C1602.85 756.916 1639.27 762.901 1683.27 762.901C1717.92 762.901 1747.09 760.035 1770.86 754.219C1794.63 748.486 1816.3 741.574 1835.77 733.65L1813.01 608.216C1797.83 614.032 1781.14 618.5 1762.68 621.703C1744.31 624.906 1726.43 626.592 1709.15 626.592C1673.07 626.592 1649.13 616.477 1637.25 596.33C1625.36 576.183 1619.46 549.123 1619.46 515.236Z" fill="#502379"/>
<path d="M461.046 749.919C490.719 687.287 520.055 622.04 548.884 554.265C577.714 486.49 605.111 419.474 631.074 353.132C657.038 286.79 680.894 223.398 702.811 162.957C724.644 102.347 743.948 48.2282 760.724 0.431641H581.086C567.008 44.0977 551.329 90.8827 534.217 140.871C517.02 190.944 499.57 240.848 481.784 290.499C463.997 340.234 446.716 387.778 430.025 433.299C413.334 478.819 397.908 518.017 383.83 550.893C368.909 517.765 353.23 478.482 336.961 432.961C320.607 387.441 303.579 339.813 285.792 290.162C268.005 240.511 250.471 190.607 233.275 140.618C216.078 90.5455 200.483 43.8448 186.49 0.431641H0.445312C16.3775 47.9754 35.2601 102.094 57.1775 162.704C79.0948 223.314 103.035 286.706 129.167 352.963C155.3 419.221 182.865 486.237 211.863 553.928C240.862 621.619 270.281 686.949 300.123 749.919H461.046Z" fill="#502379"/>
<path d="M1405.09 0.431641L1243.92 25.9737V749.919H1405.09V0.431641Z" fill="#502379"/>
<path d="M1198.9 473.006C1198.9 311.746 1068.16 181 906.896 181C840.385 181 779.101 203.255 730.04 240.599C716.383 277.099 702.053 314.527 686.964 352.967C665.215 408.435 642.539 464.492 618.767 520.972C641.78 659.472 761.988 765.012 906.896 765.012C1068.16 765.012 1198.9 634.267 1198.9 473.006ZM1052.73 473.006C1052.73 552.836 987.99 617.576 908.16 617.576C828.33 617.576 763.59 552.836 763.59 473.006C763.59 393.177 828.33 328.436 908.16 328.436C987.99 328.436 1052.73 393.177 1052.73 473.006Z" fill="#502379"/>
</svg>
