<svg width="242" height="147" viewBox="0 0 242 147" fill="none" xmlns="http://www.w3.org/2000/svg">
<path fill-rule="evenodd" clip-rule="evenodd" d="M132.017 53.9431C136.387 50.5826 139.204 45.3014 139.204 39.3624C139.204 39.024 139.194 38.6877 139.176 38.3538C139.09 36.7551 138.799 35.2107 138.33 33.7462C136.744 28.7981 133.118 24.7629 128.443 22.6299C127.041 21.9902 125.544 21.5216 123.98 21.2508C122.954 21.0732 121.899 20.9806 120.822 20.9806C119.777 20.9806 118.752 21.0678 117.754 21.2354C116.182 21.4995 114.677 21.9634 113.267 22.5998C108.532 24.7373 104.865 28.8221 103.286 33.8333C102.826 35.2941 102.543 36.8335 102.463 38.4264C102.448 38.7364 102.44 39.0485 102.44 39.3624C102.44 45.3014 105.257 50.5826 109.627 53.9431C108.706 57.6093 107.785 60.5184 106.889 62.9467C106.444 64.1523 106.006 65.2394 105.577 66.2418C104.882 67.8661 104.211 69.2679 103.578 70.5912C101.642 74.6369 100.058 77.9479 99.1997 84.6359C99.0316 85.9452 98.8913 87.384 98.7816 88.983C98.5989 91.6457 98.5011 94.7528 98.5011 98.4467C98.5011 102.798 108.494 106.325 120.822 106.325C133.149 106.325 143.143 102.798 143.143 98.4467C143.143 94.7188 143.043 91.5886 142.857 88.9097C142.746 87.3089 142.604 85.8693 142.434 84.5596C141.573 77.9227 139.994 74.6215 138.066 70.5912C137.44 69.2831 136.777 67.8982 136.09 66.2976C135.661 65.2957 135.221 64.2092 134.776 63.0041C133.874 60.5643 132.945 57.6382 132.017 53.9431Z" fill="#C80000"/>
<path d="M198.661 24.1589L160.612 47.2946L141.508 35.6784C141.719 36.8745 141.83 38.1056 141.83 39.3624C141.83 39.5629 141.827 39.7628 141.821 39.962L157.246 49.3411L137.061 61.6144C137.5 62.8266 137.932 63.9151 138.357 64.9193L160.612 51.3875L196.979 73.5L160.612 95.6125L145.273 86.2857C145.402 87.5978 145.508 89.0189 145.588 90.5699L157.246 97.6589L120.88 119.771L84.513 97.6589L96.0524 90.6425C96.1311 89.0927 96.2353 87.6722 96.3634 86.3604L81.1474 95.6125L44.7807 73.5L81.1474 51.3875L103.31 64.8634C103.734 63.8588 104.166 62.7697 104.603 61.5568L84.513 49.3411L99.8245 40.031C99.8176 39.809 99.8141 39.5861 99.8141 39.3624C99.8141 38.1331 99.9196 36.9285 100.122 35.7571L81.1474 47.2946L43.0979 24.1589L39.7323 26.2054L77.7817 49.3411L41.4151 71.4536L3.36563 48.3179L0 50.3643L38.0495 73.5L0 96.6357L3.36563 98.6821L41.4151 75.5464L77.7817 97.6589L39.7323 120.795L43.0979 122.841L81.1474 99.7054L117.514 121.818L79.4645 144.954L82.8302 147L120.88 123.864L158.929 147L162.295 144.954L124.245 121.818L160.612 99.7054L198.661 122.841L202.027 120.795L163.978 97.6589L200.344 75.5464L238.394 98.6821L241.759 96.6357L203.71 73.5L241.759 50.3643L238.394 48.3179L200.344 71.4536L163.978 49.3411L202.027 26.2054L198.661 24.1589Z" fill="#C80000"/>
<path d="M162.295 2.04644L158.929 0L127.148 19.324C128.526 19.7585 129.842 20.3312 131.081 21.0257L162.295 2.04644Z" fill="#C80000"/>
<path d="M82.8302 0L79.4645 2.04644L110.623 20.9921C111.867 20.2999 113.189 19.7305 114.572 19.3001L82.8302 0Z" fill="#C80000"/>
<path d="M143.143 98.4467C143.143 102.798 133.149 106.325 120.822 106.325C108.494 106.325 98.501 102.798 98.501 98.4467C98.501 70.6034 104.058 76.1031 109.627 53.9431C105.257 50.5826 102.44 45.3014 102.44 39.3624C102.44 29.2104 110.67 20.9806 120.822 20.9806C130.974 20.9806 139.204 29.2104 139.204 39.3624C139.204 45.3014 136.387 50.5826 132.017 53.9431C137.585 76.1031 143.143 70.6034 143.143 98.4467Z" fill="#C80000"/>
</svg>
