<svg width="258" height="148" viewBox="0 0 258 148" fill="none" xmlns="http://www.w3.org/2000/svg">
<g clip-path="url(#clip0)">
<mask id="mask0" mask-type="alpha" maskUnits="userSpaceOnUse" x="-22" y="-28" width="301" height="176">
<ellipse cx="128.5" cy="60" rx="150.5" ry="88" fill="#C4C4C4"/>
</mask>
<g mask="url(#mask0)">
<path d="M128.5 215C161.913 215 189 184.779 189 147.5C189 122.803 177.112 101.204 159.372 89.437C159.462 90.4985 158.981 91.5588 158.059 92.1802C155.194 94.1116 152.094 95.8043 148.768 97.182C145.442 98.5597 142.053 99.5548 138.662 100.215C137.262 100.487 135.863 99.7361 135.317 98.4181L133.267 93.4676C130.185 93.7895 127.115 93.7922 124.081 93.4805L122.03 98.4323C121.484 99.7506 120.084 100.502 118.684 100.229C115.183 99.5463 111.82 98.4568 108.608 97.1266C105.397 95.7963 102.248 94.1886 99.2903 92.1957C98.2906 91.5221 97.8085 90.3325 98.0121 89.1846C80.0599 100.893 68 122.625 68 147.5C68 184.779 95.0868 215 128.5 215Z" fill="#C80000"/>
<path d="M-3 124.5C-3 154.6 17.8188 179 43.5 179C52.6858 179 61.2495 175.878 68.4609 170.491C66.2162 163.269 65 155.53 65 147.5C65 127.947 72.1767 110.185 83.8405 97.3747C80.7242 91.0221 76.547 85.4751 71.5922 81.0661C70.0785 82.4369 68.4594 83.7229 66.7197 84.8758C65.5302 85.664 63.9502 85.5053 62.9412 84.4963L60.1801 81.7353C58.214 82.7669 56.15 83.6193 54 84.2847V88.1875C54 89.6141 52.9954 90.8433 51.5974 91.1274C48.8255 91.6907 45.9493 92 43 92C40.0506 92 37.1744 91.6907 34.4026 91.1274C33.0046 90.8433 32 89.6141 32 88.1875V84.2847C29.85 83.6193 27.786 82.7669 25.8198 81.7353L23.0588 84.4963C22.0498 85.5053 20.4698 85.664 19.2803 84.8758C17.7317 83.8495 16.2787 82.7179 14.9105 81.5148C4.00922 91.4889 -3 107.035 -3 124.5Z" fill="#C80000"/>
<path d="M214.5 179C240.181 179 261 154.6 261 124.5C261 106.771 253.777 91.0191 242.592 81.0661C241.079 82.4369 239.459 83.7229 237.72 84.8758C236.53 85.664 234.95 85.5053 233.941 84.4963L231.18 81.7353C229.214 82.7669 227.15 83.6193 225 84.2847V88.1875C225 89.6141 223.995 90.8433 222.597 91.1274C219.825 91.6907 216.949 92 214 92C211.051 92 208.174 91.6907 205.403 91.1274C204.005 90.8433 203 89.6141 203 88.1875V84.2847C200.85 83.6193 198.786 82.7669 196.82 81.7353L194.059 84.4963C193.05 85.5053 191.47 85.664 190.28 84.8758C188.732 83.8495 187.279 82.7179 185.911 81.5148C180.988 86.019 176.859 91.6594 173.81 98.0998C185.09 110.851 192 128.313 192 147.5C192 155.301 190.852 162.827 188.729 169.871C196.105 175.638 204.968 179 214.5 179Z" fill="#C80000"/>
<path fill-rule="evenodd" clip-rule="evenodd" d="M35 9.8125C37.5848 9.28719 40.2608 9 43 9C45.7391 9 48.4151 9.28719 51 9.8125V16C54.4748 16.8389 57.7198 18.1846 60.6875 20L65.0625 15.625C67.3051 17.1111 69.3547 18.8548 71.25 20.75C73.1452 22.6452 74.8889 24.6949 76.375 26.9375L72 31.3125C73.8154 34.2802 75.1611 37.5252 76 41H82.1875C82.7128 43.5848 83 46.2608 83 49C83 51.7392 82.7128 54.4152 82.1875 57H76C75.1611 60.4749 73.8154 63.7198 72 66.6875L76.375 71.0625C74.8889 73.3051 73.1452 75.3548 71.25 77.25C69.3547 79.1452 67.3051 80.8889 65.0625 82.375L60.6875 78C57.7198 79.8154 54.4748 81.1611 51 82V88.1875C48.4151 88.7128 45.7391 89 43 89C40.2608 89 37.5848 88.7128 35 88.1875V82C31.5251 81.1611 28.2802 79.8154 25.3125 78L20.9375 82.375C18.6949 80.8889 16.6452 79.1452 14.75 77.25C12.8547 75.3548 11.1111 73.3051 9.625 71.0625L14 66.6875C12.1846 63.7198 10.8389 60.4748 10 57H3.8125C3.2872 54.4152 3 51.7392 3 49C3 46.2608 3.2872 43.5848 3.8125 41H10C10.8389 37.5251 12.1846 34.2802 14 31.3125L9.625 26.9375C11.1111 24.6949 12.8547 22.6452 14.75 20.75C16.6452 18.8548 18.6949 17.1111 20.9375 15.625L25.3125 20C28.2802 18.1846 31.5252 16.8389 35 16V9.8125ZM43 69C54.04 69 63 60.04 63 49H23C23 60.04 31.96 69 43 69ZM36 41C36 43.7614 33.7614 46 31 46C28.2386 46 26 43.7614 26 41C26 38.2386 28.2386 36 31 36C33.7614 36 36 38.2386 36 41ZM55 46C57.7614 46 60 43.7614 60 41C60 38.2386 57.7614 36 55 36C52.2386 36 50 38.2386 50 41C50 43.7614 52.2386 46 55 46Z" fill="#C80000"/>
<path fill-rule="evenodd" clip-rule="evenodd" d="M109.733 2.94343C106.602 4.24067 103.678 5.83634 100.972 7.66107L103.902 14.7355C100.326 17.3402 97.2535 20.4156 94.7201 23.8967L87.6461 20.9665C85.7858 23.7277 84.2681 26.692 82.9988 29.7564C81.7294 32.8209 80.7066 35.9901 80.0695 39.2579L87.1436 42.1881C86.4734 46.4409 86.4716 50.7882 87.1581 55.1585L80.0837 58.0888C80.7072 61.2929 81.6462 64.4885 82.9434 67.6203C84.2407 70.7521 85.8363 73.6757 87.6611 76.3822L94.7355 73.4519C97.3402 77.0275 100.416 80.1003 103.897 82.6336L100.967 89.7077C103.728 91.5679 106.692 93.0857 109.756 94.3549C112.821 95.6242 115.99 96.6472 119.258 97.2842L122.188 90.2102C126.441 90.8803 130.788 90.8822 135.159 90.1957L138.089 97.2701C141.293 96.6465 144.488 95.7076 147.62 94.4103C150.752 93.1131 153.676 91.5174 156.382 89.6927L153.452 82.6183C157.027 80.0136 160.1 76.9382 162.634 73.4571L169.708 76.3873C171.568 73.6261 173.085 70.6618 174.355 67.5973C175.624 64.533 176.647 61.3637 177.284 58.0958L170.21 55.1657C170.88 50.9128 170.882 46.5655 170.196 42.1953L177.27 39.2649C176.647 36.0609 175.708 32.8653 174.41 29.7335C173.113 26.6016 171.517 23.6781 169.693 20.9716L162.618 23.9019C160.014 20.3263 156.938 17.2535 153.457 14.7201L156.387 7.64611C153.626 5.78586 150.662 4.26815 147.597 2.99884C144.533 1.72958 141.364 0.706599 138.096 0.0695496L135.166 7.14358C130.913 6.47343 126.565 6.47163 122.195 7.1581L119.265 0.0837024C116.061 0.707267 112.865 1.64623 109.733 2.94343ZM129 73.4302C115.2 73.4302 104.085 61.9418 104.085 48.2254L153.429 48.2842C153.429 54.2908 151.391 59.8589 147.94 64.2207C143.512 69.8191 136.757 73.4302 129 73.4302ZM144 44.4242C147.452 44.4242 150.25 41.643 150.25 38.2121C150.25 37.2157 150.014 36.274 149.594 35.4394C149.306 34.9828 149.004 34.5382 148.69 34.1056C147.544 32.8145 145.868 32 144 32C140.548 32 137.75 34.7813 137.75 38.2121C137.75 41.643 140.548 44.4242 144 44.4242ZM114 44.4242C117.452 44.4242 120.25 41.643 120.25 38.2121C120.25 34.7813 117.452 32 114 32C110.548 32 107.75 34.7813 107.75 38.2121C107.75 41.643 110.548 44.4242 114 44.4242Z" fill="#C80000"/>
<path fill-rule="evenodd" clip-rule="evenodd" d="M206 9.8125C208.585 9.28719 211.261 9 214 9C216.739 9 219.415 9.28719 222 9.8125V16C225.475 16.8389 228.72 18.1846 231.688 20L236.062 15.625C238.305 17.1111 240.355 18.8548 242.25 20.75C244.145 22.6452 245.889 24.6949 247.375 26.9375L243 31.3125C244.815 34.2802 246.161 37.5252 247 41H253.188C253.713 43.5848 254 46.2608 254 49C254 51.7392 253.713 54.4152 253.188 57H247C246.161 60.4749 244.815 63.7198 243 66.6875L247.375 71.0625C245.889 73.3051 244.145 75.3548 242.25 77.25C240.355 79.1452 238.305 80.8889 236.062 82.375L231.688 78C228.72 79.8154 225.475 81.1611 222 82V88.1875C219.415 88.7128 216.739 89 214 89C211.261 89 208.585 88.7128 206 88.1875V82C202.525 81.1611 199.28 79.8154 196.312 78L191.938 82.375C189.695 80.8889 187.645 79.1452 185.75 77.25C183.855 75.3548 182.111 73.3051 180.625 71.0625L185 66.6875C183.185 63.7198 181.839 60.4748 181 57H174.812C174.287 54.4152 174 51.7392 174 49C174 46.2608 174.287 43.5848 174.812 41H181C181.839 37.5251 183.185 34.2802 185 31.3125L180.625 26.9375C182.111 24.6949 183.855 22.6452 185.75 20.75C187.645 18.8548 189.695 17.1111 191.938 15.625L196.312 20C199.28 18.1846 202.525 16.8389 206 16V9.8125ZM214 69C225.04 69 234 60.04 234 49H194C194 60.04 202.96 69 214 69ZM207 41C207 43.7614 204.761 46 202 46C199.239 46 197 43.7614 197 41C197 38.2386 199.239 36 202 36C204.761 36 207 38.2386 207 41ZM226 46C228.761 46 231 43.7614 231 41C231 38.2386 228.761 36 226 36C223.239 36 221 38.2386 221 41C221 43.7614 223.239 46 226 46Z" fill="#C80000"/>
</g>
</g>
<defs>
<clipPath id="clip0">
<rect width="258" height="148" fill="white"/>
</clipPath>
</defs>
</svg>
