<svg width="100" height="160" viewBox="0 0 100 160" fill="none" xmlns="http://www.w3.org/2000/svg">
<path fill-rule="evenodd" clip-rule="evenodd" d="M10 0C4.47715 0 0 4.47715 0 10V150C0 155.523 4.47716 160 10 160H90C95.5229 160 100 155.523 100 150V10C100 4.47715 95.5228 0 90 0H10ZM10 6H90C92.2091 6 94 7.79086 94 10V140C94 142.209 92.2091 144 90 144H10C7.79086 144 6 142.209 6 140V10C6 7.79086 7.79086 6 10 6ZM50 155C52.2091 155 54 153.209 54 151C54 148.791 52.2091 147 50 147C47.7909 147 46 148.791 46 151C46 153.209 47.7909 155 50 155ZM77 150.5C77 152.433 75.433 154 73.5 154C71.567 154 70 152.433 70 150.5C70 148.567 71.567 147 73.5 147C75.433 147 77 148.567 77 150.5ZM26.5 154C28.433 154 30 152.433 30 150.5C30 148.567 28.433 147 26.5 147C24.567 147 23 148.567 23 150.5C23 152.433 24.567 154 26.5 154Z" fill="black"/>
<path fill-rule="evenodd" clip-rule="evenodd" d="M92 64H8V61H92V64Z" fill="black"/>
<path fill-rule="evenodd" clip-rule="evenodd" d="M50 86C53.866 86 57 82.866 57 79C57 75.134 53.866 72 50 72C46.134 72 43 75.134 43 79C43 82.866 46.134 86 50 86ZM77 86C80.866 86 84 82.866 84 79C84 75.134 80.866 72 77 72C73.134 72 70 75.134 70 79C70 82.866 73.134 86 77 86ZM23 86C26.866 86 30 82.866 30 79C30 75.134 26.866 72 23 72C19.134 72 16 75.134 16 79C16 82.866 19.134 86 23 86ZM50 111C53.866 111 57 107.866 57 104C57 100.134 53.866 97 50 97C46.134 97 43 100.134 43 104C43 107.866 46.134 111 50 111ZM77 111C80.866 111 84 107.866 84 104C84 100.134 80.866 97 77 97C73.134 97 70 100.134 70 104C70 107.866 73.134 111 77 111ZM23 111C26.866 111 30 107.866 30 104C30 100.134 26.866 97 23 97C19.134 97 16 100.134 16 104C16 107.866 19.134 111 23 111ZM50 136C53.866 136 57 132.866 57 129C57 125.134 53.866 122 50 122C46.134 122 43 125.134 43 129C43 132.866 46.134 136 50 136ZM77 136C80.866 136 84 132.866 84 129C84 125.134 80.866 122 77 122C73.134 122 70 125.134 70 129C70 132.866 73.134 136 77 136ZM23 136C26.866 136 30 132.866 30 129C30 125.134 26.866 122 23 122C19.134 122 16 125.134 16 129C16 132.866 19.134 136 23 136ZM23 89C28.5228 89 33 84.5228 33 79C33 73.4772 28.5228 69 23 69C17.4772 69 13 73.4772 13 79C13 84.5228 17.4772 89 23 89ZM60 79C60 84.5228 55.5228 89 50 89C44.4772 89 40 84.5228 40 79C40 73.4772 44.4772 69 50 69C55.5228 69 60 73.4772 60 79ZM87 79C87 84.5228 82.5229 89 77 89C71.4772 89 67 84.5228 67 79C67 73.4772 71.4772 69 77 69C82.5229 69 87 73.4772 87 79ZM60 104C60 109.523 55.5228 114 50 114C44.4772 114 40 109.523 40 104C40 98.4772 44.4772 94 50 94C55.5228 94 60 98.4772 60 104ZM77 114C82.5229 114 87 109.523 87 104C87 98.4772 82.5229 94 77 94C71.4772 94 67 98.4772 67 104C67 109.523 71.4772 114 77 114ZM33 104C33 109.523 28.5228 114 23 114C17.4772 114 13 109.523 13 104C13 98.4772 17.4772 94 23 94C28.5228 94 33 98.4772 33 104ZM50 139C55.5228 139 60 134.523 60 129C60 123.477 55.5228 119 50 119C44.4772 119 40 123.477 40 129C40 134.523 44.4772 139 50 139ZM87 129C87 134.523 82.5229 139 77 139C71.4772 139 67 134.523 67 129C67 123.477 71.4772 119 77 119C82.5229 119 87 123.477 87 129ZM23 139C28.5228 139 33 134.523 33 129C33 123.477 28.5228 119 23 119C17.4772 119 13 123.477 13 129C13 134.523 17.4772 139 23 139Z" fill="black"/>
<path d="M30.9341 45.33C25.6741 45.33 23.0441 41.91 23.0441 35.07C23.0441 28.23 25.6741 24.81 30.9341 24.81C36.1941 24.81 38.8241 28.23 38.8241 35.07C38.8241 41.91 36.1941 45.33 30.9341 45.33ZM30.9341 43.35C31.5941 43.35 32.2641 43.26 32.9441 43.08C33.6241 42.9 34.2441 42.53 34.8041 41.97C35.3641 41.41 35.8141 40.58 36.1541 39.48C36.4941 38.38 36.6641 36.91 36.6641 35.07C36.6641 33.23 36.4941 31.76 36.1541 30.66C35.8141 29.56 35.3641 28.74 34.8041 28.2C34.2441 27.64 33.6241 27.27 32.9441 27.09C32.2641 26.89 31.5941 26.79 30.9341 26.79C30.2741 26.79 29.6041 26.89 28.9241 27.09C28.2441 27.27 27.6241 27.64 27.0641 28.2C26.5041 28.74 26.0541 29.56 25.7141 30.66C25.3741 31.76 25.2041 33.23 25.2041 35.07C25.2041 36.91 25.3741 38.38 25.7141 39.48C26.0541 40.58 26.5041 41.41 27.0641 41.97C27.6241 42.53 28.2441 42.9 28.9241 43.08C29.6041 43.26 30.2741 43.35 30.9341 43.35Z" fill="black"/>
<path d="M50.3287 45.33C45.0687 45.33 42.4387 41.91 42.4387 35.07C42.4387 28.23 45.0687 24.81 50.3287 24.81C55.5887 24.81 58.2187 28.23 58.2187 35.07C58.2187 41.91 55.5887 45.33 50.3287 45.33ZM50.3287 43.35C50.9887 43.35 51.6587 43.26 52.3387 43.08C53.0187 42.9 53.6387 42.53 54.1987 41.97C54.7587 41.41 55.2087 40.58 55.5487 39.48C55.8887 38.38 56.0587 36.91 56.0587 35.07C56.0587 33.23 55.8887 31.76 55.5487 30.66C55.2087 29.56 54.7587 28.74 54.1987 28.2C53.6387 27.64 53.0187 27.27 52.3387 27.09C51.6587 26.89 50.9887 26.79 50.3287 26.79C49.6687 26.79 48.9987 26.89 48.3187 27.09C47.6387 27.27 47.0187 27.64 46.4587 28.2C45.8987 28.74 45.4487 29.56 45.1087 30.66C44.7687 31.76 44.5987 33.23 44.5987 35.07C44.5987 36.91 44.7687 38.38 45.1087 39.48C45.4487 40.58 45.8987 41.41 46.4587 41.97C47.0187 42.53 47.6387 42.9 48.3187 43.08C48.9987 43.26 49.6687 43.35 50.3287 43.35Z" fill="black"/>
<path d="M67.1132 45V27.24L63.1232 29.88V27.33L66.8132 24.99H69.2732V45H67.1132Z" fill="black"/>
<path d="M75.8783 45V43.11C76.5583 42.61 77.3383 41.99 78.2183 41.25C79.1183 40.51 80.0183 39.7 80.9183 38.82C81.8383 37.92 82.6783 36.99 83.4383 36.03C84.2183 35.05 84.8483 34.08 85.3283 33.12C85.8083 32.16 86.0483 31.24 86.0483 30.36C86.0483 29.82 85.9283 29.29 85.6883 28.77C85.4483 28.23 84.9883 27.78 84.3083 27.42C83.6283 27.06 82.6383 26.88 81.3383 26.88C80.1383 26.88 79.0883 27.08 78.1883 27.48C77.3083 27.88 76.6083 28.26 76.0883 28.62V26.25C76.7283 25.85 77.4983 25.5 78.3983 25.2C79.3183 24.88 80.3583 24.72 81.5183 24.72C83.1583 24.72 84.4683 25 85.4483 25.56C86.4283 26.12 87.1283 26.83 87.5483 27.69C87.9883 28.55 88.2084 29.44 88.2084 30.36C88.2084 31.4 87.9183 32.49 87.3383 33.63C86.7583 34.77 86.0083 35.9 85.0883 37.02C84.1683 38.12 83.1883 39.17 82.1483 40.17C81.1083 41.17 80.1283 42.06 79.2083 42.84H88.5083V45H75.8783Z" fill="black"/>
<path d="M21.1645 84L25.1965 75.67H19.9605V74.662H26.3305V75.6L22.2845 84H21.1645Z" fill="black"/>
<path d="M50.0138 84.112C49.4164 84.112 48.9124 84.028 48.5018 83.86C48.0911 83.6827 47.7598 83.454 47.5078 83.174C47.2558 82.8847 47.0691 82.572 46.9478 82.236C46.8358 81.9 46.7798 81.564 46.7798 81.228C46.7798 80.7987 46.8591 80.4393 47.0178 80.15C47.1858 79.8513 47.3724 79.618 47.5778 79.45C47.7924 79.2727 47.9791 79.1467 48.1378 79.072C48.3058 78.9973 48.3898 78.96 48.3898 78.96C48.3898 78.96 48.3244 78.9273 48.1938 78.862C48.0724 78.7873 47.9278 78.6707 47.7598 78.512C47.5918 78.3533 47.4424 78.148 47.3118 77.896C47.1904 77.6347 47.1298 77.322 47.1298 76.958C47.1298 76.566 47.2231 76.1833 47.4098 75.81C47.5964 75.4367 47.8998 75.1333 48.3198 74.9C48.7491 74.6573 49.3138 74.536 50.0138 74.536C50.7231 74.536 51.2878 74.6573 51.7078 74.9C52.1278 75.1333 52.4311 75.4367 52.6178 75.81C52.8044 76.1833 52.8978 76.566 52.8978 76.958C52.8978 77.3313 52.8371 77.6487 52.7158 77.91C52.5944 78.162 52.4498 78.3673 52.2818 78.526C52.1231 78.6753 51.9831 78.7827 51.8618 78.848C51.7404 78.9133 51.6798 78.946 51.6798 78.946C51.6798 78.946 51.7591 78.988 51.9178 79.072C52.0764 79.1467 52.2584 79.2727 52.4638 79.45C52.6691 79.6273 52.8511 79.8607 53.0098 80.15C53.1684 80.4393 53.2478 80.7987 53.2478 81.228C53.2478 81.564 53.1918 81.9 53.0798 82.236C52.9678 82.572 52.7858 82.8847 52.5338 83.174C52.2818 83.454 51.9458 83.6827 51.5258 83.86C51.1151 84.028 50.6111 84.112 50.0138 84.112ZM50.0138 78.568C50.6018 78.568 51.0591 78.428 51.3858 78.148C51.7218 77.8587 51.8898 77.462 51.8898 76.958C51.8898 76.5567 51.7918 76.258 51.5958 76.062C51.3998 75.8567 51.1571 75.7167 50.8678 75.642C50.5878 75.5673 50.3031 75.53 50.0138 75.53C49.7338 75.53 49.4491 75.5673 49.1598 75.642C48.8704 75.7167 48.6278 75.8567 48.4318 76.062C48.2358 76.258 48.1378 76.5567 48.1378 76.958C48.1378 77.462 48.3011 77.8587 48.6278 78.148C48.9638 78.428 49.4258 78.568 50.0138 78.568ZM50.0138 83.16C50.5364 83.16 50.9471 83.0853 51.2458 82.936C51.5444 82.7773 51.7638 82.586 51.9038 82.362C52.0438 82.138 52.1324 81.9233 52.1698 81.718C52.2164 81.5033 52.2398 81.34 52.2398 81.228C52.2398 80.668 52.0484 80.2387 51.6658 79.94C51.2831 79.6413 50.7324 79.492 50.0138 79.492C49.3044 79.492 48.7538 79.6413 48.3618 79.94C47.9791 80.2387 47.7878 80.668 47.7878 81.228C47.7878 81.34 47.8064 81.5033 47.8438 81.718C47.8904 81.9233 47.9838 82.138 48.1238 82.362C48.2731 82.586 48.4971 82.7773 48.7958 82.936C49.0944 83.0853 49.5004 83.16 50.0138 83.16Z" fill="black"/>
<path d="M75.9016 84.112C75.6403 84.112 75.3929 84.0933 75.1596 84.056C74.9356 84.028 74.7302 83.986 74.5436 83.93V82.992C74.7209 83.0293 74.9123 83.0667 75.1176 83.104C75.3323 83.1413 75.5563 83.16 75.7896 83.16C75.9389 83.16 76.1349 83.1367 76.3776 83.09C76.6296 83.0433 76.8956 82.9593 77.1756 82.838C77.4649 82.7167 77.7402 82.5393 78.0016 82.306C78.2722 82.0633 78.5056 81.7553 78.7016 81.382C78.9069 81.0087 79.0423 80.5467 79.1076 79.996C78.8929 80.1267 78.5943 80.2667 78.2116 80.416C77.8383 80.556 77.4276 80.626 76.9796 80.626C75.9996 80.626 75.2249 80.3647 74.6556 79.842C74.0862 79.31 73.8016 78.5913 73.8016 77.686C73.8016 77.322 73.8576 76.958 73.9696 76.594C74.0816 76.2207 74.2636 75.88 74.5156 75.572C74.7676 75.2547 75.0942 75.0027 75.4956 74.816C75.8969 74.6293 76.3916 74.536 76.9796 74.536C79.0983 74.536 80.1576 75.9967 80.1576 78.918C80.1576 79.8513 80.0502 80.6353 79.8356 81.27C79.6302 81.8953 79.3596 82.3993 79.0236 82.782C78.6876 83.1553 78.3282 83.44 77.9456 83.636C77.5629 83.8227 77.1896 83.9487 76.8256 84.014C76.4616 84.0793 76.1536 84.112 75.9016 84.112ZM74.8096 77.7C74.8096 78.3347 74.9962 78.8247 75.3696 79.17C75.7429 79.5153 76.2796 79.688 76.9796 79.688C77.4929 79.688 77.9363 79.5947 78.3096 79.408C78.6829 79.2213 78.9629 79.0533 79.1496 78.904C79.1309 78.176 79.0609 77.588 78.9396 77.14C78.8276 76.692 78.6736 76.3467 78.4776 76.104C78.2816 75.8613 78.0576 75.698 77.8056 75.614C77.5536 75.53 77.2783 75.488 76.9796 75.488C76.4756 75.488 76.0743 75.5767 75.7756 75.754C75.4863 75.9313 75.2716 76.146 75.1316 76.398C75.0009 76.65 74.9123 76.8973 74.8656 77.14C74.8283 77.3827 74.8096 77.5693 74.8096 77.7Z" fill="black"/>
<path d="M23.9322 109V106.2H19.3962V105.122L23.8062 99.662H24.9402V105.262H26.2702V106.2H24.9402V109H23.9322ZM20.5162 105.262H23.9322V101.104L20.5162 105.262Z" fill="black"/>
<path d="M50.1511 109.112C49.5258 109.112 48.9938 109.056 48.5551 108.944C48.1258 108.823 47.7665 108.687 47.4771 108.538V107.488C47.6638 107.609 47.9718 107.749 48.4011 107.908C48.8398 108.057 49.3998 108.132 50.0811 108.132C50.5571 108.132 50.9305 108.071 51.2011 107.95C51.4811 107.819 51.6865 107.656 51.8171 107.46C51.9478 107.255 52.0318 107.04 52.0691 106.816C52.1065 106.583 52.1251 106.359 52.1251 106.144C52.1251 105.556 52.0225 105.127 51.8171 104.856C51.6211 104.576 51.3645 104.394 51.0471 104.31C50.7391 104.226 50.4171 104.184 50.0811 104.184C49.5865 104.184 49.1758 104.221 48.8491 104.296C48.5225 104.361 48.2798 104.431 48.1211 104.506C47.9625 104.581 47.8831 104.618 47.8831 104.618L47.2531 103.974L47.7291 99.662H52.5311V100.656H48.5971L48.3591 103.414C48.9285 103.255 49.5258 103.176 50.1511 103.176C50.4871 103.176 50.8278 103.218 51.1731 103.302C51.5278 103.386 51.8498 103.535 52.1391 103.75C52.4378 103.955 52.6758 104.254 52.8531 104.646C53.0305 105.029 53.1191 105.528 53.1191 106.144C53.1191 106.76 53.0305 107.264 52.8531 107.656C52.6758 108.039 52.4378 108.337 52.1391 108.552C51.8498 108.757 51.5278 108.902 51.1731 108.986C50.8278 109.07 50.4871 109.112 50.1511 109.112Z" fill="black"/>
<path d="M77.0069 109.112C74.8883 109.112 73.8289 107.651 73.8289 104.73C73.8289 103.797 73.9316 103.017 74.1369 102.392C74.3516 101.757 74.6269 101.253 74.9629 100.88C75.2989 100.497 75.6583 100.213 76.0409 100.026C76.4236 99.83 76.7969 99.6993 77.1609 99.634C77.5249 99.5687 77.8329 99.536 78.0849 99.536C78.3463 99.536 78.5889 99.5547 78.8129 99.592C79.0463 99.62 79.2563 99.662 79.4429 99.718V100.656C79.2656 100.609 79.0743 100.572 78.8689 100.544C78.6636 100.507 78.4396 100.488 78.1969 100.488C78.0476 100.488 77.8469 100.511 77.5949 100.558C77.3523 100.605 77.0863 100.689 76.7969 100.81C76.5169 100.931 76.2416 101.113 75.9709 101.356C75.7096 101.589 75.4763 101.893 75.2709 102.266C75.0749 102.639 74.9443 103.101 74.8789 103.652C75.0936 103.521 75.3876 103.386 75.7609 103.246C76.1436 103.097 76.5589 103.022 77.0069 103.022C77.9869 103.022 78.7616 103.288 79.3309 103.82C79.9003 104.343 80.1849 105.057 80.1849 105.962C80.1849 106.326 80.1289 106.695 80.0169 107.068C79.9049 107.432 79.7229 107.773 79.4709 108.09C79.2189 108.398 78.8923 108.645 78.4909 108.832C78.0896 109.019 77.5949 109.112 77.0069 109.112ZM77.0069 103.96C76.4936 103.96 76.0503 104.053 75.6769 104.24C75.3036 104.427 75.0236 104.595 74.8369 104.744C74.8556 105.472 74.9209 106.06 75.0329 106.508C75.1543 106.956 75.3129 107.301 75.5089 107.544C75.7049 107.787 75.9289 107.95 76.1809 108.034C76.4329 108.118 76.7083 108.16 77.0069 108.16C77.5109 108.16 77.9076 108.071 78.1969 107.894C78.4956 107.717 78.7103 107.502 78.8409 107.25C78.9809 106.998 79.0696 106.751 79.1069 106.508C79.1536 106.265 79.1769 106.079 79.1769 105.948C79.1769 105.313 78.9903 104.823 78.6169 104.478C78.2436 104.133 77.7069 103.96 77.0069 103.96Z" fill="black"/>
<path d="M23.1458 134V125.712L21.2838 126.944V125.754L23.0058 124.662H24.1538V134H23.1458Z" fill="black"/>
<path d="M47.0106 134V133.118C47.3279 132.885 47.6919 132.595 48.1026 132.25C48.5226 131.905 48.9426 131.527 49.3626 131.116C49.7919 130.696 50.1839 130.262 50.5386 129.814C50.9026 129.357 51.1966 128.904 51.4206 128.456C51.6446 128.008 51.7566 127.579 51.7566 127.168C51.7566 126.916 51.7006 126.669 51.5886 126.426C51.4766 126.174 51.2619 125.964 50.9446 125.796C50.6273 125.628 50.1653 125.544 49.5586 125.544C48.9986 125.544 48.5086 125.637 48.0886 125.824C47.6779 126.011 47.3513 126.188 47.1086 126.356V125.25C47.4073 125.063 47.7666 124.9 48.1866 124.76C48.6159 124.611 49.1013 124.536 49.6426 124.536C50.4079 124.536 51.0193 124.667 51.4766 124.928C51.9339 125.189 52.2606 125.521 52.4566 125.922C52.6619 126.323 52.7646 126.739 52.7646 127.168C52.7646 127.653 52.6293 128.162 52.3586 128.694C52.0879 129.226 51.7379 129.753 51.3086 130.276C50.8793 130.789 50.4219 131.279 49.9366 131.746C49.4513 132.213 48.9939 132.628 48.5646 132.992H52.9046V134H47.0106Z" fill="black"/>
<path d="M76.5449 134.112C76.0316 134.112 75.5649 134.056 75.1449 133.944C74.7343 133.823 74.3703 133.683 74.0529 133.524V132.488C74.3423 132.647 74.6829 132.791 75.0749 132.922C75.4763 133.043 75.9243 133.104 76.4189 133.104C77.2496 133.104 77.8843 132.95 78.3229 132.642C78.7616 132.334 78.9809 131.891 78.9809 131.312C78.9809 130.733 78.7569 130.29 78.3089 129.982C77.8609 129.674 77.2123 129.52 76.3629 129.52H75.3409V128.554H76.4049C77.0863 128.554 77.6043 128.428 77.9589 128.176C78.3229 127.915 78.5049 127.541 78.5049 127.056C78.5049 126.561 78.3136 126.188 77.9309 125.936C77.5576 125.675 77.0116 125.544 76.2929 125.544C75.8729 125.544 75.4949 125.595 75.1589 125.698C74.8229 125.791 74.5289 125.903 74.2769 126.034V125.012C74.5569 124.881 74.8743 124.769 75.2289 124.676C75.5836 124.583 75.9756 124.536 76.4049 124.536C77.1703 124.536 77.7769 124.662 78.2249 124.914C78.6823 125.166 79.0089 125.483 79.2049 125.866C79.4103 126.249 79.5129 126.645 79.5129 127.056C79.5129 127.401 79.4523 127.695 79.3309 127.938C79.2096 128.181 79.0696 128.377 78.9109 128.526C78.7523 128.675 78.6123 128.783 78.4909 128.848C78.3696 128.913 78.3089 128.946 78.3089 128.946C78.3089 128.946 78.3929 128.993 78.5609 129.086C78.7289 129.17 78.9249 129.31 79.1489 129.506C79.3729 129.693 79.5689 129.94 79.7369 130.248C79.9049 130.547 79.9889 130.911 79.9889 131.34C79.9889 131.788 79.8769 132.227 79.6529 132.656C79.4289 133.076 79.0649 133.426 78.5609 133.706C78.0663 133.977 77.3943 134.112 76.5449 134.112Z" fill="black"/>
<path d="M10.198 14.43V18H9.19V8.662H12.508C13.5533 8.662 14.3513 8.90933 14.902 9.404C15.462 9.89866 15.742 10.6127 15.742 11.546C15.742 12.4793 15.462 13.1933 14.902 13.688C14.3513 14.1827 13.5533 14.43 12.508 14.43H10.198ZM10.198 13.464H12.382C12.9047 13.464 13.32 13.408 13.628 13.296C13.9453 13.184 14.1833 13.0347 14.342 12.848C14.5007 12.652 14.6033 12.442 14.65 12.218C14.706 11.994 14.734 11.77 14.734 11.546C14.734 11.322 14.706 11.098 14.65 10.874C14.6033 10.65 14.5007 10.4447 14.342 10.258C14.1833 10.062 13.9453 9.908 13.628 9.796C13.32 9.684 12.9047 9.628 12.382 9.628H10.198V13.464Z" fill="black"/>
<path d="M17.7059 18V7.92H18.7139V11.476C19.0593 11.2987 19.4139 11.1587 19.7779 11.056C20.1419 10.944 20.4919 10.888 20.8279 10.888C21.6866 10.888 22.3493 11.1307 22.8159 11.616C23.2826 12.092 23.5159 12.8387 23.5159 13.856V18H22.5079V13.856C22.5079 13.2027 22.3586 12.6987 22.0599 12.344C21.7613 11.9893 21.3133 11.812 20.7159 11.812C20.0626 11.812 19.3953 11.9987 18.7139 12.372V18H17.7059Z" fill="black"/>
<path d="M28.6287 18.21C27.5367 18.21 26.7247 17.888 26.1927 17.244C25.67 16.5907 25.4087 15.6853 25.4087 14.528C25.4087 13.3147 25.684 12.4047 26.2347 11.798C26.7947 11.1913 27.5833 10.888 28.6007 10.888C29.3567 10.888 29.9727 11.042 30.4487 11.35C30.9247 11.6487 31.2747 12.0733 31.4987 12.624C31.7227 13.1653 31.8347 13.8 31.8347 14.528C31.8347 15.676 31.5547 16.5767 30.9947 17.23C30.444 17.8833 29.6553 18.21 28.6287 18.21ZM28.6147 17.286C29.184 17.286 29.6273 17.1647 29.9447 16.922C30.262 16.67 30.486 16.3387 30.6167 15.928C30.7567 15.508 30.8267 15.0413 30.8267 14.528C30.8267 13.6973 30.6633 13.0393 30.3367 12.554C30.01 12.0593 29.436 11.812 28.6147 11.812C28.0547 11.812 27.616 11.9333 27.2987 12.176C26.9813 12.4187 26.7527 12.7453 26.6127 13.156C26.482 13.5573 26.4167 14.0147 26.4167 14.528C26.4167 15.3493 26.58 16.0167 26.9067 16.53C27.2333 17.034 27.8027 17.286 28.6147 17.286Z" fill="black"/>
<path d="M33.7294 11.574C34.6347 11.1167 35.6194 10.888 36.6834 10.888C37.7007 10.888 38.4147 11.112 38.8254 11.56C39.2454 12.008 39.4554 12.638 39.4554 13.45V18H38.4474V13.45C38.4474 13.282 38.424 13.1047 38.3774 12.918C38.34 12.7313 38.2607 12.554 38.1394 12.386C38.018 12.2087 37.8314 12.0687 37.5794 11.966C37.3274 11.854 36.9914 11.798 36.5714 11.798C35.9927 11.798 35.3814 11.8913 34.7374 12.078V18H33.7294V11.574Z" fill="black"/>
<path d="M44.5841 18.21C43.5854 18.21 42.7967 17.902 42.2181 17.286C41.6394 16.6607 41.3501 15.732 41.3501 14.5C41.3501 13.296 41.6207 12.3953 42.1621 11.798C42.7127 11.1913 43.4641 10.888 44.4161 10.888C45.1627 10.888 45.7601 11.056 46.2081 11.392C46.6654 11.728 46.9921 12.1807 47.1881 12.75C47.3841 13.3193 47.4774 13.9633 47.4681 14.682H42.3721C42.3721 15.5313 42.5681 16.18 42.9601 16.628C43.3614 17.0667 43.9214 17.286 44.6401 17.286C45.1534 17.286 45.6061 17.23 45.9981 17.118C46.3994 17.006 46.7447 16.8613 47.0341 16.684V17.72C46.3527 18.0467 45.5361 18.21 44.5841 18.21ZM44.4161 11.812C43.8281 11.812 43.3707 11.952 43.0441 12.232C42.7174 12.5027 42.5074 13.0113 42.4141 13.758H46.4041C46.3667 13.1047 46.1847 12.6193 45.8581 12.302C45.5314 11.9753 45.0507 11.812 44.4161 11.812Z" fill="black"/>
</svg>
