<svg width="298" height="267" viewBox="0 0 298 267" fill="none" xmlns="http://www.w3.org/2000/svg">
<g clip-path="url(#clip0)">
<path d="M149.02 0H163.33C163.46 0.22 163.68 0.16 163.88 0.17C165.95 0.31 168.02 0.41 170.09 0.59C182.144 1.62253 194.02 4.16579 205.44 8.16C226.518 15.4506 245.567 27.6376 261.02 43.72C270.381 53.3721 278.206 64.4039 284.22 76.43C296.904 101.884 300.743 130.84 295.13 158.72C289.48 185.94 276.23 208.94 256.13 228.01C241.145 242.219 223.203 252.938 203.59 259.4C173.329 269.44 140.648 269.517 110.34 259.62C99.8372 256.181 89.7696 251.533 80.34 245.77C79.97 245.55 79.66 245.1 79.07 245.43C75.32 247.48 71.31 247.43 67.23 246.82C64.8787 246.414 62.6048 245.645 60.49 244.54C58.3656 243.338 55.9148 242.841 53.49 243.12L55.25 244.12C58.0624 245.664 60.6387 247.604 62.9 249.88C63.5 250.5 63.41 250.8 62.58 251.04C62.1142 251.169 61.6189 251.141 61.1707 250.96C60.7224 250.779 60.3462 250.456 60.1 250.04C58.1 247.24 55.2 245.67 52.26 244.14C52.0639 244.007 51.838 243.925 51.6026 243.901C51.3671 243.877 51.1292 243.911 50.91 244C47.91 245.31 44.98 246.78 43.04 249.61C42.7443 249.994 42.4092 250.346 42.04 250.66C41.7285 250.983 41.308 251.179 40.86 251.21C40.31 251.21 39.68 251.21 39.46 250.63C39.24 250.05 39.68 249.74 40.07 249.44C40.77 248.9 41.51 248.44 42.2 247.87C43.9143 246.402 45.7662 245.102 47.73 243.99L49.1 243.28C47.9759 243.133 46.8359 243.16 45.72 243.36C43.2 243.8 40.98 245.04 38.62 245.91C34.2301 247.637 29.3524 247.654 24.95 245.96C23.5656 245.374 22.3037 244.532 21.23 243.48C23.9888 243.925 26.8104 243.782 29.51 243.06C31.56 242.56 33.6 242.06 35.67 241.59C40.58 240.59 45.49 240.05 50.34 241.99C51.2261 242.275 52.1869 242.214 53.03 241.82C56.8146 240.515 60.8711 240.205 64.81 240.92C67.68 241.33 70.39 242.41 73.19 243.11C74.405 243.538 75.6951 243.712 76.98 243.62V243.71V243.63C72.98 240.93 69.08 238.18 65.36 235.14C65.204 235.011 65.0124 234.932 64.8106 234.914C64.6088 234.896 64.4063 234.94 64.23 235.04C59.3203 236.615 54.149 237.209 49.01 236.79C30.01 235.34 14.59 218.73 14.5 199.64C14.3757 191.12 17.1311 182.808 22.32 176.05C22.52 175.79 22.83 175.57 22.69 175.16L21.44 171.36C19.01 175.01 15.63 177.24 12.14 179.57C12.1262 179.417 12.1262 179.263 12.14 179.11C12.25 178.75 12.37 178.4 12.5 178.05C13.8881 174.317 16.387 171.099 19.66 168.83C19.9376 168.688 20.1509 168.446 20.2567 168.152C20.3625 167.859 20.353 167.537 20.23 167.25C13.3284 142.338 14.2006 115.913 22.73 91.51C28.9946 73.7122 39.0263 57.476 52.14 43.91C66.2522 29.1732 83.4023 17.684 102.4 10.24C116.35 4.71301 131.07 1.3769 146.04 0.35C147.046 0.409695 148.055 0.291208 149.02 0V0ZM50.08 198.29C50.1421 198.392 50.2159 198.486 50.3 198.57C50.3 198.57 50.43 198.57 50.44 198.5C50.5 198.3 50.33 198.22 50.2 198.14C49.76 197.68 49.33 197.21 48.88 196.76C48.75 196.63 48.58 196.4 48.39 196.62C48.2421 196.782 48.1307 196.974 48.0634 197.183C47.9961 197.391 47.9745 197.612 48 197.83C48.07 198.28 48.43 198.28 48.77 198.28L50.08 198.29ZM47.94 202.16C48.8601 201.422 49.6626 200.549 50.32 199.57C49.9482 199.523 49.5719 199.523 49.2 199.57C48.59 199.74 47.81 200.06 47.97 200.76C48.0512 201.171 47.9913 201.597 47.8 201.97C47.68 202.04 47.59 202.14 47.71 202.27C47.83 202.4 47.86 202.16 47.94 202.16ZM51.31 203.16C50.06 204.77 49.05 205.16 47.31 204.56C47 204.46 46.87 204.56 46.71 204.77L42.21 209.07C41.93 209.33 41.88 209.53 42.21 209.8C44.4505 211.823 47.2999 213.044 50.31 213.27C50.54 213.27 50.92 213.44 50.93 212.99C50.93 211.48 51.85 210.1 51.57 208.55C51.6143 208.501 51.6388 208.436 51.6388 208.37C51.6388 208.304 51.6143 208.24 51.57 208.19C51.5167 207.273 51.5435 206.353 51.65 205.44V204.96C51.551 204.607 51.551 204.233 51.65 203.88C51.715 203.83 51.7689 203.766 51.808 203.694C51.8471 203.622 51.8708 203.542 51.8774 203.46C51.884 203.379 51.8734 203.296 51.8463 203.219C51.8192 203.141 51.7762 203.07 51.72 203.01C51.6 202.75 51.42 202.9 51.31 203.09V203.16ZM249.2 218.4C248.81 218.17 248.48 218.46 248.15 218.56C235.369 222.425 221.839 223.119 208.73 220.58C201.247 219.221 193.979 216.867 187.12 213.58C186.685 213.432 186.314 213.138 186.07 212.748C185.826 212.358 185.723 211.896 185.78 211.44C185.82 191.853 185.82 172.263 185.78 152.67C185.78 121.397 185.78 90.1233 185.78 58.85C185.756 58.4804 185.856 58.1132 186.064 57.807C186.272 57.5007 186.577 57.273 186.93 57.16C188.69 56.34 190.44 55.51 192.25 54.8C203.94 50.1833 216.474 48.0876 229.03 48.65C237.59 48.98 245.96 50.3 253.89 53.76C253.96 53.76 254.07 53.76 254.32 53.76C246.104 44.8716 236.678 37.183 226.32 30.92C216.003 24.6471 204.867 19.8315 193.23 16.61C169.824 10.1849 145.137 10.047 121.66 16.21C109.995 19.2843 98.8078 23.9444 88.41 30.06C78.8 35.72 62.05 49.14 60.41 52.49C60.4725 52.5045 60.5375 52.5045 60.6 52.49C68.35 49.37 76.45 48.44 84.73 48.56C97.2917 48.8322 109.669 51.6383 121.12 56.81C121.42 56.9097 121.677 57.111 121.845 57.3793C122.013 57.6477 122.082 57.9662 122.04 58.28C122.04 63.42 122.04 68.56 122.04 73.71C122.04 76.7659 121.031 79.7364 119.17 82.16C116.784 85.1633 113.649 87.4846 110.08 88.89C103.49 91.76 96.52 92.89 89.42 93.29C86.99 93.45 86.99 93.44 86.99 91.02C86.99 83.32 86.99 75.62 86.99 67.92C86.99 67.36 87.07 66.85 86.19 66.92C84.8055 66.9082 83.4363 67.2108 82.1857 67.8049C80.935 68.399 79.8355 69.2693 78.97 70.35C77.4336 72.3925 76.4736 74.8099 76.19 77.35C75.2422 84.0881 76.2235 90.9568 79.02 97.16C81.87 103.86 85.96 109.79 90.31 115.58C95.58 122.58 101.22 129.35 106.31 136.52C112.07 144.64 117.09 153.15 120.07 162.71C123.57 173.29 124.143 184.62 121.73 195.5C119.11 206.91 112.28 214.74 101.21 218.79C95.4778 220.782 89.4674 221.859 83.4 221.98C83.1021 221.971 82.8066 222.036 82.5397 222.168C82.2728 222.301 82.0428 222.497 81.87 222.74C80.3622 224.68 78.6377 226.441 76.73 227.99C76.06 228.53 76.18 228.77 76.8 229.23C82.7109 233.611 88.9835 237.482 95.55 240.8C119.3 252.868 146.109 257.578 172.55 254.33C200.133 251.333 226.048 239.643 246.55 220.95C247.531 220.174 248.423 219.292 249.21 218.32L249.31 218.2C249.31 218.2 249.24 218.2 249.22 218.2C249.2 218.2 249.12 218.29 249.2 218.33V218.4ZM85.66 180.65C85.66 180.39 85.59 180.12 85.55 179.85C84.32 171.72 80.99 164.43 76.55 157.59C72.11 150.75 67.05 144.79 62.01 138.59C56.9939 132.701 52.4087 126.458 48.29 119.91C42.5698 110.772 39.3109 100.31 38.83 89.54C38.76 87.54 38.83 85.64 38.83 83.65C38.7 83.71 38.62 83.72 38.6 83.76C38.45 84.03 38.31 84.3 38.18 84.58C26.2835 110.045 24.0722 138.972 31.96 165.95C32.18 166.69 32.34 166.86 33.08 166.41C37.7016 163.612 42.8996 161.902 48.28 161.41C61.73 160.26 72.85 164.9 81.63 175.16C83.11 176.88 84.33 178.79 85.66 180.65ZM268.8 193.58C279.998 175.503 285.931 154.66 285.931 133.395C285.931 112.13 279.998 91.2874 268.8 73.21V74.21C268.8 86.8767 268.8 99.5167 268.8 112.13C268.8 113.53 268.74 114.92 268.61 116.31C268.405 119.377 267.228 122.3 265.25 124.653C263.272 127.007 260.596 128.67 257.61 129.4C256.85 129.59 256.08 129.71 255.29 129.87C255.54 130.16 255.87 130.13 256.16 130.18C257.7 130.481 259.184 131.017 260.56 131.77C266.32 134.93 268.78 140.02 268.8 146.36C268.86 161.73 268.8 177.09 268.8 192.46V193.58ZM232.85 171.74C232.85 163.6 232.85 155.46 232.85 147.32C232.915 145.912 232.544 144.519 231.789 143.329C231.034 142.139 229.931 141.211 228.63 140.67C226.916 139.902 225.068 139.477 223.19 139.42C221.72 139.34 221.72 139.33 221.72 140.76V202.27C221.72 202.48 221.72 202.68 221.72 202.88C221.64 203.48 221.91 203.63 222.48 203.62C224.53 203.631 226.565 203.262 228.48 202.53C229.832 202.068 230.993 201.173 231.784 199.983C232.574 198.793 232.949 197.375 232.85 195.95C232.857 187.883 232.857 179.813 232.85 171.74ZM232.85 94.34V74.62C232.896 73.3494 232.567 72.0933 231.906 71.0072C231.245 69.9212 230.28 69.053 229.13 68.51C227.193 67.5735 225.081 67.0524 222.93 66.98C221.93 66.9 221.69 67.16 221.69 68.18C221.73 85.58 221.73 102.987 221.69 120.4C221.69 120.54 221.69 120.68 221.69 120.81C221.62 121.43 221.9 121.67 222.51 121.65C224.485 121.68 226.449 121.34 228.3 120.65C229.695 120.151 230.889 119.212 231.703 117.975C232.517 116.737 232.905 115.268 232.81 113.79C232.843 107.303 232.857 100.82 232.85 94.34ZM52.24 166.01C52.24 163.82 52.81 164.01 50.43 164.11C42.2566 164.513 34.489 167.793 28.5 173.37C27.86 173.95 27.95 174.29 28.5 174.81C29.56 175.81 30.6 176.81 31.6 177.91C32.01 178.34 32.28 178.3 32.68 177.91C34.0524 176.639 35.5501 175.51 37.15 174.54C41.4135 171.938 46.278 170.484 51.27 170.32C52.03 170.32 52.27 170.05 52.27 169.32C52.22 168.23 52.24 167.16 52.24 166.01ZM87.24 201.09C87.49 200.34 86.99 200.18 86.24 200.17C84.84 200.17 83.44 200.17 82.05 200.11C81.39 200.11 81.2 200.32 81.16 200.97C80.8289 207.756 78.0962 214.203 73.45 219.16C73.1 219.54 73.07 219.78 73.45 220.16C74.45 221.11 75.45 222.06 76.31 223.07C76.86 223.68 77.18 223.74 77.8 223.07C83.4186 217.068 86.7706 209.296 87.28 201.09H87.24ZM20.1 198.09H20.74C21.48 198.09 22.37 198.33 22.94 198.01C23.51 197.69 23.28 196.59 23.38 195.84C24.1351 189.865 26.7319 184.272 30.81 179.84C31.29 179.31 31.27 179.02 30.81 178.55C29.81 177.55 28.74 176.55 27.81 175.55C27.3 174.99 27.01 174.99 26.49 175.55C21.3519 181.21 18.1932 188.388 17.49 196C17.28 198 17.32 198 19.34 198.1L20.1 198.09ZM51.1 231.3H51.18C51.145 230.654 51.145 230.006 51.18 229.36C51.26 228.6 51 228.36 50.24 228.36C46.975 228.155 43.7705 227.384 40.77 226.08C37.4767 224.671 34.4753 222.66 31.92 220.15C31.52 219.75 31.23 219.5 30.71 220.06C29.71 221.06 28.71 222.06 27.64 223.06C27.27 223.4 27.13 223.63 27.58 224.06C28.65 224.95 29.64 225.94 30.74 226.8C36.3143 231.181 43.0931 233.755 50.17 234.18C50.84 234.23 51.17 234.09 51.1 233.32C51.03 232.55 51.12 231.9 51.12 231.26L51.1 231.3ZM84.26 199.3C84.98 199.3 85.69 199.3 86.4 199.3C87.11 199.3 87.32 199.11 87.3 198.38C87.2051 194.325 86.4135 190.317 84.96 186.53C83.433 182.517 81.1558 178.831 78.25 175.67C78.03 175.42 77.85 174.85 77.31 175.37C76.31 176.37 75.21 177.37 74.14 178.37C74.0861 178.411 74.0425 178.464 74.0124 178.525C73.9823 178.585 73.9667 178.652 73.9667 178.72C73.9667 178.788 73.9823 178.855 74.0124 178.915C74.0425 178.976 74.0861 179.029 74.14 179.07C75.87 181.07 77.31 183.26 79.21 185.07C79.97 185.78 79.82 186.26 79.3 186.84C79.1084 187.024 78.9843 187.267 78.948 187.53C78.9117 187.793 78.9653 188.061 79.1 188.29C80.1687 190.868 80.8624 193.585 81.16 196.36C81.26 197.26 80.89 198.46 81.53 198.98C82.17 199.5 83.33 199.16 84.28 199.25L84.26 199.3ZM52.13 231.3C52.165 231.913 52.165 232.527 52.13 233.14C52.03 234.02 52.38 234.23 53.21 234.2C57.6425 234.07 62.0112 233.11 66.09 231.37C69.6293 229.849 72.8932 227.754 75.75 225.17C76.07 224.89 76.51 224.66 75.96 224.17C74.83 223.09 73.73 221.97 72.63 220.86C72.41 220.64 72.23 220.54 71.97 220.81C69.44 223.42 66.07 224.81 63.15 226.81C62.9427 226.963 62.7065 227.073 62.4557 227.134C62.2048 227.194 61.9444 227.203 61.69 227.16C61.3885 227.118 61.0815 227.142 60.79 227.23C58.2153 228.017 55.542 228.434 52.85 228.47C52.31 228.47 52.14 228.68 52.16 229.2C52.17 229.78 52.15 230.5 52.15 231.21L52.13 231.3ZM20.22 199.05V198.95C19.5538 198.984 18.8863 198.984 18.22 198.95C17.56 198.89 17.3 199.07 17.33 199.77C17.39 201.06 17.44 202.35 17.62 203.64C18.5026 210.5 21.3978 216.944 25.94 222.16C26.34 222.61 26.58 222.71 27.05 222.23C28.05 221.23 29.05 220.23 30.14 219.23C30.57 218.84 30.55 218.57 30.14 218.16C29.0321 216.999 28.0959 215.686 27.36 214.26C27.0529 213.638 26.6012 213.098 26.0428 212.685C25.4844 212.273 24.8354 212 24.15 211.89C23.475 211.8 22.8588 211.459 22.4249 210.934C21.9909 210.409 21.7713 209.74 21.81 209.06C21.81 208.63 21.65 208.06 22.1 207.83C22.55 207.6 22.87 208.07 23.21 208.31C23.55 208.55 23.61 208.89 23.95 208.71C24.0868 208.606 24.197 208.471 24.2717 208.317C24.3464 208.162 24.3836 207.992 24.38 207.82C24.3757 207.581 24.3318 207.345 24.25 207.12C23.5892 204.76 23.2528 202.321 23.25 199.87C23.25 199.27 23.12 198.99 22.46 199.03C21.8 199.07 20.96 199.05 20.22 199.05ZM53.27 165.86C53.27 165.96 53.27 166.07 53.27 166.17C53.34 166.62 53.03 167.3 53.45 167.49C53.87 167.68 54.39 167.27 54.78 166.93C55.0376 166.763 55.3281 166.653 55.6317 166.608C55.9354 166.564 56.2452 166.585 56.54 166.67C56.6426 166.665 56.744 166.693 56.8289 166.751C56.9138 166.809 56.9774 166.893 57.01 166.99C57.01 167.27 56.8 167.32 56.62 167.36C56.4308 167.386 56.2539 167.468 56.1127 167.597C55.9716 167.725 55.873 167.894 55.83 168.08C55.65 169.37 55.05 169.15 54.25 168.61C53.98 168.43 53.57 168.12 53.25 168.48C53.1591 168.652 53.1076 168.842 53.0992 169.036C53.0907 169.23 53.1255 169.423 53.2012 169.603C53.2768 169.782 53.3913 169.941 53.5364 170.071C53.6815 170.2 53.8535 170.295 54.04 170.35C56.8984 170.554 59.7132 171.163 62.4 172.16C63.18 172.46 63.98 173.16 64.71 172.06C64.71 172.06 64.83 172 64.89 171.98C66.3059 171.569 67.8162 171.621 69.2 172.13C69.3983 172.19 69.5787 172.298 69.7252 172.445C69.8718 172.591 69.9799 172.772 70.04 172.97C70.51 174.74 71.78 175.97 72.79 177.45C73.08 177.85 73.29 177.88 73.66 177.51C74.56 176.58 75.49 175.68 76.46 174.83C76.96 174.39 76.88 174.13 76.46 173.72C70.6664 168.179 63.1409 164.803 55.15 164.16C52.96 163.99 53.44 163.68 53.27 165.86ZM52.15 174.86V174.05C52.15 172.23 52.15 172.19 50.33 172.32C44.2648 172.745 38.5225 175.212 34.04 179.32C33.51 179.79 33.59 180.06 34.04 180.49C34.86 181.25 35.66 182.05 36.42 182.87C36.88 183.38 37.17 183.4 37.71 182.92C41.0568 179.921 45.2475 178.029 49.71 177.5C50.48 177.4 51.5 177.58 51.95 177.15C52.4 176.72 52.03 175.53 52.15 174.83V174.86ZM27.67 198.16C28.25 198.16 28.83 198.16 29.4 198.16C29.97 198.16 30.28 197.96 30.34 197.32C30.7639 192.568 32.7346 188.085 35.95 184.56C36.24 184.22 36.34 184 35.95 183.64C35.01 182.75 34.1 181.83 33.2 180.9C32.86 180.54 32.63 180.56 32.3 180.9C28.148 185.424 25.6307 191.208 25.15 197.33C25.1 197.84 25.26 198.09 25.82 198.06C26.38 198.03 27.06 198.16 27.67 198.16ZM72.19 217.75C73.2488 216.612 74.2027 215.38 75.04 214.07C77.5512 210.193 79.0313 205.739 79.34 201.13C79.4 200.35 79.19 200.04 78.34 200.08C77.3897 200.115 76.4381 200.095 75.49 200.02C74.98 200.02 74.76 200.12 74.73 200.68C74.6934 201.495 74.6066 202.306 74.47 203.11C73.7774 207.371 71.8673 211.34 68.97 214.54C68.79 214.74 68.33 214.93 68.62 215.27C69.1276 215.864 69.6828 216.416 70.28 216.92C70.45 217.06 70.87 217.04 70.68 216.56C70.6 216.35 70.34 216.13 70.61 215.94C70.88 215.75 71.06 215.94 71.29 216.04C72 216.24 72.19 216.79 72.19 217.71V217.75ZM53.06 181.85H52.95C52.95 182.64 52.95 183.42 52.95 184.2C52.95 184.66 53.08 184.89 53.54 184.95C56.4257 185.346 59.1222 186.613 61.27 188.58C61.59 188.87 61.8 188.9 62.11 188.58C63.45 187.27 64.79 185.97 66.11 184.69C66.53 184.3 66.44 184.07 66.05 183.69C62.5788 180.738 58.2475 178.984 53.7 178.69C53.21 178.69 53.01 178.81 53.02 179.3C53.07 180.16 53.06 181 53.06 181.85ZM32.73 218.16C37.4258 223.025 43.7553 225.982 50.5 226.46C51.14 226.46 51.33 226.29 51.31 225.67C51.2586 224.671 51.2586 223.669 51.31 222.67C51.31 221.98 51.13 221.74 50.43 221.67C46.8925 221.362 43.482 220.202 40.49 218.29C40.0865 218.048 39.6141 217.947 39.147 218.003C38.6799 218.059 38.2447 218.269 37.91 218.6C37.48 219.04 37.01 219.29 36.48 218.93C35.3381 218.296 34.0293 218.027 32.73 218.16V218.16ZM51.96 181.86H52.1C52.1 181.05 52.1 180.23 52.1 179.42C52.1 178.92 51.98 178.68 51.41 178.73C46.6866 179.002 42.189 180.843 38.63 183.96C38.17 184.36 38.21 184.63 38.63 184.96C39.63 185.88 40.53 186.81 41.44 187.78C41.81 188.18 42.06 188.11 42.44 187.78C44.4969 186.197 46.9233 185.165 49.49 184.78C50.31 184.65 51.49 185.21 51.89 184.34C52.0645 183.514 52.0814 182.662 51.94 181.83L51.96 181.86ZM72.96 190.63C72.96 189.55 73.4 189.68 73.87 190.04C74.0503 190.168 74.2029 190.331 74.3187 190.519C74.4345 190.707 74.511 190.917 74.5437 191.135C74.5764 191.354 74.5645 191.577 74.5089 191.791C74.4533 192.005 74.355 192.205 74.22 192.38C73.99 192.7 73.8 192.93 73.94 193.38C74.4052 194.968 74.6706 196.607 74.73 198.26C74.73 198.85 74.93 199.1 75.57 199.07C76.4859 199.015 77.4042 199.015 78.32 199.07C79.1 199.13 79.4 198.92 79.32 198.07C79.1453 195.007 78.4696 191.994 77.32 189.15C77.21 188.87 77.15 188.52 76.73 188.55C75.79 188.61 75.5 187.98 75.37 187.23C75.3514 186.965 75.2417 186.715 75.0594 186.521C74.8771 186.328 74.6335 186.204 74.37 186.17C73.9464 186.101 73.5423 185.943 73.1852 185.705C72.8281 185.467 72.5263 185.155 72.3 184.79C71.7805 184.039 71.0965 183.417 70.3 182.97C69.66 182.51 69.36 182.97 68.94 183.3C68.52 183.63 68.71 184.07 68.99 184.43C70.5714 186.297 71.8872 188.373 72.9 190.6L72.96 190.63ZM53.11 175.35C53.14 175.756 53.14 176.164 53.11 176.57C53.04 177.05 53.16 177.24 53.67 177.27C56.2194 177.399 58.7268 177.971 61.08 178.96C61.3 179.05 61.51 179.16 61.73 178.96C61.9786 178.709 62.2781 178.514 62.6084 178.388C62.9387 178.263 63.2921 178.21 63.6447 178.233C63.9973 178.255 64.3409 178.353 64.6524 178.52C64.9638 178.687 65.2358 178.919 65.45 179.2C66.16 180.2 66.85 181.29 67.57 182.33C67.7 182.53 67.82 182.94 68.15 182.75C69.05 182.26 69.15 181.33 69.15 180.45C69.15 179.57 68.64 179.7 68.15 179.56C66.79 179.18 66.35 178.64 66.36 177.25C66.3844 176.928 66.3092 176.607 66.1446 176.33C65.98 176.052 65.734 175.833 65.44 175.7C63.9884 174.887 62.4612 174.217 60.88 173.7C60.25 173.5 59.57 172.92 58.88 173.7C58.8 173.8 58.61 173.76 58.52 173.64C57.52 172.28 55.96 172.64 54.6 172.34C53.85 172.18 53.45 172.43 53.24 173.26C53.134 173.951 53.0905 174.651 53.11 175.35V175.35ZM38.63 213.3C38.4 213.96 38.78 214.38 39.31 214.79C40.1202 215.289 40.8375 215.925 41.43 216.67C42.0037 217.498 42.8325 218.116 43.79 218.43C45.9111 219.449 48.2037 220.063 50.55 220.24C50.8 220.24 51.15 220.48 51.28 220.13C51.41 219.78 51 219.67 50.74 219.55C50.5364 219.491 50.3463 219.393 50.181 219.261C50.0157 219.128 49.8783 218.964 49.7769 218.778C49.6755 218.592 49.6121 218.387 49.5903 218.177C49.5685 217.966 49.5888 217.753 49.65 217.55C49.71 217.32 49.81 217.01 49.65 216.86C48.85 216.28 49.11 215.53 49.34 214.86C49.57 214.19 49.27 214.14 48.73 214.04C46.5123 213.635 44.4199 212.717 42.62 211.36C41.06 210.21 41.04 210.19 39.62 211.55C39.15 211.98 38.39 212.34 38.63 213.3ZM32.63 198.3C34 198.45 34.58 197.3 35.2 196.64C35.7443 195.843 36.4011 195.129 37.15 194.52C37.5022 194.302 37.7783 193.981 37.94 193.6C38.6039 192.043 39.5498 190.623 40.73 189.41C41.13 189 41.04 188.78 40.73 188.41C39.83 187.54 38.92 186.66 38.07 185.74C37.61 185.25 37.36 185.24 36.9 185.74C34.0612 188.936 32.2585 192.918 31.73 197.16C31.67 198 31.8 198.45 32.65 198.25L32.63 198.3ZM51.88 189.16H51.94C51.94 188.31 51.94 187.46 51.94 186.61C51.94 185.97 51.77 185.8 51.14 185.81C48.2536 185.843 45.4521 186.792 43.14 188.52C42.57 188.93 42.68 189.17 43.14 189.59C44.36 190.77 45.53 192 46.73 193.21C47.54 194.02 48.43 193.91 48.73 192.8C49.03 191.69 49.67 191.75 50.48 192.17L50.85 192.33C51.51 192.65 51.85 192.54 51.85 191.71C51.85 190.88 51.88 189.99 51.88 189.16ZM70.8 195.27C71.06 195.08 71.27 194.91 71.49 194.76C71.71 194.61 71.97 194.19 72.36 194.45C72.75 194.71 72.62 195.07 72.55 195.39C72.4657 195.811 72.2612 196.198 71.9613 196.505C71.6614 196.812 71.2788 197.026 70.86 197.12C70.5423 197.187 70.2443 197.327 69.9893 197.528C69.7343 197.729 69.5293 197.987 69.39 198.28C69.23 198.66 69.25 198.94 69.77 198.95C70.77 198.95 71.68 198.95 72.63 199.02C73.25 199.02 73.24 198.74 73.32 198.22C73.47 197.34 72.21 197.68 72.4 197.03C72.59 196.38 73.14 196.03 72.91 195.35C72.64 194.48 72.42 193.59 72.16 192.71C71.9 191.83 71.55 190.8 70.31 190.56C69.85 190.47 69.19 189.99 69.63 189.46C70.45 188.46 69.81 187.93 69.31 187.27C68.81 186.61 68.44 186.22 68.04 185.67C67.64 185.12 67.22 184.95 66.62 185.59C65.62 186.69 64.48 187.68 63.4 188.71C63.135 189.031 62.9901 189.434 62.9901 189.85C62.9901 190.266 63.135 190.669 63.4 190.99C63.53 191.11 63.66 191.24 63.84 191.16C65.03 190.67 65.62 191.59 66.2 192.28C66.4898 192.72 66.9139 193.055 67.4093 193.236C67.9048 193.416 68.4451 193.431 68.95 193.28C69.1086 193.213 69.2799 193.181 69.4519 193.187C69.624 193.193 69.7926 193.237 69.946 193.315C70.0995 193.393 70.2339 193.504 70.34 193.639C70.446 193.775 70.5212 193.932 70.56 194.1C70.67 194.45 70.73 194.81 70.8 195.25V195.27ZM67.99 213.45C71.1632 209.884 73.0441 205.355 73.33 200.59C73.33 200.06 73.05 199.96 72.63 199.95C71.63 199.95 70.73 199.95 69.77 199.9C69.33 199.9 69.2 200.04 69.24 200.5C69.37 202.06 69.78 202.59 71.36 203.09C71.59 203.16 71.96 203.09 72 203.45C71.9982 203.57 71.9649 203.688 71.9035 203.792C71.8422 203.895 71.7548 203.981 71.65 204.04C71.4778 204.209 71.2691 204.335 71.04 204.41C69.58 204.66 68.4 205.63 67.04 206.05C66.53 206.21 66.43 206.43 66.45 206.92C66.4951 207.803 66.4951 208.687 66.45 209.57C66.39 210.34 66.35 211.16 65.45 211.57C65.16 211.7 65.24 211.86 65.45 212.03C65.66 212.2 65.81 212.42 66.05 212.18C66.2747 211.975 66.461 211.731 66.6 211.46C66.9 210.79 67.13 211.04 67.43 211.46C67.756 212.069 67.947 212.741 67.99 213.43V213.45ZM27.61 199.08C27.1 199.08 26.61 199.08 26.08 199.08C25.42 199.02 25.08 199.18 25.08 199.95C25.1568 202.397 25.5638 204.822 26.29 207.16C26.3363 207.382 26.4404 207.587 26.5919 207.755C26.7433 207.923 26.9366 208.048 27.1521 208.117C27.3675 208.186 27.5975 208.197 27.8185 208.148C28.0394 208.1 28.2436 207.993 28.41 207.84C28.8451 207.45 29.377 207.184 29.95 207.07C30.62 207.01 30.66 206.6 30.68 206.07C30.7072 204.538 30.5833 203.007 30.31 201.5C30.2 200.74 30.61 199.73 30 199.29C29.39 198.85 28.43 199.16 27.61 199.08ZM52.93 188.9H52.81C52.81 189.61 52.81 190.33 52.81 191.04C52.81 191.39 52.57 191.96 53.01 192.04C53.2571 192.104 53.5169 192.099 53.7617 192.027C54.0065 191.955 54.2271 191.818 54.4 191.63C54.52 191.46 54.59 191.27 54.71 191.1C54.83 190.93 54.95 190.74 55.19 190.81C55.43 190.88 55.41 191.15 55.36 191.32C55.14 192.17 55.77 192.57 56.25 193.01C56.89 193.61 57.19 193.42 57.44 192.56C57.83 191.25 58.08 189.8 59.82 189.5C60.62 189.36 60.23 189.02 59.88 188.74C58.0444 187.316 55.8886 186.361 53.6 185.96C52.99 185.86 52.9 186.08 52.91 186.58C52.94 187.34 52.93 188.16 52.93 188.9ZM52.24 224.16H52.3C52.3 224.7 52.23 225.24 52.19 225.78C52.15 226.32 52.34 226.46 52.83 226.46C54.5688 226.414 56.2996 226.206 58 225.84C58.2 225.84 58.41 225.75 58.34 225.46C58 224.16 58.6 222.98 58.84 221.76C58.97 221.06 58.84 220.76 58.11 221.04C56.8914 221.354 55.6514 221.578 54.4 221.71C53.72 221.81 52.78 221.43 52.4 222.05C52.02 222.67 52.28 223.45 52.24 224.16ZM38.67 201.62C38.08 201.62 37.85 201.86 37.98 202.46C38.4604 204.541 39.4 206.489 40.73 208.16C41 208.49 41.21 208.58 41.55 208.23C42.19 207.58 42.87 206.96 43.55 206.32C43.72 206.16 43.87 206.04 43.64 205.75C42.6414 204.369 41.4216 203.163 40.03 202.18C39.6254 201.892 39.1602 201.7 38.67 201.62V201.62ZM37.02 203.16C37.02 204.16 36.52 204.84 37.11 205.56C37.1836 205.695 37.2221 205.846 37.2221 206C37.2221 206.154 37.1836 206.305 37.11 206.44C36.8585 207.239 36.8436 208.094 37.0672 208.901C37.2908 209.709 37.7433 210.434 38.37 210.99C38.62 211.18 38.72 210.99 38.88 210.91C40.43 209.78 40.46 209.59 39.39 208.04C39.04 207.54 38.73 207.04 38.39 206.48C37.8617 205.404 37.4041 204.295 37.02 203.16V203.16ZM68.22 221.35C68.75 220.93 69.13 220.6 69.54 220.35C69.7649 220.201 69.9358 219.983 70.0276 219.729C70.1194 219.475 70.1273 219.199 70.05 218.94C69.9 217.73 68.93 217.31 68.36 216.52C67.62 215.52 67.2 216.4 66.71 216.78C66.5716 216.855 66.4549 216.964 66.3712 217.097C66.2876 217.23 66.2399 217.383 66.2329 217.54C66.2258 217.697 66.2596 217.854 66.331 217.994C66.4024 218.134 66.5088 218.253 66.64 218.34C67.5214 219.092 68.0858 220.149 68.22 221.3V221.35ZM46.48 194.35C45.4 193.29 44.4 192.35 43.42 191.35C41.65 189.59 41.67 189.6 40.21 191.65C39.71 192.34 39.93 192.45 40.64 192.51C42.31 192.66 43.96 192.88 45.21 194.2C45.3899 194.34 45.6092 194.42 45.837 194.429C46.0648 194.438 46.2897 194.376 46.48 194.25V194.35ZM36.29 204.16C36.0572 203.423 36.1181 202.624 36.46 201.93C36.7146 201.296 36.7941 200.605 36.69 199.93C36.69 199.33 36.37 199.32 35.91 199.3C35.6761 199.295 35.4479 199.373 35.2652 199.519C35.0825 199.665 34.9568 199.871 34.91 200.1C34.6254 200.87 34.5973 201.712 34.83 202.5C35.2117 203.138 35.7065 203.7 36.29 204.16V204.16ZM52.73 200.74C52.57 201.36 52.55 201.74 53.13 201.95C53.71 202.16 53.48 202.35 53.32 202.79C53.16 203.23 52.58 203.16 52.56 203.58C52.56 204.44 52.56 205.31 52.56 206.21C54.21 205.75 53.4 203.42 55.05 203.14L52.73 200.74ZM53.37 199.67L56.37 202.5C57.15 200.41 56.3 199.54 53.4 199.67H53.37ZM58.55 208.67C58.3514 208.669 58.1556 208.717 57.9807 208.812C57.8059 208.906 57.6578 209.043 57.55 209.21C57.1969 209.796 57.0426 210.48 57.11 211.16C57.11 211.37 57.03 211.69 57.31 211.77C57.4449 211.799 57.5859 211.778 57.7059 211.709C57.8258 211.641 57.9163 211.531 57.96 211.4C58.2027 210.84 58.5807 210.348 59.06 209.97C59.3 209.75 59.62 209.5 59.44 209.11C59.26 208.72 58.92 208.73 58.58 208.68L58.55 208.67ZM51.73 194.63C51.1846 195.021 50.5398 195.25 49.87 195.29C49.63 195.29 49.01 195.38 49.41 195.87C50.06 196.65 50.83 197.33 51.73 198.23V194.63ZM31.66 200.43C31.72 202.03 31.73 202.06 32.76 201.6C33.79 201.14 33.25 200.25 33.32 199.6C33.39 198.95 32.71 199.32 32.38 199.28C31.25 199.16 31.82 200.02 31.67 200.43H31.66ZM53.27 198.53C54.75 199.2 55.44 198.12 56.2 197.28C56.55 196.9 56.29 196.48 56.02 196.19C55.75 195.9 55.5 196.26 55.32 196.44C54.63 197.16 53.97 197.82 53.28 198.53H53.27ZM52.77 197.37L54.77 195.25L52.77 194.72V197.37ZM53.6 211.57C52.91 211.57 52.45 211.86 52.45 212.65C52.45 212.99 52.51 213.33 52.93 213.18C53.35 213.03 54.4 213.38 54.6 212.5C54.73 211.85 54.29 211.51 53.61 211.57H53.6ZM70.06 195.57C70.06 194.9 69.73 194.43 69.26 194.47C68.79 194.51 68.47 194.54 68.42 195.05C68.42 195.37 69.35 196.33 69.66 196.28C69.97 196.23 70.07 195.89 70.07 195.58L70.06 195.57ZM57.83 219.57C56.8884 219.538 55.9516 219.719 55.09 220.1C56.037 220.269 57.0133 220.092 57.84 219.6L57.83 219.57ZM58.02 213.05C57.4 212.48 57.02 213.27 56.44 213.43C57 213.38 57.61 213.52 58.03 213.08L58.02 213.05ZM52.11 220.2C52.95 220.78 53.57 220.29 54.38 220.27C54.0356 220.078 53.6492 219.974 53.255 219.967C52.8609 219.96 52.471 220.051 52.12 220.23L52.11 220.2ZM64.46 212.64C64.01 211.91 63.67 211.56 62.94 211.9L64.46 212.64ZM60.55 211.72C59.9946 211.892 59.5013 212.222 59.13 212.67C59.703 212.548 60.2116 212.221 60.56 211.75L60.55 211.72ZM47.55 202.4C47.55 202.4 47.48 202.29 47.45 202.3C47.3959 202.323 47.3454 202.353 47.3 202.39C47.3 202.39 47.38 202.49 47.42 202.49C47.46 202.49 47.55 202.46 47.59 202.43L47.55 202.4ZM58.73 212.9H58.78V212.85L58.73 212.9ZM254.38 53.82V53.87H254.44L254.38 53.82Z" fill="black"/>
<path d="M-2.93255e-05 192.16C0.379971 191.9 -2.92659e-05 191.35 0.449971 191.05C0.864837 191.447 1.12383 191.979 1.17997 192.55C1.48132 194.037 2.17143 195.417 3.17997 196.55C4.35057 197.759 5.05856 199.341 5.17997 201.02C5.17997 202.4 6.17997 203.59 6.67997 204.9C7.44509 200.652 9.17256 196.637 11.73 193.16C12.2545 195.754 12.0889 198.44 11.25 200.95C10.55 203.11 9.71997 205.24 8.96997 207.39C8.63972 208.365 8.40528 209.37 8.26997 210.39C8.26997 210.61 8.26997 210.9 7.98997 211C7.70997 211.1 7.46997 210.91 7.28997 210.7C3.79997 206.84 0.839971 202.7 0.129971 197.33C0.129971 197.25 0.0299707 197.18 -0.0300293 197.1L-2.93255e-05 192.16Z" fill="black"/>
<path d="M51.66 205.37C51.27 205.45 51.07 205.79 50.81 206.03C50.55 206.27 50.33 206.37 50.1 206.15C49.87 205.93 49.99 205.59 50.2 205.35C50.388 205.161 50.6191 205.021 50.8734 204.94C51.1276 204.86 51.3975 204.843 51.66 204.89V205.37Z" fill="black"/>
<path d="M57.84 219.6C57.0199 220.1 56.0473 220.288 55.1 220.13C55.9616 219.749 56.8983 219.568 57.84 219.6V219.6Z" fill="black"/>
<path d="M51.5799 208.48C51.0899 208.55 51.5 209.11 51.07 209.29C50.75 209.01 50.31 208.58 50.45 208.21C50.59 207.84 51.1799 208.09 51.5799 208.12C51.6242 208.169 51.6487 208.234 51.6487 208.3C51.6487 208.366 51.6242 208.43 51.5799 208.48V208.48Z" fill="black"/>
<path d="M52.12 220.23C52.4747 220.053 52.8677 219.967 53.2638 219.98C53.6599 219.992 54.0468 220.102 54.39 220.3C53.58 220.32 52.96 220.81 52.12 220.23Z" fill="black"/>
<path d="M51.73 203.81C51.63 203.55 51.87 203.11 51.35 203.09C51.46 202.9 51.64 202.75 51.8 202.94C51.8561 203 51.8991 203.071 51.9262 203.149C51.9533 203.226 51.9639 203.309 51.9573 203.39C51.9507 203.472 51.9271 203.552 51.8879 203.624C51.8488 203.696 51.795 203.76 51.73 203.81V203.81Z" fill="black"/>
<path d="M20.8399 224.87C24.5699 227.03 27.8399 229.63 28.9399 234.08C29.1828 234.897 29.4904 235.692 29.8599 236.46C30.7299 238.46 31.2599 239.05 33.5099 240.69C31.7171 241.508 29.7947 242.006 27.8299 242.16C22.4699 242.61 17.5499 241.48 13.4199 237.81C11.8574 236.434 10.7341 234.629 10.1899 232.62C10.8314 232.712 11.4139 233.045 11.8199 233.55C12.8051 234.537 14.068 235.2 15.4399 235.45C18.5899 236.17 21.6899 237.08 24.8199 237.89C25.2499 238 25.7099 238.23 26.1899 237.97C26.1856 238.01 26.1856 238.05 26.1899 238.09H26.2699L26.1999 237.98C25.8273 236.926 25.3017 235.932 24.6399 235.03C22.7133 231.934 21.4405 228.476 20.8999 224.87H20.8399Z" fill="black"/>
<path d="M18.4601 232.36C18.2101 231.36 17.3201 230.79 16.9401 229.85C15.9749 227.232 15.376 224.492 15.1601 221.71C14.9651 219.78 14.875 217.84 14.8901 215.9C15.2801 215.9 15.2801 216.16 15.3701 216.34C16.1801 217.88 17.2101 219.29 18.1501 220.75C19.3509 222.539 20.077 224.603 20.2601 226.75C20.4801 229.47 21.4601 232.06 21.7401 234.75C21.8801 236.08 21.8901 236.09 20.5901 235.75C16.5695 234.742 12.8161 232.872 9.59006 230.27C7.96105 228.849 6.63266 227.116 5.68298 225.173C4.73331 223.231 4.18152 221.119 4.06006 218.96C4.94006 219.96 5.83006 221.05 6.70006 222.11C6.90006 222.34 7.03006 222.64 7.33006 222.77C10.6301 224.13 12.8801 226.77 15.1501 229.33C16.0967 230.49 17.1405 231.567 18.2701 232.55C18.3501 232.61 18.4001 232.78 18.5201 232.68C18.6401 232.58 18.4901 232.47 18.4601 232.36Z" fill="black"/>
<path d="M0.609985 205.21C2.20999 207.45 4.02999 209.51 5.82999 211.59C7.69382 213.641 9.27147 215.936 10.52 218.41C10.58 216.77 10.41 215.15 10.52 213.53C10.6215 211.901 10.8084 210.279 11.08 208.67C11.3326 207.052 11.7688 205.469 12.38 203.95C14.3908 207.929 14.8368 212.518 13.63 216.81C13.56 217.07 13.52 217.34 13.47 217.61C13.0654 219.405 12.8641 221.24 12.87 223.08C12.87 223.55 12.74 224.08 12.25 223.54C10.39 221.54 7.79999 220.54 5.84999 218.66C3.58999 216.5 2.53999 213.71 1.84999 210.78C1.37999 208.94 1.01999 207.07 0.609985 205.21Z" fill="black"/>
<path d="M6.11 199.31C2.27 194.51 2.61 181.46 6.68 177.26C7.3611 179.148 7.63046 181.16 7.47 183.16C7.37 186.16 6.87 189.16 6.98 192.16C6.98 192.44 6.85 192.77 7.26 193.07C8.74164 188.794 11.661 185.164 15.52 182.8C15.6227 183.41 15.5391 184.038 15.28 184.6C14.72 186.6 13.77 188.39 13.04 190.29C12.8108 190.829 12.47 191.313 12.04 191.71C9.66541 193.906 7.66274 196.473 6.11 199.31V199.31Z" fill="black"/>
<path d="M10.9099 182.32C13.2399 178.64 16.9599 176.83 20.6399 174.62C20.4481 175.576 20.0525 176.48 19.4799 177.27C18.4948 178.743 17.3102 180.072 15.9599 181.22C13.7099 183.22 11.2399 184.99 9.12994 187.22C7.32994 181.48 9.12994 171.83 14.4299 169.49C14.4165 170.301 14.2713 171.105 13.9999 171.87C13.4577 173.483 12.8199 175.063 12.0899 176.6C11.2555 178.388 10.8513 180.347 10.9099 182.32V182.32Z" fill="black"/>
<path d="M20.86 224.84H20.71V224.76L20.81 224.9L20.86 224.84Z" fill="black"/>
<path d="M134.28 136.84V53.05C134.28 51.67 134.28 51.67 135.63 51.67C146.77 51.67 157.91 51.67 169.05 51.67C170.05 51.67 170.23 51.94 170.23 52.86C170.23 102.487 170.23 152.117 170.23 201.75C170.23 208.09 167.05 212.48 161.84 215.64C157.267 218.233 152.263 219.977 147.07 220.79C143.256 221.495 139.396 221.926 135.52 222.08C134.52 222.08 134.28 221.87 134.28 220.86C134.293 192.847 134.293 164.84 134.28 136.84Z" fill="black"/>
</g>
<defs>
<clipPath id="clip0">
<rect width="297.66" height="266.98" fill="white"/>
</clipPath>
</defs>
</svg>
