<svg width="313" height="64" viewBox="0 0 313 64" fill="none" xmlns="http://www.w3.org/2000/svg">
<path fill-rule="evenodd" clip-rule="evenodd" d="M55.945 0.279999H8.35497C6.3888 0.282649 4.50406 1.06557 3.1147 2.4568C1.72535 3.84803 0.944971 5.73383 0.944973 7.7V55.23C0.942344 56.2052 1.132 57.1715 1.50308 58.0733C1.87417 58.9752 2.41941 59.7951 3.10763 60.4861C3.79584 61.1771 4.61352 61.7257 5.51391 62.1004C6.41429 62.4751 7.37972 62.6687 8.35497 62.67H55.945C56.9202 62.6687 57.8857 62.4751 58.786 62.1004C59.6864 61.7257 60.5041 61.1771 61.1923 60.4861C61.8805 59.7951 62.4258 58.9752 62.7969 58.0733C63.1679 57.1715 63.3576 56.2052 63.355 55.23V7.7C63.355 5.73383 62.5746 3.84803 61.1852 2.4568C59.7959 1.06557 57.9111 0.282649 55.945 0.279999V0.279999ZM27.845 45.23C27.8437 45.5547 27.7781 45.876 27.652 46.1753C27.5259 46.4746 27.3418 46.7459 27.1103 46.9737C26.8788 47.2015 26.6046 47.3811 26.3033 47.5024C26.002 47.6236 25.6797 47.684 25.355 47.68H14.955C14.3033 47.68 13.6781 47.4225 13.2155 46.9636C12.7528 46.5047 12.4902 45.8816 12.485 45.23V14.23C12.4876 13.5766 12.749 12.951 13.2119 12.4899C13.6749 12.0289 14.3016 11.77 14.955 11.77H25.355C25.6805 11.766 26.0037 11.8267 26.3056 11.9486C26.6075 12.0704 26.8823 12.251 27.1139 12.4798C27.3455 12.7087 27.5294 12.9812 27.6549 13.2816C27.7804 13.582 27.845 13.9044 27.845 14.23V45.23ZM51.845 31.02C51.8424 31.3444 51.7759 31.665 51.6493 31.9637C51.5228 32.2624 51.3386 32.5332 51.1074 32.7607C50.8762 32.9882 50.6024 33.168 50.3017 33.2897C50.0011 33.4114 49.6793 33.4726 49.355 33.47H38.945C38.2925 33.47 37.6668 33.2108 37.2055 32.7495C36.7442 32.2881 36.485 31.6624 36.485 31.01V14.23C36.485 13.5776 36.7442 12.9519 37.2055 12.4905C37.6668 12.0292 38.2925 11.77 38.945 11.77H49.355C49.6802 11.7674 50.0027 11.829 50.304 11.9513C50.6054 12.0736 50.8796 12.2542 51.1109 12.4828C51.3423 12.7114 51.5262 12.9834 51.6522 13.2832C51.7782 13.583 51.8437 13.9048 51.845 14.23V31.02Z" fill="url(#paint0_linear)"/>
<path d="M130.275 4.85999V16.86H115.975V62.62H102.205V16.91H87.9149V4.90998L130.275 4.85999Z" fill="#505F79"/>
<path d="M147.815 62.67H135.075V17.67H147.815V26.33C150.225 20.25 154.095 16.65 160.985 17.09V30.38C152.035 29.67 147.815 31.87 147.815 39.09V62.67Z" fill="#505F79"/>
<path d="M230.595 63.02C222.245 63.02 216.985 58.97 216.985 49.56V0.279999H229.815V47.8C229.815 50.52 231.625 51.49 233.815 51.49C234.446 51.5016 235.077 51.4749 235.705 51.41V62.49C234.035 62.9083 232.315 63.0868 230.595 63.02V63.02Z" fill="#505F79"/>
<path d="M257.355 63.02C249.005 63.02 243.755 58.97 243.755 49.56V0.279999H256.585V47.8C256.585 50.52 258.395 51.49 260.635 51.49C261.266 51.5012 261.897 51.4745 262.525 51.41V62.49C260.836 62.9135 259.095 63.092 257.355 63.02V63.02Z" fill="#505F79"/>
<path d="M268.665 40.14C268.665 26.24 276.665 16.74 290.445 16.74C304.225 16.74 312.055 26.23 312.055 40.14C312.055 54.05 304.135 63.72 290.445 63.72C276.755 63.72 268.665 53.96 268.665 40.14ZM281.145 40.14C281.145 46.92 283.985 52.29 290.445 52.29C296.905 52.29 299.575 46.92 299.575 40.14C299.575 33.36 296.815 28.14 290.445 28.14C284.075 28.14 281.145 33.36 281.145 40.14Z" fill="#505F79"/>
<path d="M178.185 44.23C181.755 44.631 185.343 44.8447 188.935 44.87C198.685 44.87 206.935 42.24 206.935 32.8C206.935 23.63 198.465 16.74 188.275 16.74C174.555 16.74 165.775 26.68 165.775 40.58C165.775 55.01 173.355 63.58 190.485 63.58C195.564 63.6188 200.607 62.7134 205.355 60.91V50.13C200.965 51.54 196.005 52.93 190.925 52.93C184.095 52.93 179.355 50.69 178.185 44.23ZM188.015 26.56C191.625 26.56 194.525 29 194.525 32.36C194.525 36.67 189.965 38.02 184.735 38.02C182.505 38.0097 180.279 37.8326 178.075 37.49C178.237 35.3892 178.836 33.3454 179.835 31.49C180.637 30.0151 181.818 28.7808 183.256 27.9142C184.693 27.0476 186.336 26.5802 188.015 26.56V26.56Z" fill="#505F79"/>
<defs>
<linearGradient id="paint0_linear" x1="32.165" y1="85.49" x2="32.165" y2="23.1" gradientUnits="userSpaceOnUse">
<stop stop-color="#42526E"/>
<stop offset="1" stop-color="#7A869A"/>
</linearGradient>
</defs>
</svg>
