<?xml version="1.0" encoding="UTF-8" standalone="no"?>
<svg
   xmlns:dc="http://purl.org/dc/elements/1.1/"
   xmlns:cc="http://creativecommons.org/ns#"
   xmlns:rdf="http://www.w3.org/1999/02/22-rdf-syntax-ns#"
   xmlns:svg="http://www.w3.org/2000/svg"
   xmlns="http://www.w3.org/2000/svg"
   xmlns:sodipodi="http://sodipodi.sourceforge.net/DTD/sodipodi-0.dtd"
   xmlns:inkscape="http://www.inkscape.org/namespaces/inkscape"
   version="1.1"
   id="svg2"
   xml:space="preserve"
   width="288"
   height="288"
   viewBox="0 0 288 288"
   sodipodi:docname="unity-tab-circle-black.eps"><metadata
     id="metadata8"><rdf:RDF><cc:Work
         rdf:about=""><dc:format>image/svg+xml</dc:format><dc:type
           rdf:resource="http://purl.org/dc/dcmitype/StillImage" /></cc:Work></rdf:RDF></metadata><defs
     id="defs6" /><sodipodi:namedview
     pagecolor="#ffffff"
     bordercolor="#666666"
     borderopacity="1"
     objecttolerance="10"
     gridtolerance="10"
     guidetolerance="10"
     inkscape:pageopacity="0"
     inkscape:pageshadow="2"
     inkscape:window-width="640"
     inkscape:window-height="480"
     id="namedview4" /><g
     id="g10"
     inkscape:groupmode="layer"
     inkscape:label="ink_ext_XXXXXX"
     transform="matrix(1.3333333,0,0,-1.3333333,0,288)"><g
       id="g12"
       transform="scale(0.1)"><path
         d="M 2160,1080 C 2160,483.531 1676.47,0 1080,0 483.531,0 0.00390625,483.531 0.00390625,1080 0.00390625,1676.47 483.531,2160 1080,2160 c 596.47,0 1080,-483.53 1080,-1080"
         style="fill:#100f0d;fill-opacity:1;fill-rule:nonzero;stroke:none"
         id="path14" /><path
         d="m 1433.95,1622.89 -443.505,-115.57 -65.636,-112.64 -133.204,0.97 -324.636,-315.71 324.636,-315.659 133.125,0.969 65.793,-112.57 443.427,-115.571 118.8,431.153 -67.5,111.678 67.5,111.66 z M 935.484,1376.55 1274.74,1461.35 1080,1133.27 H 690.453 Z m 0,-593.171 -245.031,243.281 H 1080 l 194.74,-328.07 z m 434.196,-31.457 -194.81,328.018 194.81,328.14 94.07,-328.14 -94.07,-328.018"
         style="fill:#ffffff;fill-opacity:1;fill-rule:nonzero;stroke:none"
         id="path16" /></g></g></svg>
