<svg width="202" height="198" viewBox="0 0 202 198" fill="none" xmlns="http://www.w3.org/2000/svg">
<g clip-path="url(#clip0)">
<path d="M115.413 165.12C159.11 165.12 194.533 129.697 194.533 86C194.533 73.2758 191.529 61.2532 186.192 50.6024H193.813C198.695 61.398 201.413 73.3816 201.413 86C201.413 133.496 162.909 172 115.413 172C86.095 172 60.2037 157.33 44.6792 134.929L49.2849 129.457C63.4316 150.94 87.7663 165.12 115.413 165.12Z" fill="url(#paint0_angular)"/>
<path d="M115.413 0C86.5739 0 61.0504 14.195 45.4482 35.9791L50.0858 41.3509C64.3391 20.5367 88.2811 6.88 115.413 6.88C139.231 6.88 160.59 17.4042 175.095 34.056H183.959C168.254 13.3633 143.394 0 115.413 0Z" fill="url(#paint1_angular)"/>
<path d="M172.93 48.0384H172.571L172.456 48.3777L159.529 86.4676L150.736 78.3126L160.813 48.6995L161.038 48.0384H160.339H118.094L105.782 36.62H200.67L191.845 48.0384H172.93Z" stroke="#C80000"/>
<path d="M124.666 77.4L128.721 89.8792H141.842L131.227 97.5917L135.282 110.071L124.666 102.358L114.051 110.071L118.106 97.5917L107.49 89.8792H120.612L124.666 77.4Z" fill="#C80000"/>
<path d="M51.8416 46.5432L42.932 36.2232L29 77.1248L39.0104 138.46L90.7136 77.0216L100.346 48.5384H117.898L104.508 36.12L88.4432 46.6808L78.3296 76.4024L47.06 114.621L41.7968 76.54L51.8416 46.5432Z" fill="#C80000"/>
<path d="M86 135.949L110.54 125.491H112L87.4602 135.949H86Z" fill="#C80000"/>
<path d="M84.6936 135.949C76.245 135.949 77.0224 128.977 78.4672 125.491C84.7624 107.133 97.9514 68.6142 100.346 61.404C102.74 54.1938 109.141 52.0243 112.042 51.8408C120.24 51.9096 138.523 52.0059 146.063 51.8408C153.604 51.6757 152.737 58.6979 151.361 62.2296L148.643 70.4512L141.488 62.2296H113.074C110.955 62.3672 109.874 63.984 109.599 64.7752C103.235 83.3741 90.3765 121.012 89.8536 122.774C89.3307 124.535 90.576 125.319 91.264 125.491H109.233L84.6936 135.949Z" fill="#C80000"/>
<path d="M159.754 87.3588L150.158 78.4586L138.381 113.07L153.167 106.769L159.754 87.3588Z" fill="#C80000"/>
<path d="M137.911 114.449L152.698 108.148L152.946 107.42L138.159 113.721L137.911 114.449Z" fill="#C80000"/>
<path fill-rule="evenodd" clip-rule="evenodd" d="M172.427 148.344L184.187 147.713L159.093 125.25L166 158.213L172.427 148.344ZM167.447 150.492L170.744 145.43L176.777 145.106L163.904 133.583L167.447 150.492Z" fill="#C80000"/>
<path d="M109.285 127.296L113.5 125.5H158.146L158.522 127.296H109.285Z" fill="#C80000"/>
<rect x="26" width="2" height="198" fill="#C80000"/>
<path d="M200 170L200 172L-8.74232e-08 172L0 170L200 170Z" fill="#C80000"/>
</g>
<defs>
<radialGradient id="paint0_angular" cx="0" cy="0" r="1" gradientUnits="userSpaceOnUse" gradientTransform="translate(115.55 86) rotate(180) scale(82.904 82.8456)">
<stop offset="0.0845186" stop-color="#C80000"/>
<stop offset="0.329831" stop-color="#C80000" stop-opacity="0.470762"/>
<stop offset="0.384731" stop-color="#C80000" stop-opacity="0"/>
<stop offset="1" stop-color="#C80000" stop-opacity="0"/>
</radialGradient>
<radialGradient id="paint1_angular" cx="0" cy="0" r="1" gradientUnits="userSpaceOnUse" gradientTransform="translate(115.55 86) rotate(180) scale(82.904 82.8456)">
<stop offset="0.0845186" stop-color="#C80000"/>
<stop offset="0.329831" stop-color="#C80000" stop-opacity="0.470762"/>
<stop offset="0.384731" stop-color="#C80000" stop-opacity="0"/>
<stop offset="1" stop-color="#C80000" stop-opacity="0"/>
</radialGradient>
<clipPath id="clip0">
<rect width="202" height="198" fill="white"/>
</clipPath>
</defs>
</svg>
